<svg xmlns="http://www.w3.org/2000/svg" data-name="Layer 1" viewBox="0 0 512 512"><path fill="#c8c5cc" d="M291,99.00033H221a7.49974,7.49974,0,0,1-7.5-7.5V57.11166a22.52554,22.52554,0,0,1,22.5-22.5h40a22.52554,22.52554,0,0,1,22.5,22.5V91.50033A7.49974,7.49974,0,0,1,291,99.00033Zm-62.5-15h55V57.11166a7.5082,7.5082,0,0,0-7.5-7.5H236a7.5082,7.5082,0,0,0-7.5,7.5Z"/><path fill="#f9a242" d="M133.5 7.5h35a15 15 0 0 1 15 15V133.49985a0 0 0 0 1 0 0h-65a0 0 0 0 1 0 0V22.5a15 15 0 0 1 15-15zM343.5 7.5h35a15 15 0 0 1 15 15V133.49985a0 0 0 0 1 0 0h-65a0 0 0 0 1 0 0V22.5A15 15 0 0 1 343.5 7.5z"/><path fill="#f69531" d="M378.5,7.49985h-30a15,15,0,0,1,15,15v111h30v-111A15,15,0,0,0,378.5,7.49985Z"/><path fill="#f9b15e" d="M209.5,76.5h93a115,115,0,0,1,115,115v283a30,30,0,0,1-30,30h-263a30,30,0,0,1-30-30v-283a115,115,0,0,1,115-115Z"/><path fill="#f9a242" d="M302.5,76.49985h-45a115,115,0,0,1,115,115v283a29.99981,29.99981,0,0,1-30,30h45a29.99981,29.99981,0,0,0,30-30v-283A115,115,0,0,0,302.5,76.49985Z"/><path fill="#469ed6" d="M417.5,336.5018v138a29.99824,29.99824,0,0,1-30,30h-263a29.99824,29.99824,0,0,1-30-30v-138a94.9961,94.9961,0,0,1,95-95h133A94.9961,94.9961,0,0,1,417.5,336.5018Z"/><path fill="#227fc0" d="M322.5,241.5018h-45a94.9961,94.9961,0,0,1,95,95v138a29.99824,29.99824,0,0,1-30,30h45a29.99824,29.99824,0,0,0,30-30v-138A94.9961,94.9961,0,0,0,322.5,241.5018Z"/><path fill="#fff" d="M328.5 203.61166a7.50683 7.50683 0 0 1-3.10059-14.35156A7.49653 7.49653 0 0 1 336 196.06186v.0498A7.49974 7.49974 0 0 1 328.5 203.61166zM299.54688 203.61166h-.0962a7.50024 7.50024 0 1 1 .0962 0zm-28.999 0h-.09668a7.5 7.5 0 1 1 .09668 0zm-28.99951 0h-.09619a7.49976 7.49976 0 1 1 .09619 0zm-28.99951 0h-.09619a7.49976 7.49976 0 1 1 .09619 0zM183.5498 203.61166H183.5a7.5 7.5 0 1 1 .0498 0zM183.5 168.17026a7.49975 7.49975 0 0 1-7.5-7.5v-.11817a7.5 7.5 0 0 1 15 0v.11817A7.49975 7.49975 0 0 1 183.5 168.17026zM183.5 132.63608a7.47812 7.47812 0 0 1-7.5-7.47461v-.04981a7.49653 7.49653 0 1 1 7.5 7.52442zM299.54736 132.61166a7.54073 7.54073 0 0 1-7.54785-7.5 7.45864 7.45864 0 0 1 7.45166-7.5h.09619a7.5 7.5 0 0 1 0 15zm-28.99951 0a7.54073 7.54073 0 0 1-7.54785-7.5 7.45864 7.45864 0 0 1 7.45166-7.5h.09619a7.5 7.5 0 0 1 0 15zm-28.999 0a7.54116 7.54116 0 0 1-7.54834-7.5 7.45864 7.45864 0 0 1 7.45166-7.5h.09668a7.5 7.5 0 0 1 0 15zm-28.99951 0a7.54116 7.54116 0 0 1-7.54834-7.5 7.45905 7.45905 0 0 1 7.45214-7.5h.0962a7.5 7.5 0 0 1 0 15zM328.5 132.63608a7.51226 7.51226 0 0 1-.0498-15.02442H328.5a7.51222 7.51222 0 0 1 0 15.02442zM328.5 168.17123a7.49974 7.49974 0 0 1-7.5-7.5v-.11816a7.5 7.5 0 0 1 15 0v.11816A7.49974 7.49974 0 0 1 328.5 168.17123zM328.5 428.61166a7.50683 7.50683 0 0 1-3.10059-14.35156A7.49653 7.49653 0 0 1 336 421.06186v.0498A7.49974 7.49974 0 0 1 328.5 428.61166zM299.54688 428.61166h-.0962a7.50024 7.50024 0 1 1 .0962 0zm-28.999 0h-.09668a7.5 7.5 0 1 1 .09668 0zm-28.99951 0h-.09619a7.49976 7.49976 0 1 1 .09619 0zm-28.99951 0h-.09619a7.49976 7.49976 0 1 1 .09619 0zM183.5498 428.61166H183.5a7.5 7.5 0 1 1 .0498 0zM183.5 400.61264a7.46071 7.46071 0 0 1-7.5-7.4541v-.09278a7.50015 7.50015 0 1 1 7.5 7.54688zM183.5 372.63608a7.47812 7.47812 0 0 1-7.5-7.47461v-.04981a7.49653 7.49653 0 1 1 7.5 7.52442zM299.54736 372.61166a7.54073 7.54073 0 0 1-7.54785-7.5 7.45864 7.45864 0 0 1 7.45166-7.5h.09619a7.5 7.5 0 0 1 0 15zm-28.99951 0a7.54073 7.54073 0 0 1-7.54785-7.5 7.45864 7.45864 0 0 1 7.45166-7.5h.09619a7.5 7.5 0 0 1 0 15zm-28.999 0a7.54116 7.54116 0 0 1-7.54834-7.5 7.45864 7.45864 0 0 1 7.45166-7.5h.09668a7.5 7.5 0 0 1 0 15zm-28.99951 0a7.54116 7.54116 0 0 1-7.54834-7.5 7.45905 7.45905 0 0 1 7.45214-7.5h.0962a7.5 7.5 0 1 1 0 15zM328.5 372.63608a7.51226 7.51226 0 0 1-.0498-15.02442H328.5a7.51222 7.51222 0 0 1 0 15.02442zM328.5 400.65756a7.52347 7.52347 0 1 1 7.5-7.59277v.09277A7.49974 7.49974 0 0 1 328.5 400.65756z"/><path fill="#57565c" d="M357.5,313.61166h-209a7.5,7.5,0,0,1,0-15h209a7.5,7.5,0,0,1,0,15Z"/><path fill="#57565c" d="M163.5,332.31967a7.49974,7.49974,0,0,1-7.5-7.5v-18.708a7.5,7.5,0,0,1,15,0v18.708A7.49974,7.49974,0,0,1,163.5,332.31967Z"/><path fill="#227fc0" d="M417.5,459.5018v15a29.99824,29.99824,0,0,1-30,30h-263a29.99824,29.99824,0,0,1-30-30v-15Z"/><path fill="#2370b5" d="M372.5,459.5018v15a29.99824,29.99824,0,0,1-30,30h45a29.99824,29.99824,0,0,0,30-30v-15Z"/></svg>