<svg xmlns="http://www.w3.org/2000/svg" data-name="Layer 1" viewBox="0 0 512 512"><path fill="#fee27d" d="M504.5,112.24v297.9H74.87226L56.19,395.14l-15-18.731V101.86H494.14A10.36643,10.36643,0,0,1,504.5,112.24Z"/><path fill="#fed947" d="M448.5292,410.14428V359.28186a5.18626,5.18626,0,0,1,5.18248-5.19H504.5Z"/><rect width="148.219" height="62.281" x="72.281" y="132.996" fill="#fff" rx="7"/><path fill="#ed4769" d="M473.40527,156.06641H418.4707a7.5,7.5,0,0,1,0-15h54.93457a7.5,7.5,0,0,1,0,15Z"/><path fill="#fff" d="M473.40527 187.20605H387.376a7.5 7.5 0 0 1 0-15h86.02929a7.5 7.5 0 0 1 0 15zM317.93066 265.05664H212.208a7.5 7.5 0 0 1 0-15H317.93066a7.5 7.5 0 0 1 0 15zM473.40527 265.05664H445.41992a7.5 7.5 0 1 1 0-15h27.98535a7.5 7.5 0 0 1 0 15zM473.40527 296.19727H445.41992a7.5 7.5 0 1 1 0-15h27.98535a7.5 7.5 0 0 1 0 15zM349.02539 296.19727H212.208a7.5 7.5 0 0 1 0-15H349.02539a7.5 7.5 0 0 1 0 15zM421.82 226.41992V410.14h-15V226.41992a7.5 7.5 0 1 1 15 0z"/><rect width="46.642" height="183.728" x="134.471" y="226.417" fill="#fff"/><path fill="#fff" d="M504.5,218.91992v15H41.19a7.5,7.5,0,0,1,0-15Z"/><path fill="#8b8893" d="M41.18613,376.409a33.73532,33.73532,0,0,0,0,67.47056H388.55982V410.14428H74.87226A33.71074,33.71074,0,0,0,41.18613,376.409"/><path fill="#fed030" d="M74.87,410.14H41.19v-33.7301A33.69852,33.69852,0,0,1,74.87,410.14Z"/><path fill="#fed947" d="M41.18613,376.409A33.71073,33.71073,0,0,0,7.5,410.14428V101.85572a33.68615,33.68615,0,1,1,67.37226,0V410.14428A33.71074,33.71074,0,0,0,41.18613,376.409Z"/></svg>