<svg xmlns="http://www.w3.org/2000/svg" data-name="Layer 1" viewBox="0 0 512 512"><rect width="497" height="256" x="7.5" y="67.5" fill="#7dc7a2" rx="15"/><path fill="#56bc8d" d="M489.5,67.5h-45a15,15,0,0,1,15,15v226a15.00008,15.00008,0,0,1-15,15h45a15.00008,15.00008,0,0,0,15-15V82.5A15,15,0,0,0,489.5,67.5Z"/><rect width="30" height="29.694" x="52.5" y="37.806" fill="#8b8893"/><path fill="#fff" d="M67.5 301h-30a7.49974 7.49974 0 0 1-7.5-7.5v-30a7.5 7.5 0 0 1 15 0V286H67.5a7.5 7.5 0 0 1 0 15zM37.5 135a7.49974 7.49974 0 0 1-7.5-7.5v-30A7.49974 7.49974 0 0 1 37.5 90h30a7.5 7.5 0 0 1 0 15H45v22.5A7.49974 7.49974 0 0 1 37.5 135zM474.5 135a7.49974 7.49974 0 0 1-7.5-7.5V105H444.5a7.5 7.5 0 0 1 0-15h30a7.49974 7.49974 0 0 1 7.5 7.5v30A7.49974 7.49974 0 0 1 474.5 135zM474.5 301h-30a7.5 7.5 0 0 1 0-15H467V263.5a7.5 7.5 0 0 1 15 0v30A7.49974 7.49974 0 0 1 474.5 301z"/><path fill="#fee27d" d="M50.5,7.5h34a20,20,0,0,1,20,20v10a0,0,0,0,1,0,0h-74a0,0,0,0,1,0,0v-10A20,20,0,0,1,50.5,7.5Z"/><path fill="#fed947" d="M84.5,7.5h-30a20,20,0,0,1,20,20v10h30v-10A20,20,0,0,0,84.5,7.5Z"/><rect width="30" height="29.694" x="429.5" y="37.806" fill="#8b8893"/><path fill="#fee27d" d="M427.5,7.5h34a20,20,0,0,1,20,20v10a0,0,0,0,1,0,0h-74a0,0,0,0,1,0,0v-10A20,20,0,0,1,427.5,7.5Z"/><path fill="#fed947" d="M461.5,7.5h-30a20,20,0,0,1,20,20v10h30v-10A20,20,0,0,0,461.5,7.5Z"/><path fill="#ee553d" d="M443.95508,135H267.53027a7.5,7.5,0,0,1,0-15H443.95508a7.5,7.5,0,0,1,0,15Z"/><path fill="#fed947" d="M443.95508 165H267.53027a7.5 7.5 0 0 1 0-15H443.95508a7.5 7.5 0 0 1 0 15zM385.68945 195H267.53027a7.5 7.5 0 0 1 0-15H385.68945a7.5 7.5 0 1 1 0 15zM325.68945 270H267.53027a7.5 7.5 0 0 1 0-15h58.15918a7.5 7.5 0 1 1 0 15z"/><path fill="#fff" d="M233.5,135.5v120a8.00544,8.00544,0,0,1-8,8H75.5a7.99634,7.99634,0,0,1-8-8v-120a7.99782,7.99782,0,0,1,8-8h150A7.99782,7.99782,0,0,1,233.5,135.5Z"/><path fill="#ee553d" d="M229.79,262.25a7.95505,7.95505,0,0,1-4.29,1.25H138.49l18.08008-14.47,25.39732-20.32159a4,4,0,0,1,4.96553-.0258Z"/><path fill="#fed947" d="M171.04,263.5H75.5a7.98451,7.98451,0,0,1-5.95-2.65l46.89165-46.32581a4,4,0,0,1,5.63963.01712L156.57007,249.03Z"/><rect width="30" height="188.5" x="52.5" y="323.5" fill="#aeadb3"/><rect width="30" height="188.5" x="429.5" y="323.5" fill="#aeadb3"/></svg>