<svg xmlns="http://www.w3.org/2000/svg" data-name="Layer 1" viewBox="0 0 512 512"><path fill="#f9b15e" d="M428.5,47.5018v417a40.00186,40.00186,0,0,1-40,40h-275a15.00559,15.00559,0,0,1-15-15v-467a14.999,14.999,0,0,1,15-15h275A40.0017,40.0017,0,0,1,428.5,47.5018Z"/><path fill="#f9a242" d="M388.5,7.5018h-45a40.0017,40.0017,0,0,1,40,40v417a40.00186,40.00186,0,0,1-40,40h45a40.00186,40.00186,0,0,0,40-40v-417A40.0017,40.0017,0,0,0,388.5,7.5018Z"/><path fill="#8b8893" d="M84.064,113.50326a7.46189,7.46189,0,0,1-3.3457-.793A41.004,41.004,0,1,1,140,76.00131a7.5,7.5,0,0,1-15,0,26,26,0,1,0-37.57861,23.291A7.50108,7.50108,0,0,1,84.064,113.50326Z"/><path fill="#8b8893" d="M84.064,173.50326a7.46189,7.46189,0,0,1-3.3457-.793A41.004,41.004,0,1,1,140,136.00131a7.5,7.5,0,0,1-15,0,26,26,0,1,0-37.57861,23.291A7.50108,7.50108,0,0,1,84.064,173.50326Z"/><path fill="#8b8893" d="M84.064,233.50326a7.46189,7.46189,0,0,1-3.3457-.793A41.004,41.004,0,1,1,140,196.00131a7.5,7.5,0,0,1-15,0,26,26,0,1,0-37.57861,23.291A7.50108,7.50108,0,0,1,84.064,233.50326Z"/><path fill="#8b8893" d="M84.064,293.50326a7.46189,7.46189,0,0,1-3.3457-.793A41.004,41.004,0,1,1,140,256.00131a7.5,7.5,0,0,1-15,0,26,26,0,1,0-37.57861,23.291A7.50108,7.50108,0,0,1,84.064,293.50326Z"/><path fill="#8b8893" d="M84.064,353.50326a7.46189,7.46189,0,0,1-3.3457-.793A41.004,41.004,0,1,1,140,316.00131a7.5,7.5,0,0,1-15,0,26,26,0,1,0-37.57861,23.291A7.50108,7.50108,0,0,1,84.064,353.50326Z"/><path fill="#8b8893" d="M84.064,413.50326a7.46189,7.46189,0,0,1-3.3457-.793A41.004,41.004,0,1,1,140,376.00131a7.5,7.5,0,0,1-15,0,26,26,0,1,0-37.57861,23.291A7.50108,7.50108,0,0,1,84.064,413.50326Z"/><path fill="#8b8893" d="M98.5,461.99166a25.99471,25.99471,0,0,1,0-51.98c.17-.01.33-.01.5-.01a26.02488,26.02488,0,0,1,26,26,7.5,7.5,0,0,0,15,0,41.04319,41.04319,0,0,0-41-41h-.5a41.00309,41.00309,0,0,0,0,82Z"/><path fill="#f9a242" d="M190,7.5018V504.11166a2.55122,2.55122,0,0,1-.02.39014H175.02a2.55122,2.55122,0,0,1-.02-.39014V7.5018Z"/><rect width="159" height="51" x="225.5" y="52.5" fill="#fdd8ae" rx="8"/><path fill="#f9a242" d="M384.5 156.00033h-159a7.5 7.5 0 0 1 0-15h159a7.5 7.5 0 0 1 0 15zM384.5 201.00033h-159a7.5 7.5 0 0 1 0-15h159a7.5 7.5 0 0 1 0 15z"/></svg>