<svg xmlns="http://www.w3.org/2000/svg" data-name="Layer 1" viewBox="0 0 512 512"><path fill="#ed4769" d="M362.854,112.09974v-7.42933H226.35429v7.42933A24.98907,24.98907,0,0,1,216.47925,132l0,0a24.98905,24.98905,0,0,0-9.875,19.90025V464.5a40,40,0,0,0,40,40h96a40,40,0,0,0,40-40V151.90026A24.98905,24.98905,0,0,0,372.72912,132l0,0A24.98905,24.98905,0,0,1,362.854,112.09974Z"/><path fill="#eb304a" d="M372.72913,132a24.989,24.989,0,0,1-9.87507-19.90027v-7.42932h-45v7.42932A24.989,24.989,0,0,0,327.72913,132a24.98906,24.98906,0,0,1,9.87506,19.90027V464.5a40.00006,40.00006,0,0,1-40,40h45a40.00006,40.00006,0,0,0,40-40V151.90027A24.98906,24.98906,0,0,0,372.72913,132Z"/><path fill="#e1e1e3" d="M377.8,67.5v37.16992a14.999,14.999,0,0,1-15,15H228.97a15.00547,15.00547,0,0,1-15-15V67.5a15.00547,15.00547,0,0,1,15-15H362.8A14.999,14.999,0,0,1,377.8,67.5Z"/><path fill="#dadadc" d="M362.8,52.5h-45a14.999,14.999,0,0,1,15,15v37.16992a14.999,14.999,0,0,1-15,15h45a14.999,14.999,0,0,0,15-15V67.5A14.999,14.999,0,0,0,362.8,52.5Z"/><path fill="#aeadb3" d="M365.10417,52.5h-72l13.17661-39.52982A8,8,0,0,1,313.87025,7.5H344.3381a8,8,0,0,1,7.58947,5.47018Z"/><path fill="#8b8893" d="M351.92755,12.97021A7.99988,7.99988,0,0,0,344.33807,7.5h-30a7.99988,7.99988,0,0,1,7.58948,5.47021L335.10419,52.5h30Z"/><rect width="163.83" height="15" x="213.97" y="78.58" fill="#ed4769"/><rect width="45" height="15" x="332.8" y="78.58" fill="#eb304a"/><path fill="#aeadb3" d="M141.49169,205.36634h0A15.00019,15.00019,0,0,1,129.683,187.74372L152.934,70.03634l42.61175-29.04482a15,15,0,0,1,20.84291,3.94628l0,0a15,15,0,0,1-3.94613,20.84274L179.98378,87.90548l-20.869,105.65186A15.0002,15.0002,0,0,1,141.49169,205.36634Z"/><circle cx="210.313" cy="49.846" r="17.5" fill="#8b8893"/><path fill="#fff" d="M352.604 375.48926h-116a7.5 7.5 0 1 1 0-15h116a7.5 7.5 0 0 1 0 15zM352.604 405.48926h-116a7.5 7.5 0 1 1 0-15h116a7.5 7.5 0 0 1 0 15zM294.64258 288H294.604a7.47052 7.47052 0 1 1 .03858 0zm26.42334-10.92871a7.561 7.561 0 1 1 5.42724-2.32227c-.05567.05664-.18164.18262-.23877.23731A7.47752 7.47752 0 0 1 321.06592 277.07129zm-52.937-.01367a7.529 7.529 0 1 1 5.11963-12.98438c.05712.05469.1831.18067.23876.23731a7.50025 7.50025 0 0 1-5.35839 12.74707zm-.64258-6.873l-.04.041.68213-.668zM332.104 250.59766a7.49975 7.49975 0 0 1-7.5-7.5c0-.02735 0-.05469.00049-.082-.00049-.05468-.001-.14355-.001-.17187a7.5 7.5 0 0 1 15 0h-.001l.00049.02051h.00049v.04883c.00048.02832.00048.05761.00048.08691v.09766A7.49975 7.49975 0 0 1 332.104 250.59766zm-74.99951-.02051a7.49974 7.49974 0 0 1-7.5-7.5h7.5l-7.5-.01074a7.49988 7.49988 0 1 1 14.99951-.08594c.00049.03808.00049.07519.00049.09668A7.49974 7.49974 0 0 1 257.10449 250.57715zM268.00684 224.085a7.51019 7.51019 0 0 1-5.34717-12.7793c.03711-.03808.14355-.1455.18164-.18261a7.50168 7.50168 0 1 1 5.16553 12.96191zm53.08545-.12891a7.47666 7.47666 0 0 1-5.18848-2.085c-.05713-.05468-.18311-.18066-.23877-.2373a7.503 7.503 0 1 1 5.42725 2.32226zm.61425-8.2373l-.68261.668zM294.585 213.001a7.54158 7.54158 0 0 1-7.54883-7.5 7.45822 7.45822 0 0 1 7.45117-7.5h.09766a7.5 7.5 0 0 1 0 15z"/></svg>