<svg xmlns="http://www.w3.org/2000/svg" data-name="Layer 1" viewBox="0 0 512 512"><path fill="#f17660" d="M301.5,397.38413H91.5V99.50782L290.228,10.43634A8,8,0,0,1,301.5,17.7366Z"/><path fill="#ef6450" d="M346.5,461.50782H91.5v-362L337.194,58.85243A8,8,0,0,1,346.5,66.7451Z"/><path fill="#f17660" d="M91.5,99.50782h315a15,15,0,0,1,15,15v377a15,15,0,0,1-15,15h-300a15,15,0,0,1-15-15v-392A0,0,0,0,1,91.5,99.50782Z"/><path fill="#ef6450" d="M406.5,99.50781h-45a15,15,0,0,1,15,15v377a15,15,0,0,1-15,15h45a15,15,0,0,0,15-15v-377A15,15,0,0,0,406.5,99.50781Z"/><path fill="#fff" d="M376.5 148.50782v129a4.01136 4.01136 0 0 1-4 4l-101.79708-15-130.20292 15a3.99437 3.99437 0 0 1-4-4v-129a3.999 3.999 0 0 1 4-4h232A3.999 3.999 0 0 1 376.5 148.50782zM136.5498 377a7.51228 7.51228 0 1 1 6.80176-10.60059A7.49564 7.49564 0 0 1 136.5498 377zM346.5498 377A7.5421 7.5421 0 0 1 339 369.5a7.45709 7.45709 0 0 1 7.4502-7.5h.0996a7.5 7.5 0 0 1 0 15zm-30 0A7.5421 7.5421 0 0 1 309 369.5a7.45709 7.45709 0 0 1 7.4502-7.5h.0996a7.5 7.5 0 0 1 0 15zm-30 0A7.5421 7.5421 0 0 1 279 369.5a7.45709 7.45709 0 0 1 7.4502-7.5h.0996a7.5 7.5 0 0 1 0 15zm-30 0A7.54241 7.54241 0 0 1 249 369.5a7.4574 7.4574 0 0 1 7.4502-7.5h.0996a7.5 7.5 0 0 1 0 15zm-30 0A7.54241 7.54241 0 0 1 219 369.5a7.4574 7.4574 0 0 1 7.4502-7.5h.0996a7.5 7.5 0 0 1 0 15zm-30 0A7.54241 7.54241 0 0 1 189 369.5a7.4574 7.4574 0 0 1 7.4502-7.5h.0996a7.5 7.5 0 0 1 0 15zm-30 0A7.54241 7.54241 0 0 1 159 369.5a7.4574 7.4574 0 0 1 7.4502-7.5h.0996a7.5 7.5 0 0 1 0 15zM376.5 377a7.507 7.507 0 0 1-3.10059-14.35156A7.49653 7.49653 0 0 1 384 369.4502 7.5421 7.5421 0 0 1 376.5 377zM376.5 354.499a7.467 7.467 0 0 1-7.5-7.46191v-.0752a7.50009 7.50009 0 1 1 7.5 7.53711zM376.5 332.02441A7.51226 7.51226 0 1 1 384 324.5 7.49386 7.49386 0 0 1 376.5 332.02441zM346.5498 332h-.0996a7.5 7.5 0 1 1 .0996 0zm-30 0h-.0996a7.5 7.5 0 1 1 .0996 0zm-30 0h-.0996a7.5 7.5 0 1 1 .0996 0zm-30 0h-.0996a7.5 7.5 0 1 1 .0996 0zm-30 0h-.0996a7.5 7.5 0 1 1 .0996 0zm-30 0h-.0996a7.5 7.5 0 1 1 .0996 0zm-30 0h-.0996a7.5 7.5 0 1 1 .0996 0zM136.5 332.02441a7.53724 7.53724 0 1 1 3.10059-.67285A7.47812 7.47812 0 0 1 136.5 332.02441zM136.5 354.53809a7.51858 7.51858 0 1 1 7.5-7.5752v.0752A7.49975 7.49975 0 0 1 136.5 354.53809z"/><path fill="#c9de79" d="M376.5,422h-240a7.5,7.5,0,0,1,0-15h240a7.5,7.5,0,0,1,0,15Z"/><path fill="#1eb9d3" d="M376.5 467h-240a7.5 7.5 0 0 1 0-15h240a7.5 7.5 0 0 1 0 15zM375.34009 280.31788A3.98928 3.98928 0 0 1 372.5 281.50782H257.97L315.09675 224.381a4 4 0 0 1 5.69121.03478z"/><path fill="#1db3ca" d="M320.788,224.41577a4,4,0,0,0-5.69128-.03467l-12.32007,12.32007,42.56348,43.6167A3.98928,3.98928,0,0,1,342.5,281.50781h30a3.98928,3.98928,0,0,0,2.84009-1.18994Z"/><path fill="#c9de79" d="M292.92993,281.50782H140.5a4.02553,4.02553,0,0,1-2.83008-1.16992l74.22144-74.22144a4,4,0,0,1,5.657.00018Z"/><path fill="#bcd44c" d="M217.54834,206.1167a3.99986,3.99986,0,0,0-5.657-.00024L199.719,218.28882l63.21094,63.219h30Z"/></svg>