<svg xmlns="http://www.w3.org/2000/svg" data-name="Layer 1" viewBox="0 0 512 512"><circle cx="167.5" cy="218.5" r="160" fill="#fddd5a"/><circle cx="167.5" cy="218.5" r="130" fill="#fff"/><path fill="#787681" d="M297.5,226.00033h-160a7.5,7.5,0,0,1,0-15h160a7.5,7.5,0,0,1,0,15Z"/><circle cx="344.5" cy="293.5" r="160" fill="#fee27d"/><path fill="#fed947" d="M344.5,133.49985a161.2956,161.2956,0,0,0-22.5,1.58251,160.00854,160.00854,0,0,1,0,316.835,160.00344,160.00344,0,1,0,22.5-318.41748Z"/><path fill="#787681" d="M115.5,263.08822a22.52554,22.52554,0,0,1-22.5-22.5V218.52963a7.5,7.5,0,0,1,15,0v22.05859a7.5,7.5,0,0,0,15,0V218.52963a7.5,7.5,0,0,1,15,0v22.05859A22.52554,22.52554,0,0,1,115.5,263.08822Z"/><path fill="#787681" d="M145.5,226.02963h-60a7.5,7.5,0,0,1,0-15h60a7.5,7.5,0,0,1,0,15Z"/><circle cx="410.468" cy="256.5" r="17" fill="#c7ad92"/><path fill="#b79b7b" d="M410.46844,239.49985a16.92443,16.92443,0,0,0-5.97961,1.10253,16.97667,16.97667,0,0,1,0,31.79493,16.99338,16.99338,0,1,0,5.97961-32.89746Z"/><circle cx="278.532" cy="256.5" r="17" fill="#c7ad92"/><path fill="#b79b7b" d="M278.53156,239.49985a16.92435,16.92435,0,0,0-5.97961,1.10253,16.97668,16.97668,0,0,1,0,31.79493,16.99338,16.99338,0,1,0,5.97961-32.89746Z"/><path fill="#ed4769" d="M422.14,349.82162l-.27.68994a83.0015,83.0015,0,0,1-154.8-.14013c-3.58-9.25977,24.46-4.32959,24.46-14.85987H397.47C397.47,345.83139,425.59,340.71176,422.14,349.82162Z"/><path fill="#fff" d="M427.47,320.51156a82.58853,82.58853,0,0,1-5.33,29.31006l-.27.68994H267.5l-.43-.14013a82.631,82.631,0,0,1-5.54-29.85987Z"/></svg>