<svg xmlns="http://www.w3.org/2000/svg" data-name="Layer 1" viewBox="0 0 512 512"><rect width="395" height="482" x="58.5" y="22.5" fill="#e1e1e3" rx="30"/><path fill="#dadadc" d="M423.5,22.5h-45a29.99808,29.99808,0,0,1,30,30v422a29.99808,29.99808,0,0,1-30,30h45a29.99808,29.99808,0,0,0,30-30V52.5A29.99808,29.99808,0,0,0,423.5,22.5Z"/><path fill="#a8d9f5" d="M423.5,22.5H287.11a28.51705,28.51705,0,0,0-50.22,0H88.5a29.99808,29.99808,0,0,0-30,30v152h395V52.5A29.99808,29.99808,0,0,0,423.5,22.5Z"/><path fill="#83c9ee" d="M423.5,22.5h-45a29.99808,29.99808,0,0,1,30,30v152h45V52.5A29.99808,29.99808,0,0,0,423.5,22.5Z"/><rect width="50" height="50" x="103.5" y="329.5" fill="#fff" rx="9"/><rect width="50" height="50" x="188.5" y="329.5" fill="#fff" rx="9"/><rect width="50" height="50" x="273.5" y="329.5" fill="#fff" rx="9"/><rect width="50" height="50" x="358.5" y="329.5" fill="#fff" rx="9"/><rect width="50" height="50" x="103.5" y="244.5" fill="#fff" rx="9"/><rect width="50" height="50" x="188.5" y="244.5" fill="#fff" rx="9"/><rect width="50" height="50" x="273.5" y="244.5" fill="#fff" rx="9"/><rect width="50" height="50" x="358.5" y="244.5" fill="#fff" rx="9"/><rect width="50" height="50" x="103.5" y="414.5" fill="#fff" rx="9"/><rect width="50" height="50" x="188.5" y="414.5" fill="#fff" rx="9"/><rect width="50" height="50" x="273.5" y="414.5" fill="#fff" rx="9"/><rect width="50" height="50" x="358.5" y="414.5" fill="#fff" rx="9"/><path fill="#fff" d="M238.5 173.96484a7.507 7.507 0 0 1-3.12158-14.34228A7.49532 7.49532 0 0 1 246 166.41455v.05029A7.50006 7.50006 0 0 1 238.5 173.96484zM211.542 173.96484h-.08984a7.5 7.5 0 1 1 .08984 0zm-26.998 0h-.08936a7.50024 7.50024 0 1 1 .08936 0zm-26.99805 0h-.08936a7.49976 7.49976 0 1 1 .08936 0zm-26.99756 0h-.08984a7.5 7.5 0 1 1 .08984 0zM103.5498 173.96484H103.5a7.5 7.5 0 1 1 .0498 0zM103.5 143.70557a7.50006 7.50006 0 0 1-7.5-7.5V136.105a7.5 7.5 0 0 1 15 0v.10059A7.50006 7.50006 0 0 1 103.5 143.70557zm0-30.31006a7.50006 7.50006 0 0 1-7.5-7.5v-.10059a7.5 7.5 0 1 1 15 0v.10059A7.50006 7.50006 0 0 1 103.5 113.39551zM103.5 83.06055a7.47885 7.47885 0 0 1-7.5-7.4751v-.05029a7.49535 7.49535 0 1 1 7.5 7.52539zM211.5415 83.03516a7.53853 7.53853 0 0 1-7.54492-7.5 7.46185 7.46185 0 0 1 7.45508-7.5h.08984a7.5 7.5 0 0 1 0 15zm-26.998 0a7.53812 7.53812 0 0 1-7.54444-7.5 7.46185 7.46185 0 0 1 7.45508-7.5h.08936a7.5 7.5 0 0 1 0 15zm-26.99805 0a7.53853 7.53853 0 0 1-7.54492-7.5 7.46225 7.46225 0 0 1 7.45556-7.5h.08936a7.5 7.5 0 0 1 0 15zm-26.99756 0a7.53853 7.53853 0 0 1-7.54492-7.5 7.46185 7.46185 0 0 1 7.45508-7.5h.08984a7.5 7.5 0 0 1 0 15zM238.5 83.06055a7.51275 7.51275 0 0 1-.0498-15.02539H238.5a7.51271 7.51271 0 0 1 0 15.02539zM238.5 143.70508a7.50006 7.50006 0 0 1-7.5-7.5v-.10059a7.5 7.5 0 0 1 15 0v.10059A7.50006 7.50006 0 0 1 238.5 143.70508zm0-30.31006a7.50006 7.50006 0 0 1-7.5-7.5v-.10059a7.5 7.5 0 0 1 15 0v.10059A7.50006 7.50006 0 0 1 238.5 113.395z"/><path fill="#ed4769" d="M408.5,88.79346h-135a7.5,7.5,0,0,1,0-15h135a7.5,7.5,0,0,1,0,15Z"/><path fill="#fee27d" d="M318.58008 118.79346H273.5a7.5 7.5 0 0 1 0-15h45.08008a7.5 7.5 0 0 1 0 15zM362.51758 173.96484H273.5a7.5 7.5 0 0 1 0-15h89.01758a7.5 7.5 0 0 1 0 15z"/><path fill="#787681" d="M98.5 45A7.50006 7.50006 0 0 1 91 37.5V7.5a7.5 7.5 0 0 1 15 0v30A7.50006 7.50006 0 0 1 98.5 45zM143.5 45a7.50006 7.50006 0 0 1-7.5-7.5V7.5a7.5 7.5 0 0 1 15 0v30A7.50006 7.50006 0 0 1 143.5 45zM188.5 45a7.50006 7.50006 0 0 1-7.5-7.5V7.5a7.5 7.5 0 0 1 15 0v30A7.50006 7.50006 0 0 1 188.5 45zM368.5 45a7.49974 7.49974 0 0 1-7.5-7.5V7.5a7.5 7.5 0 0 1 15 0v30A7.49974 7.49974 0 0 1 368.5 45zM323.5 45a7.49974 7.49974 0 0 1-7.5-7.5V7.5a7.5 7.5 0 0 1 15 0v30A7.49974 7.49974 0 0 1 323.5 45zM413.5 45a7.49974 7.49974 0 0 1-7.5-7.5V7.5a7.5 7.5 0 0 1 15 0v30A7.49974 7.49974 0 0 1 413.5 45z"/><circle cx="262" cy="32.784" r="7.5" fill="#fff"/></svg>