<svg xmlns="http://www.w3.org/2000/svg" data-name="Layer 1" viewBox="0 0 512 512"><path fill="#469ed6" d="M500.77465,370.11243C470.82377,348.96065,382.50287,292.40976,256,292.40976c-36.68027,0-141.48021,4.75452-244.77465,77.70267V282.31024A244.575,244.575,0,0,1,210.15274,42.13331l.00025-.00005a245.04008,245.04008,0,0,1,91.69414,0l.00026.00005C417.274,64.11832,500.77465,149.93372,500.77465,267.31024Z"/><path fill="#227fc0" d="M301.84741,42.1333l-.00024-.00006A245.038,245.038,0,0,0,233.5,38.84656q11.72625,1.08132,23.34717,3.28668l.00024.00006c115.42652,21.985,198.92725,107.80042,198.92725,225.17694v75.17761a414.108,414.108,0,0,1,45,27.62458V267.31024C500.77466,149.93372,417.27393,64.11829,301.84741,42.1333Z"/><path fill="#227fc0" d="M500.77466,370.11243,450.01672,485.88162a31.12686,31.12686,0,0,1-38.542,16.94977L333.442,476.2587a240.252,240.252,0,0,0-154.884,0l-78.03271,26.57269a31.12686,31.12686,0,0,1-38.542-16.94977L11.22534,370.11243c21.78894-18.85916,111.39246-92.02149,246.77173-91.29877C390.86426,279.523,478.60706,350.9245,500.77466,370.11243Z"/><path fill="#2370b5" d="M257.99707,278.81366q-12.54017-.06693-24.55.68341c88.608,5.36935,155.11669,41.48589,192.75108,67.67666a45.00141,45.00141,0,0,1,15.51417,55.01233l-36.69555,83.69553a30.96316,30.96316,0,0,1-8.94494,11.70453l15.403,5.24524a31.12686,31.12686,0,0,0,38.542-16.94977l50.75794-115.76916C478.60706,350.9245,390.86426,279.523,257.99707,278.81366Z"/><ellipse cx="256" cy="39.617" fill="#227fc0" rx="32.153" ry="32.117"/><path fill="#2370b5" d="M256,7.5a32.32742,32.32742,0,0,0-6.1333.5907,32.10565,32.10565,0,0,1-7.344,60.68506A32.12589,32.12589,0,1,0,256,7.5Z"/><path fill="#fff" d="M256.05908,242.26123H256a7.48026,7.48026,0,1,1,.05908,0Zm-27.977-7.43652a7.50232,7.50232,0,0,1-3.72021-.98633c-.04444-.02539-.17334-.1001-.21778-.12647a7.52921,7.52921,0,1,1,3.938,1.1128Zm55.87012-.0127a7.50091,7.50091,0,0,1-3.89942-13.91211c.06055-.03662.20606-.12158.26758-.15625a7.50088,7.50088,0,1,1,3.63184,14.06836Zm.64062-6.55664.04785.08057-.61132-1.07373Zm19.8711-13.84912a7.51218,7.51218,0,0,1-6.53711-11.20508c.02344-.041.09472-.16553.11816-.20605a7.50044,7.50044,0,0,1,12.94141,7.58593l-6.47071-3.793,6.46094,3.8081A7.44833,7.44833,0,0,1,304.46387,214.40625Zm-96.91455-.01758a7.49671,7.49671,0,0,1-6.49756-3.74365l6.49072-3.75781-6.519,3.709a7.5,7.5,0,0,1,12.94043-7.58594l.06933.11914a7.50229,7.50229,0,0,1-6.48388,11.25928ZM312.00781,186.4126a7.49974,7.49974,0,0,1-7.5-7.5c0-.03955,0-.07862.001-.11817-.001-.03906-.001-.07812-.001-.11767a7.54116,7.54116,0,0,1,7.5-7.54834,7.45822,7.45822,0,0,1,7.5,7.45117v.333A7.49974,7.49974,0,0,1,312.00781,186.4126Zm-112.01562-.02832a7.45853,7.45853,0,0,1-7.5-7.45117v-.09717a7.50015,7.50015,0,1,1,7.5,7.54834Zm7.4292-27.90723a7.51161,7.51161,0,0,1-6.51416-11.24072c.02539-.04444.10009-.17334.12646-.21778a7.5011,7.5011,0,1,1,6.3877,11.4585Zm97.03173-.25a7.53285,7.53285,0,1,1,6.38575-11.42773c.043.07226.13379.22949.17383.30322a7.50206,7.50206,0,0,1-6.55958,11.12451ZM227.876,137.9292a7.50109,7.50109,0,0,1-3.76465-13.99219l3.75781,6.49072-3.709-6.519a7.5,7.5,0,1,1,7.58593,12.94043l-.11914.06934A7.465,7.465,0,0,1,227.876,137.9292Zm56.02929-.127a7.4636,7.4636,0,0,1-3.70215-.98291,7.54167,7.54167,0,0,1-2.85253-10.25147,7.459,7.459,0,0,1,10.18554-2.834l.085.04834a7.501,7.501,0,0,1-3.71582,14.02Zm-28.082-7.43213a7.5,7.5,0,0,1,0-15v7.5l.02051-7.5h.02148a7.49994,7.49994,0,0,1,.167,14.99853C255.99512,130.36914,255.86035,130.37012,255.82324,130.37012Z"/></svg>