<svg xmlns="http://www.w3.org/2000/svg" data-name="Layer 1" viewBox="0 0 512 512"><path fill="#ed4769" d="M504.5,352.92172V416.5018a29.99824,29.99824,0,0,1-30,30H37.5a29.99824,29.99824,0,0,1-30-30V264.04159a29.99808,29.99808,0,0,1,30-30H341.79a30.023,30.023,0,0,1,20.22,7.84009l66.41,60.62012.18.06982,56.9,22.43994a30.02234,30.02234,0,0,1,19,27.91016Z"/><circle cx="113.5" cy="446.5" r="58" fill="#8b8893"/><path fill="#787681" d="M113.5,388.49985a58.05269,58.05269,0,0,0-15,1.96948,58.005,58.005,0,0,1,0,112.06128,58.00173,58.00173,0,1,0,15-114.03076Z"/><circle cx="113.5" cy="446.5" r="18" fill="#fff"/><path fill="#e1e1e3" d="M113.5,428.49985a17.86722,17.86722,0,0,0-7.5,1.6582,17.96706,17.96706,0,0,1,0,32.68384,17.99178,17.99178,0,1,0,7.5-34.342Z"/><circle cx="383.5" cy="446.5" r="58" fill="#8b8893"/><path fill="#787681" d="M383.5,388.49985a58.05269,58.05269,0,0,0-15,1.96948,58.005,58.005,0,0,1,0,112.06128,58.00173,58.00173,0,1,0,15-114.03076Z"/><circle cx="383.5" cy="446.5" r="18" fill="#fff"/><path fill="#e1e1e3" d="M383.5,428.49985a17.86722,17.86722,0,0,0-7.5,1.6582,17.96706,17.96706,0,0,1,0,32.68384,17.99178,17.99178,0,1,0,7.5-34.342Z"/><path fill="#a8d9f5" d="M428.6,302.57162l-.1.31006H7.5V264.04159a29.99808,29.99808,0,0,1,30-30H341.79a30.023,30.023,0,0,1,20.22,7.84009l66.41,60.62012Z"/><path fill="#83c9ee" d="M428.42,302.5018l-66.41-60.62012a30.023,30.023,0,0,0-20.22-7.84009h-45a30.023,30.023,0,0,1,20.22,7.84009l66.41,60.62012.18.06982-.1.31006h45l.1-.31006Z"/><path fill="#fee27d" d="M7.5,333.5H45.4866A13.0134,13.0134,0,0,1,58.5,346.5134V360.4866A13.0134,13.0134,0,0,1,45.4866,373.5H7.5a0,0,0,0,1,0,0v-40A0,0,0,0,1,7.5,333.5Z"/><path fill="#fff" d="M504.5,352.91992V373.5H466.51a13.01676,13.01676,0,0,1-13.01-13.01V346.51a13.01676,13.01676,0,0,1,13.01-13.01h30.85A29.98568,29.98568,0,0,1,504.5,352.91992Z"/><rect width="15" height="68.84" x="127.34" y="234.042" fill="#83c9ee"/><rect width="15" height="68.84" x="262.34" y="234.042" fill="#83c9ee"/><path fill="#8b8893" d="M504.5,511.61166H7.5a7.5,7.5,0,0,1,0-15h497a7.5,7.5,0,0,1,0,15Z"/><path fill="#fff" d="M103.5498 361.00033a7.5 7.5 0 0 1-.0498-15h.0498a7.5 7.5 0 0 1 0 15zM378.05127 361.00033h-.10156a7.5 7.5 0 0 1 0-15h.10156a7.5 7.5 0 0 1 0 15zm-30.50049 0h-.10107a7.5 7.5 0 0 1 0-15h.10107a7.5 7.5 0 0 1 0 15zm-30.5 0h-.10107a7.5 7.5 0 0 1 0-15h.10107a7.5 7.5 0 0 1 0 15zm-30.5 0h-.10156a7.5 7.5 0 0 1 0-15h.10156a7.5 7.5 0 0 1 0 15zm-30.5 0h-.10156a7.5 7.5 0 0 1 0-15h.10156a7.5 7.5 0 0 1 0 15zm-30.50049 0h-.10107a7.5 7.5 0 0 1 0-15h.10107a7.5 7.5 0 0 1 0 15zm-30.5 0h-.10107a7.5 7.5 0 0 1 0-15h.10107a7.5 7.5 0 0 1 0 15zm-30.5 0h-.10156a7.5 7.5 0 0 1 0-15h.10156a7.5 7.5 0 0 1 0 15zm-30.5 0h-.10156a7.5 7.5 0 0 1 0-15h.10156a7.5 7.5 0 0 1 0 15zM408.5 361.00033a7.5 7.5 0 0 1-.0498-15H408.5a7.5 7.5 0 0 1 0 15z"/></svg>