<svg xmlns="http://www.w3.org/2000/svg" data-name="Layer 1" viewBox="0 0 512 512"><path fill="#aeadb3" d="M289.83707,142.46778h56.57586a10,10,0,0,1,10,10V201a0,0,0,0,1,0,0H279.83707a0,0,0,0,1,0,0V152.46778A10,10,0,0,1,289.83707,142.46778Z"/><path fill="#8b8893" d="M346.41293,142.46777h-30a10,10,0,0,1,10,10V201h30V152.46777A10,10,0,0,0,346.41293,142.46777Z"/><rect width="124.25" height="274" x="256" y="186" fill="#fee27d" rx="30"/><path fill="#fddd5a" d="M350.25,186h-45a29.99993,29.99993,0,0,1,30,30V430a29.99993,29.99993,0,0,1-30,30h45a29.99993,29.99993,0,0,0,30-30V216A29.99993,29.99993,0,0,0,350.25,186Z"/><path fill="#aeadb3" d="M165.58707,142.46778h56.57586a10,10,0,0,1,10,10V186a0,0,0,0,1,0,0H155.58707a0,0,0,0,1,0,0V152.46778A10,10,0,0,1,165.58707,142.46778Z"/><polyline fill="#aeadb3" points="232.163 152.468 232.163 201 155.587 201 155.587 152.468"/><path fill="#8b8893" d="M222.16293,142.46778h-30a10,10,0,0,1,10,10V201h30V152.46778A10,10,0,0,0,222.16293,142.46778Z"/><rect width="124.25" height="274" x="131.75" y="186" fill="#ef77ab" rx="30"/><path fill="#ec5a9c" d="M226,186H181a29.99993,29.99993,0,0,1,30,30V430a29.99993,29.99993,0,0,1-30,30h45a29.99993,29.99993,0,0,0,30-30V216A29.99993,29.99993,0,0,0,226,186Z"/><path fill="#aeadb3" d="M41.33707,142.46778H97.91293a10,10,0,0,1,10,10V201a0,0,0,0,1,0,0H31.33707a0,0,0,0,1,0,0V152.46778A10,10,0,0,1,41.33707,142.46778Z"/><path fill="#8b8893" d="M97.91293,142.46778h-30a10,10,0,0,1,10,10V201h30V152.46778A10,10,0,0,0,97.91293,142.46778Z"/><rect width="124.25" height="274" x="7.5" y="186" fill="#469ed6" rx="30"/><path fill="#227fc0" d="M101.75,186h-45a29.99993,29.99993,0,0,1,30,30V430a29.99993,29.99993,0,0,1-30,30h45a29.99993,29.99993,0,0,0,30-30V216A29.99993,29.99993,0,0,0,101.75,186Z"/><path fill="#fff" d="M71.10742 289.71191c-7.63769 0-11.96972 4.21778-11.96972 13.10938V334.627c0 8.89258 4.332 13.11035 12.19775 13.11035 10.374 0 11.28564-7.41015 11.62793-12.19824.228-3.53418 3.41992-4.67383 7.2959-4.67383 5.12988 0 7.52392 1.48243 7.52392 7.2959 0 13.79395-11.28613 22.57129-27.2456 22.57129-14.36377 0-26.21973-7.06738-26.21973-26.10547V302.82129c0-19.03711 11.96973-26.10547 26.3335-26.10547 15.8457 0 27.13183 8.43652 27.13183 21.66016 0 5.92773-2.394 7.2959-7.41015 7.2959-4.21778 0-7.2959-1.25391-7.40967-4.67383C82.73535 297.46387 81.9375 289.71191 71.10742 289.71191zM198.71973 330.06738a5.41273 5.41273 0 0 1-5.01612 2.96387 5.257 5.257 0 0 1-4.90185-2.96387l-13.10987-24.624V355.375c0 3.07812-3.76171 4.67383-7.40966 4.67383-3.76221 0-7.41016-1.59571-7.41016-4.67383V284.126c0-5.47168 3.64795-7.41016 7.41016-7.41016 5.35791 0 7.75146 1.14063 11.51367 7.86621l14.022 25.53516L207.83936 284.582c3.7622-6.72558 6.27-7.86621 11.62793-7.86621 3.7622 0 7.41015 1.93848 7.41015 7.41016v71.249c0 3.07812-3.76221 4.67383-7.41015 4.67383-3.76172 0-7.40967-1.59571-7.40967-4.67383V306.35547z"/><path fill="#aeadb3" d="M414.08707,142.46778h56.57586a10,10,0,0,1,10,10V201a0,0,0,0,1,0,0H404.08707a0,0,0,0,1,0,0V152.46778A10,10,0,0,1,414.08707,142.46778Z"/><path fill="#8b8893" d="M470.66284,142.46777h-30a10,10,0,0,1,10,10V201h30V152.46777A10,10,0,0,0,470.66284,142.46777Z"/><path fill="#fff" d="M310.71484,326.64746a2.8475,2.8475,0,0,0-.34179-1.48242l-23.59766-40.81152a4.46878,4.46878,0,0,1-.3418-1.48145c0-3.64844,5.81348-6.15625,9.80371-6.15625,2.39356,0,3.53418.91211,4.55958,2.96387L318.125,312.625l17.44141-32.94531c1.02636-1.9375,2.05273-2.96387,4.44629-2.96387,3.99023,0,9.80371,2.50781,9.80371,6.15625a2.72916,2.72916,0,0,1-.3418,1.48145L325.99121,325.165a2.84671,2.84671,0,0,0-.45605,1.48242V355.375c0,3.07812-3.64844,4.67383-7.41016,4.67383-3.64746,0-7.41016-1.59571-7.41016-4.67383Z"/><rect width="124.25" height="274" x="380.25" y="186" fill="#8b8893" rx="30"/><path fill="#787681" d="M474.5,186h-45a29.99993,29.99993,0,0,1,30,30V430a29.99993,29.99993,0,0,1-30,30h45a29.99993,29.99993,0,0,0,30-30V216A29.99993,29.99993,0,0,0,474.5,186Z"/><path fill="#fff" d="M417.58008,281.27637c0-3.19239,3.64844-4.56055,7.41015-4.56055,3.64844,0,7.41016,1.36816,7.41016,4.56055v31.12109l24.623-33.51562a4.71448,4.71448,0,0,1,4.10449-2.166c3.76172,0,8.5498,3.876,8.5498,7.6377a4.39934,4.39934,0,0,1-.91211,2.85058l-20.40527,25.53516,24.85156,37.84765a4.43993,4.43993,0,0,1,.79786,2.62207c0,3.64747-4.56055,7.41016-8.89161,7.41016a5.78722,5.78722,0,0,1-5.13086-2.85059L438.55566,325.2793l-6.15527,7.752V355.375c0,3.07812-3.76172,4.67383-7.41016,4.67383-3.76171,0-7.41015-1.59571-7.41015-4.67383Z"/><polygon fill="#e1e1e3" points="94.125 142.468 45.125 142.468 60.125 52 79.125 52 94.125 142.468"/><polygon fill="#e1e1e3" points="218.375 142.468 169.375 142.468 184.375 52 203.375 52 218.375 142.468"/><polygon fill="#e1e1e3" points="342.625 142.468 293.625 142.468 308.625 52 327.625 52 342.625 142.468"/><polygon fill="#e1e1e3" points="466.875 142.468 417.875 142.468 432.875 52 451.875 52 466.875 142.468"/></svg>