<svg xmlns="http://www.w3.org/2000/svg" data-name="Layer 1" viewBox="0 0 512 512"><path fill="#f9b15e" d="M263,224.5H472A17.5,17.5,0,0,1,489.5,242v0A17.5,17.5,0,0,1,472,259.5H293"/><rect width="424" height="35" x="35.5" y="259.5" fill="#fbbf7d" rx="17.5"/><rect width="439" height="35" x="65.5" y="294.5" fill="#f9b15e" rx="17.5"/><rect width="439" height="35" x="35.5" y="329.5" fill="#fbbf7d" rx="17.5"/><rect width="439" height="35" x="50.5" y="364.5" fill="#f9b15e" rx="17.5"/><rect width="439" height="35" x="50.5" y="399.5" fill="#fbbf7d" rx="17.5"/><rect width="424" height="35" x="65.5" y="434.5" fill="#f9b15e" rx="17.5"/><rect width="439" height="35" x="50.5" y="469.5" fill="#fbbf7d" rx="17.5"/><ellipse cx="165.468" cy="344.972" fill="#f9b15e" rx="157.968" ry="159.528"/><path fill="#f9a242" d="M165.46826,512C74.229,512,0,437.07129,0,344.97168S74.229,177.94385,165.46826,177.94385,330.936,252.87207,330.936,344.97168,256.70752,512,165.46826,512Zm0-319.05615C82.5,192.94385,15,261.14355,15,344.97168,15,428.80078,82.5,497,165.46826,497S315.936,428.80078,315.936,344.97168C315.936,261.14355,248.43652,192.94385,165.46826,192.94385Z"/><path fill="#fff" d="M165.72754,473.4043h-.35986a7.5,7.5,0,0,1,0-15h.10058c.05225.001.10547.001.15869,0h.10059a7.5,7.5,0,1,1,0,15Zm-30.15723-3.81446a7.5127,7.5127,0,1,1,1.64063-14.82226q.16553.03956.32861.085a7.501,7.501,0,0,1-1.96924,14.7373Zm-.249-6.61035-.01465.0586.25928-.9502ZM195.52,469.54883a7.5821,7.5821,0,1,1,2.07715-.292q-.16334.0454-.32862.085A7.5325,7.5325,0,0,1,195.52,469.54883Zm-87.93311-11.22754a7.52116,7.52116,0,1,1,3.44825-14.167l.25634.14062a7.50087,7.50087,0,0,1-3.70459,14.02637Zm-.74951-6.17188-.08349.15332.83984-1.48242Zm116.64649,6.09571a7.59523,7.59523,0,1,1,3.77832-1.02442l-.20948.11621A7.46652,7.46652,0,0,1,223.48389,458.24512Zm-140.146-17.8418a7.47224,7.47224,0,0,1-5.19287-2.08984l5.19385-5.41016L78.12256,438.292a7.49982,7.49982,0,0,1,10.27685-10.92578l.1333.12695a7.49953,7.49953,0,0,1-5.19482,12.91016Zm164.36816-.10254a7.56572,7.56572,0,1,1,5.26514-2.15918l-.1333.127A7.47213,7.47213,0,0,1,247.70605,440.30078ZM64.27,417.05664a7.494,7.494,0,0,1-6.3794-3.5459l6.37208-3.95508L57.876,413.48828a7.5,7.5,0,0,1,12.65625-8.05078l.10254.16309A7.50159,7.50159,0,0,1,64.27,417.05664Zm202.48-.13281a7.56275,7.56275,0,1,1,6.43213-3.63086l-.10254.16308A7.49442,7.49442,0,0,1,266.75,416.92383ZM51.52783,389.72363a7.50338,7.50338,0,0,1-7.145-5.22754l7.147-2.27441-7.1587,2.2373A7.49987,7.49987,0,0,1,58.625,379.78809l.05176.15918a7.507,7.507,0,0,1-7.14893,9.77636Zm227.93067-.15527a7.54954,7.54954,0,1,1,7.17627-5.32324l-.05176.15918A7.50323,7.50323,0,0,1,279.4585,389.56836ZM45.94629,360.0918a7.49962,7.49962,0,0,1-7.48-7.05957l7.48681-.44043-7.48876.41406A7.50012,7.50012,0,0,1,53.42773,351.957l.0127.19434a7.50071,7.50071,0,0,1-7.04688,7.92773C46.24365,360.08789,46.09424,360.0918,45.94629,360.0918ZM285,359.92871c-.14453,0-.28906-.00391-.43457-.01172a7.5,7.5,0,0,1-7.06006-7.916l.00684-.11328a7.49976,7.49976,0,1,1,14.97363.88085l-.00488.0879A7.501,7.501,0,0,1,285,359.92871ZM47.80029,329.99512a7.50672,7.50672,0,0,1-7.375-8.90918l7.3667,1.4082-7.35937-1.44531a7.49988,7.49988,0,0,1,14.75683,2.68847l-.03076.165A7.50251,7.50251,0,0,1,47.80029,329.99512ZM283.106,329.835a7.53864,7.53864,0,1,1,7.35693-9.00781l.03076.165A7.50536,7.50536,0,0,1,283.106,329.835ZM56.98438,301.27051a7.50307,7.50307,0,0,1-6.78858-10.67969l6.79346,3.17773-6.78174-3.20214a7.5,7.5,0,0,1,13.65576,6.20605l-.08057.17383A7.50182,7.50182,0,0,1,56.98438,301.27051Zm216.9038-.1377a7.50067,7.50067,0,0,1-6.79834-4.32422l-.04248-.09082a7.49994,7.49994,0,1,1,13.58692-6.35547l.04248.09082a7.50307,7.50307,0,0,1-6.78858,10.67969ZM72.99756,275.69727a7.49556,7.49556,0,0,1-5.86377-12.15918l.20508-.251a7.501,7.501,0,1,1,5.65869,12.41016Zm184.85547-.09375a7.51627,7.51627,0,1,1,5.71191-12.35645c.01172.01367.08643.10449.09815.11914a7.49973,7.49973,0,0,1-5.81006,12.23731ZM94.82227,254.88184A7.49851,7.49851,0,0,1,90.32959,241.374l.15186-.11181a7.50039,7.50039,0,1,1,4.34082,13.61963Zm141.21484-.06788a7.51654,7.51654,0,0,1-4.38135-1.40429l-.2041-.14942a7.5,7.5,0,1,1,8.96484-12.02636l-4.48242,6.01318,4.49561-6.00342a7.48949,7.48949,0,0,1-4.39258,13.57031ZM121.07275,240.15918a7.50511,7.50511,0,0,1-2.833-14.44873l.22509-.09082a7.50134,7.50134,0,1,1,2.60791,14.53955Zm88.61231-.07227a7.448,7.448,0,0,1-2.71729-.51464l-.1875-.0752a7.5,7.5,0,1,1,5.64551-13.897l-2.82275,6.94873,2.84619-6.939a7.50619,7.50619,0,0,1-2.76416,14.477Zm-59.43848-7.57568a7.50042,7.50042,0,0,1-.96631-14.93652l.207-.02637a7.50012,7.50012,0,0,1,1.75293,14.89746A7.61159,7.61159,0,0,1,150.24658,232.51123Zm30.27246-.022a7.63181,7.63181,0,0,1-.88427-.05176l-.207-.02637a7.49987,7.49987,0,1,1,1.96778-14.87011l-.98389,7.435L181.419,217.544a7.502,7.502,0,0,1-.89991,14.94531Z"/></svg>