<svg xmlns="http://www.w3.org/2000/svg" data-name="Layer 1" viewBox="0 0 512 512"><path fill="#c9de79" d="M471.24,380.27182A248.38924,248.38924,0,0,1,256,504.5018v-80a168.582,168.582,0,0,0,145.89-84.27Z"/><path fill="#469ed6" d="M504.5,256.0018a247.35507,247.35507,0,0,1-33.26,124.27l-69.35-40.04a168.1978,168.1978,0,0,0,0-168.46l69.35-40.04A247.35369,247.35369,0,0,1,504.5,256.0018Z"/><path fill="#b784ba" d="M471.24,131.73178l-69.35,40.04A168.581,168.581,0,0,0,256,87.5018v-80A248.38924,248.38924,0,0,1,471.24,131.73178Z"/><path fill="#ed4769" d="M256,7.5018v80a168.581,168.581,0,0,0-145.89,84.27l-69.35-40.04A248.38924,248.38924,0,0,1,256,7.5018Z"/><path fill="#fee27d" d="M87.5,256.0018a167.36745,167.36745,0,0,0,22.61,84.23l-69.35,40.04a248.78625,248.78625,0,0,1,0-248.54l69.35,40.04A167.3661,167.3661,0,0,0,87.5,256.0018Z"/><path fill="#f9b15e" d="M256,424.5018v80a248.38924,248.38924,0,0,1-215.24-124.23l69.35-40.04A168.582,168.582,0,0,0,256,424.5018Z"/><path fill="#b6daf3" d="M344.5,256.0018a87.93787,87.93787,0,0,1-11.87,44.23974l-57.23-33.04a21.78222,21.78222,0,0,0,0-22.39991l57.23-33.04A87.93972,87.93972,0,0,1,344.5,256.0018Z"/><path fill="#e7cfe4" d="M332.63,211.76156l-57.23,33.04A22.71461,22.71461,0,0,0,256,233.5018v-66A88.54341,88.54341,0,0,1,332.63,211.76156Z"/><path fill="#f3a1b5" d="M256,167.5018v66a22.74345,22.74345,0,0,0-19.40991,11.2998l-57.22009-33.04A88.54341,88.54341,0,0,1,256,167.5018Z"/><path fill="#fef4d0" d="M236.6,267.20151l-57.23,33.04a88.37715,88.37715,0,0,1,0-88.48l57.22009,33.04A21.81207,21.81207,0,0,0,236.6,267.20151Z"/><path fill="#fdd8ae" d="M256,278.5018v66a88.54383,88.54383,0,0,1-76.63-44.26026l57.23-33.04A22.72654,22.72654,0,0,0,256,278.5018Z"/><path fill="#e6edbf" d="M332.63,300.24154A88.54383,88.54383,0,0,1,256,344.5018v-66a22.72654,22.72654,0,0,0,19.4-11.30029Z"/><path fill="#fff" d="M278.5,256.0018a22.01809,22.01809,0,0,1-3.1,11.19971,22.30285,22.30285,0,0,1-38.8,0,21.81207,21.81207,0,0,1-.00989-22.39991,22.31182,22.31182,0,0,1,38.80993,0A21.922,21.922,0,0,1,278.5,256.0018Z"/><path fill="#d4e49b" d="M401.89,340.23178A168.582,168.582,0,0,1,256,424.5018v-80a88.54383,88.54383,0,0,0,76.63-44.26026Z"/><path fill="#8fc8ea" d="M424.5,256.0018a167.36745,167.36745,0,0,1-22.61,84.23l-69.26-39.99024a88.37715,88.37715,0,0,0,0-88.48l69.26-39.98974A167.3661,167.3661,0,0,1,424.5,256.0018Z"/><path fill="#d8b7d5" d="M401.89,171.77182l-69.26,39.98974A88.54341,88.54341,0,0,0,256,167.5018v-80A168.581,168.581,0,0,1,401.89,171.77182Z"/><path fill="#f0728f" d="M256,87.5018v80a88.54341,88.54341,0,0,0-76.63,44.25976l-69.26-39.98974A168.581,168.581,0,0,1,256,87.5018Z"/><path fill="#feea9d" d="M167.5,256.0018a87.93787,87.93787,0,0,0,11.87,44.23974l-69.26,39.99024a168.1978,168.1978,0,0,1,0-168.46l69.26,39.98974A87.93972,87.93972,0,0,0,167.5,256.0018Z"/><path fill="#fbbf7d" d="M256,344.5018v80a168.582,168.582,0,0,1-145.89-84.27l69.26-39.99024A88.54383,88.54383,0,0,0,256,344.5018Z"/><path fill="#fff" d="M278.5,256.0018a22.01809,22.01809,0,0,1-3.1,11.19971,22.30285,22.30285,0,0,1-38.8,0,21.81207,21.81207,0,0,1-.00989-22.39991,22.31182,22.31182,0,0,1,38.80993,0A21.922,21.922,0,0,1,278.5,256.0018Z"/></svg>