<svg xmlns="http://www.w3.org/2000/svg" data-name="Layer 1" viewBox="0 0 512 512"><rect width="359" height="452" x="110.446" y="52.5" fill="#e7e7f2" rx="30"/><path fill="#dcdce5" d="M439.44568,52.49985h-45a30.00016,30.00016,0,0,1,30,30v392a29.99985,29.99985,0,0,1-30,30h45a30,30,0,0,0,30.00012-30v-392A30.00026,30.00026,0,0,0,439.44568,52.49985Z"/><path fill="#fff" d="M424.44531 420.00033h-269a7.5 7.5 0 0 1 0-15h269a7.5 7.5 0 0 1 0 15zM424.44531 375.00033h-269a7.5 7.5 0 0 1 0-15h269a7.5 7.5 0 0 1 0 15zM424.44531 465.00033h-269a7.5 7.5 0 0 1 0-15h269a7.5 7.5 0 0 1 0 15z"/><path fill="#a8d9f5" d="M424.45,101.5018v217a3.99425,3.99425,0,0,1-4,4h-261a4.00565,4.00565,0,0,1-4-4v-217a3.999,3.999,0,0,1,4-4h261A4.00529,4.00529,0,0,1,424.45,101.5018Z"/><path fill="#469ed6" d="M423.31006,321.3016a4.02,4.02,0,0,1-2.86011,1.2002H280.08008L351.73,250.8519a2.99707,2.99707,0,0,1,4.29.0498Z"/><path fill="#7dc7a2" d="M311.88,322.5018H159.45a3.9699,3.9699,0,0,1-2.92993-1.28028l74.84-89.1997a3.00218,3.00218,0,0,1,4.6,0l61.41,73.18994Z"/><circle cx="110.446" cy="94.5" r="87" fill="#56bc8d"/><path fill="#7dc7a2" d="M110.44531,189.00033a94.5,94.5,0,1,1,94.5-94.5A94.60709,94.60709,0,0,1,110.44531,189.00033Zm0-174a79.5,79.5,0,1,0,79.5,79.5A79.58945,79.58945,0,0,0,110.44531,15.00033Z"/><path fill="#fff" d="M93.96777,129.849h0a7.49954,7.49954,0,0,1-5.30371-2.19727l-21.793-21.79394A7.49989,7.49989,0,0,1,77.47852,95.25229l16.48925,16.49023,50.33594-50.33594A7.50058,7.50058,0,0,1,154.91113,72.014L99.27148,127.65268A7.50268,7.50268,0,0,1,93.96777,129.849Z"/><circle cx="320.946" cy="171" r="28.5" fill="#fee27d"/></svg>