<svg xmlns="http://www.w3.org/2000/svg" data-name="Layer 1" viewBox="0 0 512 512"><path fill="#c8c5cc" d="M297.5925,269.4476,149.85239,417.11752l-11.14,11.14014-31.91992,31.8999-11.14,11.14014-31.02,31a6.08369,6.08369,0,0,1-10.02-2.21L21.91233,410.82748a6.07725,6.07725,0,0,1,1.41015-6.3999l34.47-34.45019,11.13989-11.13965,31.92005-31.89991,11.14-11.14013,115.99-115.93018Z"/><path fill="#aeadb3" d="M149.85224,417.11766,297.59258,269.44757l-31.82671-31.81289L118.03243,385.29785,106.89248,396.438,74.97255,428.33789l-11.14,11.14L40.83,462.46563,54.61224,500.0879a6.08379,6.08379,0,0,0,10.02025,2.20963l31.01982-30.9998,11.14-11.14,31.91994-31.89991Z"/><path fill="#e1e1e3" d="M106.79245 460.15756l-11.14 11.14014a7.27153 7.27153 0 0 1-1.74011-2.72022L57.79245 369.97739l11.13989-11.13965a7.3878 7.3878 0 0 1 1.74 2.71972zM149.85239 417.11752l-11.14 11.14014a7.26992 7.26992 0 0 1-1.74-2.72022l-36.12-98.59961 11.14-11.14013a7.38765 7.38765 0 0 1 1.74 2.71972z"/><path fill="#7dc7a2" d="M490.46237,67.95737a60.64591,60.64591,0,0,1-17.82995,43.04L454.8425,128.77768l-242.79,242.69971a9.13719,9.13719,0,0,1-11.16,1.37011l-45.75-27.43994a9.047,9.047,0,0,1-3.14-3.12988l-27.44995-45.73a9.1096,9.1096,0,0,1,1.37988-11.1499l242.79-242.69043,17.79-17.79a60.89,60.89,0,0,1,103.95,43.04Z"/><path fill="#56bc8d" d="M490.46226,67.95745A60.84909,60.84909,0,0,0,453.67985,12.0645a60.865,60.865,0,0,1-12.86724,67.11317L423.02273,96.95789l-242.79,242.69955a9.13738,9.13738,0,0,1-11.16015,1.37028l-27.84569-16.70117,10.7756,17.95095a9.04831,9.04831,0,0,0,3.13986,3.13019l45.75,27.43984a9.13739,9.13739,0,0,0,11.16015-1.37028l242.79-242.69956,17.78988-17.78021A60.64552,60.64552,0,0,0,490.46226,67.95745Z"/><path fill="#57565c" d="M243.57126,261.36655a7.50025,7.50025,0,0,1-5.30225-12.80469L364.58054,122.30893a7.49989,7.49989,0,0,1,10.60351,10.60937L248.87351,259.17123A7.47579,7.47579,0,0,1,243.57126,261.36655Z"/><rect width="45.662" height="93.354" x="283.896" y="144.063" fill="#fff" rx="15" transform="rotate(44.987 306.727 190.74)"/><path fill="#e1e1e3" d="M345.27378,163.27366l-10.56033-10.55619a14.99824,14.99824,0,0,1-.04584,21.16737l-44.8084,44.78769a14.99989,14.99989,0,0,1-21.20828.00008l-.51739-.51738c.01623.01692.02978.0353.04635.05188l11.07764,11.0721a14.99988,14.99988,0,0,0,21.20828-.00008l44.8084-44.78769A14.9997,14.9997,0,0,0,345.27378,163.27366Z"/><path fill="#787681" d="M490.46237,67.95737a60.64591,60.64591,0,0,1-17.82995,43.04L454.8425,128.77768h-.01L368.72238,42.70737l17.79-17.79a60.89,60.89,0,0,1,103.95,43.04Z"/><path fill="#57565c" d="M490.46226,67.95745A60.84909,60.84909,0,0,0,453.67985,12.0645a60.865,60.865,0,0,1-12.86724,67.11317L423.02273,96.95789l-.00984-.00018L368.72967,42.7l-.00725.00725,86.11027,86.07023.00984.00017,17.78988-17.78021A60.64552,60.64552,0,0,0,490.46226,67.95745Z"/></svg>