<svg xmlns="http://www.w3.org/2000/svg" data-name="Layer 1" viewBox="0 0 512 512"><rect width="305" height="40" x="103.5" y="7.5" fill="#787681"/><rect width="305" height="357" x="103.5" y="47.5" fill="#fff"/><path fill="#c8c5cc" d="M408.5,504.5l-47.8624-28.71744A9,9,0,0,0,356.00714,474.5H151.225a9,9,0,0,0-4.9923,1.51155L103.5,504.5v-60h305Z"/><path fill="#e6edbf" d="M256,367.54883a7.49943,7.49943,0,0,1-7.5-7.5V186.23926a7.5,7.5,0,0,1,15,0V360.04883A7.49943,7.49943,0,0,1,256,367.54883Z"/><path fill="#8b8893" d="M213,100.23939h86a0,0,0,0,1,0,0v77a9,9,0,0,1-9,9H222a9,9,0,0,1-9-9v-77A0,0,0,0,1,213,100.23939Z"/><path fill="#e6edbf" d="M408.5,107.73926h-305a7.5,7.5,0,0,1,0-15h305a7.5,7.5,0,0,1,0,15Z"/><path fill="#e6edbf" d="M368.5 47.5V375.05005a7.5 7.5 0 1 1-15 0V47.5zM158.5 47.5V375.05005a7.5 7.5 0 1 1-15 0V47.5z"/><circle cx="256" cy="143.239" r="7.5" fill="#fff"/><polygon fill="#aece44" points="299.3 248.14 299.3 298.14 256 323.14 212.7 298.14 212.7 248.14 256 223.14 288.31 241.79 299.3 248.14"/><polygon fill="#95c748" points="299.3 248.14 299.3 298.14 256 323.14 256 273.14 288.31 241.79 299.3 248.14"/><polygon fill="#bcd44c" points="299.3 248.14 256 273.14 212.7 248.14 256 223.14 299.3 248.14"/><path fill="#8b8893" d="M408.5 404.5L256 419.5l-152.5-15 28.20913-40.43309A6 6 0 0 1 136.62989 361.5H375.37011a6 6 0 0 1 4.92076 2.56691zM442.66011 491.69L408.5 504.5V7.5l34.16011 12.81A9 9 0 0 1 448.5 28.737V483.263A9 9 0 0 1 442.66011 491.69zM69.33989 491.69L103.5 504.5V7.5L69.33989 20.31A9 9 0 0 0 63.5 28.737V483.263A9 9 0 0 0 69.33989 491.69z"/><rect width="305" height="40" x="103.5" y="404.5" fill="#787681"/></svg>