<svg xmlns="http://www.w3.org/2000/svg" data-name="Layer 1" viewBox="0 0 512 512"><polygon fill="#c7ad92" points="473.5 131.762 473.5 380.232 256.61 504.121 256 504.472 38.5 380.232 38.5 131.762 256 7.532 473.5 131.762"/><polygon fill="#fee27d" points="173.5 208.41 173.5 300.419 121.5 270.845 121.5 178.708 173.5 208.41"/><polygon fill="#b79b7b" points="473.5 131.762 473.5 131.772 256 256.002 38.5 131.772 38.5 131.762 256 7.532 473.5 131.762"/><polygon fill="#fed947" points="390.551 84.259 173.5 208.88 121.508 179.183 338.976 54.8 390.551 84.259"/><polygon fill="#dfccbf" points="473.5 131.762 473.5 380.232 256.61 504.121 256.5 504.112 256.5 256.112 473.5 131.762"/><path fill="#fff" d="M296.07422 443.34311a7.49416 7.49416 0 0 1-3.708-14.01856l.04346-.02441a7.50019 7.50019 0 1 1 3.66455 14.043zM323.48535 427.69174a7.50047 7.50047 0 0 1-3.70508-14.02539l.09131-.05176a7.49967 7.49967 0 1 1 7.39649 13.04883l-.09131.05176A7.46416 7.46416 0 0 1 323.48535 427.69174zm27.48731-15.7002a7.501 7.501 0 0 1-3.75782-13.99609l.09131-.05273a7.50042 7.50042 0 0 1 7.502 12.99023l-.09131.05274A7.47081 7.47081 0 0 1 350.97266 411.99154zm27.48681-15.70019a7.501 7.501 0 0 1-3.75781-13.99609l.09131-.05274a7.50043 7.50043 0 0 1 7.50195 12.99024l-.09131.05273A7.47079 7.47079 0 0 1 378.45947 396.29135zm27.48731-15.70117a7.50047 7.50047 0 0 1-3.70508-14.02539l.09131-.05176a7.49966 7.49966 0 1 1 7.39648 13.04883l-.09131.05175A7.46413 7.46413 0 0 1 405.94678 380.59018zM433.46094 364.8685a7.51466 7.51466 0 1 1 7.50976-7.55371 7.57963 7.57963 0 0 1-3.71631 6.52441A7.49774 7.49774 0 0 1 433.46094 364.8685zM433.4707 333.51791a7.49974 7.49974 0 0 1-7.5-7.5v-.10449a7.5 7.5 0 0 1 15 0v.10449A7.49974 7.49974 0 0 1 433.4707 333.51791zm0-31.40039a7.49974 7.49974 0 0 1-7.5-7.5V294.513a7.5 7.5 0 0 1 15 0v.10449A7.49974 7.49974 0 0 1 433.4707 302.11752zm0-31.40137a7.49974 7.49974 0 0 1-7.5-7.5v-.10449a7.5 7.5 0 0 1 15 0v.10449A7.49974 7.49974 0 0 1 433.4707 270.71615zm0-31.40039a7.49974 7.49974 0 0 1-7.5-7.5v-.10449a7.5 7.5 0 0 1 15 0v.10449A7.49974 7.49974 0 0 1 433.4707 239.31576zM433.4707 207.89a7.479 7.479 0 0 1-7.5-7.47558v-.04981a7.5 7.5 0 1 1 7.5 7.52539z"/><path fill="#fff" d="M296.35547 443.11264a7.47812 7.47812 0 0 1-7.5-7.47461v-.04981a7.5 7.5 0 1 1 7.5 7.52442zM296.35547 411.85092a7.49974 7.49974 0 0 1-7.5-7.5v-.10449a7.5 7.5 0 0 1 15 0v.10449A7.49974 7.49974 0 0 1 296.35547 411.85092zm0-31.3418a7.49974 7.49974 0 0 1-7.5-7.5v-.10351a7.5 7.5 0 0 1 15 0v.10351A7.49974 7.49974 0 0 1 296.35547 380.50912zm0-31.34082a7.49974 7.49974 0 0 1-7.5-7.5v-.10449a7.5 7.5 0 0 1 15 0v.10449A7.49974 7.49974 0 0 1 296.35547 349.1683zm0-31.34179a7.49975 7.49975 0 0 1-7.5-7.5v-.1045a7.5 7.5 0 0 1 15 0v.1045A7.49975 7.49975 0 0 1 296.35547 317.82651zM296.35547 286.46029a7.47894 7.47894 0 0 1-7.5-7.47558v-.04981a7.5 7.5 0 1 1 7.5 7.52539zM433.45117 207.88022a7.5209 7.5209 0 1 1 3.71-.98633l-.04345.02441A7.46819 7.46819 0 0 1 433.45117 207.88022zM323.48877 270.68979a7.50047 7.50047 0 0 1-3.70508-14.02539l.09131-.05176a7.49966 7.49966 0 1 1 7.39648 13.04883l-.0913.05175A7.46417 7.46417 0 0 1 323.48877 270.68979zm27.49072-15.70215a7.501 7.501 0 0 1-3.75781-13.9961l.09131-.05273a7.50042 7.50042 0 0 1 7.50195 12.99023l-.09131.05274A7.47079 7.47079 0 0 1 350.97949 254.98764zm27.49024-15.70215a7.501 7.501 0 0 1-3.75782-13.99609l.09131-.05274a7.50043 7.50043 0 0 1 7.502 12.99024l-.09131.05273A7.47082 7.47082 0 0 1 378.46973 239.28549zm27.49072-15.70313a7.50047 7.50047 0 0 1-3.70508-14.02539l.09131-.05175a7.49966 7.49966 0 1 1 7.39648 13.04882l-.0913.05176A7.46416 7.46416 0 0 1 405.96045 223.58236z"/><path fill="#fff" d="M296.04639,286.36557a7.5209,7.5209,0,1,1,3.71-.98633l-.04346.02441A7.46813,7.46813,0,0,1,296.04639,286.36557Z"/></svg>