<svg xmlns="http://www.w3.org/2000/svg" data-name="Layer 1" viewBox="0 0 512 512"><path fill="#ed4769" d="M489.5,63.17V429.5l-30,15-30-15V63.17c0-11.05,8.95-23.67,20-23.67h20C480.55,39.5,489.5,52.12,489.5,63.17Z"/><path fill="#eb304a" d="M469.5,39.5h-20c-.42023,0-.83624.02423-1.25.05994C458.71655,40.46356,467,52.54022,467,63.17V429.5l-18.75,9.375L459.5,444.5l30-15V63.17C489.5,52.12,480.55,39.5,469.5,39.5Z"/><path fill="#fff" d="M459.5 331.9751A7.47885 7.47885 0 0 1 452 324.5v-.0498a7.5 7.5 0 1 1 7.5 7.5249zM459.5 302.83252a7.459 7.459 0 0 1-7.5-7.45166v-.09668a7.50015 7.50015 0 1 1 7.5 7.54834zm0-29.166a7.459 7.459 0 0 1-7.5-7.45166v-.09716a7.50016 7.50016 0 1 1 7.5 7.54882zm0-29.1665a7.459 7.459 0 0 1-7.5-7.45166v-.09668A7.50015 7.50015 0 1 1 459.5 244.5zm0-29.166a7.459 7.459 0 0 1-7.5-7.45166v-.09668a7.50015 7.50015 0 1 1 7.5 7.54834zm0-29.1665a7.45853 7.45853 0 0 1-7.5-7.45117v-.09717a7.50015 7.50015 0 1 1 7.5 7.54834zM459.5 157.0249a7.47885 7.47885 0 0 1-7.5-7.4751V149.5a7.5 7.5 0 1 1 7.5 7.5249z"/><path fill="#8b8893" d="M489.5,29.5V63.17h-60V29.5a19.9945,19.9945,0,0,1,20-20h20A19.9945,19.9945,0,0,1,489.5,29.5Z"/><path fill="#787681" d="M469.5,9.5h-20c-.422,0-.83447.03729-1.25.06305A19.97831,19.97831,0,0,1,467,29.5V63.17h22.5V29.5A19.9945,19.9945,0,0,0,469.5,9.5Z"/><polygon fill="#fdd8ae" points="489.5 429.5 459.5 489.5 429.5 429.5 489.5 429.5"/><polygon fill="#fbbf7d" points="467 429.5 448.25 467 459.5 489.5 489.5 429.5 467 429.5"/><path fill="#a6d28e" d="M82.5,7.5h300a0,0,0,0,1,0,0v467a0,0,0,0,1,0,0H82.5a60,60,0,0,1-60-60V67.5A60,60,0,0,1,82.5,7.5Z"/><rect width="45" height="467" x="337.5" y="7.5" fill="#91c771"/><path fill="#fff" d="M295.58252,354h-.18359a7.5,7.5,0,0,1,0-15H295.5a7.50011,7.50011,0,0,1,.08252,15Zm-30.5708,0h-.10156a7.5,7.5,0,0,1,0-15h.10156a7.5,7.5,0,0,1,0,15ZM234.523,354h-.10107a7.5,7.5,0,0,1,0-15h.10107a7.5,7.5,0,1,1,0,15Zm-30.48828,0h-.10156a7.5,7.5,0,1,1,0-15h.10156a7.5,7.5,0,0,1,0,15Zm-30.48828,0h-.10157a7.5,7.5,0,1,1,0-15h.10157a7.5,7.5,0,0,1,0,15Zm-30.48877,0h-.10108a7.5,7.5,0,0,1,0-15h.10108a7.5,7.5,0,0,1,0,15Zm-30.48828,0h-.10157a7.5,7.5,0,1,1,0-15h.10157a7.5,7.5,0,1,1,0,15Zm-22.689-16.02979a7.48555,7.48555,0,0,1-7.33008-5.97656l-.05615-.28906a7.49077,7.49077,0,1,1,7.38623,6.26562Zm225.60352-3.01269c-.14649,0-.293-.00391-.44092-.0127a7.55218,7.55218,0,1,1,7.93213-7.26269l-.01074.20947A7.50012,7.50012,0,0,1,315.48389,334.95752ZM89.5,307.52051a7.50006,7.50006,0,0,1-7.5-7.5v-.10108a7.5,7.5,0,0,1,15,0v.10108A7.50006,7.50006,0,0,1,89.5,307.52051Zm226-3.0503a7.50006,7.50006,0,0,1-7.5-7.5v-.10156a7.5,7.5,0,0,1,15,0v.10156A7.50006,7.50006,0,0,1,315.5,304.47021Zm-226-27.438a7.50006,7.50006,0,0,1-7.5-7.5v-.10108a7.5,7.5,0,0,1,15,0v.10108A7.50006,7.50006,0,0,1,89.5,277.03223Zm226-3.05078a7.50006,7.50006,0,0,1-7.5-7.5v-.10108a7.5,7.5,0,0,1,15,0v.10108A7.50006,7.50006,0,0,1,315.5,273.98145ZM89.5,246.544a7.50006,7.50006,0,0,1-7.5-7.5v-.10157a7.5,7.5,0,0,1,15,0v.10157A7.50006,7.50006,0,0,1,89.5,246.544Zm226-3.05079a7.50006,7.50006,0,0,1-7.5-7.5v-.10107a7.5,7.5,0,0,1,15,0v.10107A7.50006,7.50006,0,0,1,315.5,243.49316Zm-226-27.438a7.50006,7.50006,0,0,1-7.5-7.5v-.10108a7.5,7.5,0,0,1,15,0v.10108A7.50006,7.50006,0,0,1,89.5,216.05518Zm226-3.0503a7.50006,7.50006,0,0,1-7.5-7.5v-.10156a7.5,7.5,0,0,1,15,0v.10156A7.50006,7.50006,0,0,1,315.5,213.00488Zm-226-27.438a7.50006,7.50006,0,0,1-7.5-7.5v-.10107a7.5,7.5,0,0,1,15,0v.10107A7.50006,7.50006,0,0,1,89.5,185.56689Zm226-3.05078a7.50006,7.50006,0,0,1-7.5-7.5V174.915a7.5,7.5,0,1,1,15,0v.10107A7.50006,7.50006,0,0,1,315.5,182.51611Zm-226-27.4375a7.50006,7.50006,0,0,1-7.5-7.5v-.10156a7.5,7.5,0,0,1,15,0v.10156A7.50006,7.50006,0,0,1,89.5,155.07861Zm226-3.05078a7.50006,7.50006,0,0,1-7.5-7.5v-.10156a7.5,7.5,0,0,1,15,0v.10156A7.50006,7.50006,0,0,1,315.5,152.02783Zm-226-27.438a7.50006,7.50006,0,0,1-7.5-7.5v-.10107a7.5,7.5,0,1,1,15,0v.10107A7.50006,7.50006,0,0,1,89.5,124.58984Zm226-3.05078a7.50006,7.50006,0,0,1-7.5-7.5V113.938a7.5,7.5,0,0,1,15,0v.10107A7.50006,7.50006,0,0,1,315.5,121.53906ZM89.52588,94.106c-.11035,0-.2207-.00244-.332-.00733a7.5034,7.5034,0,0,1-7.167-7.82226l.01074-.20948A7.50061,7.50061,0,1,1,89.52588,94.106ZM315.10645,91.0791a7.54011,7.54011,0,1,1,7.335-9.11279l.05615.28906a7.50844,7.50844,0,0,1-7.39111,8.82373ZM292.49072,75h-.10107a7.5,7.5,0,0,1,0-15h.10107a7.5,7.5,0,0,1,0,15Zm-30.48828,0h-.10156a7.5,7.5,0,1,1,0-15h.10156a7.5,7.5,0,0,1,0,15Zm-30.48877,0h-.10107a7.5,7.5,0,0,1,0-15h.10107a7.5,7.5,0,0,1,0,15Zm-30.48828,0h-.10107a7.5,7.5,0,1,1,0-15h.10107a7.5,7.5,0,1,1,0,15Zm-30.48828,0h-.10156a7.5,7.5,0,0,1,0-15h.10156a7.5,7.5,0,0,1,0,15Zm-30.48877,0h-.10107a7.5,7.5,0,0,1,0-15h.10107a7.5,7.5,0,0,1,0,15Zm-30.48828,0h-.10156a7.5,7.5,0,0,1,0-15H109.5a7.50006,7.50006,0,1,1,.06006,15Z"/><path fill="#e1e1e3" d="M382.5,390.5v84H64.5a42,42,0,1,1,0-84Z"/><rect width="45" height="84" x="337.5" y="390.5" fill="#dadadc"/><path fill="#c8c5cc" d="M382.5,425v15H67.5a7.5,7.5,0,0,1,0-15Z"/><polygon fill="#ed4769" points="184.5 504.5 148 489.5 111.5 504.5 111.5 432.5 184.5 432.5 184.5 504.5"/><polygon fill="#eb304a" points="154.5 432.5 154.5 492.171 184.5 504.5 184.5 432.5 154.5 432.5"/></svg>