<svg xmlns="http://www.w3.org/2000/svg" data-name="Layer 1" viewBox="0 0 512 512"><polygon fill="#b79b7b" points="386 112.502 386 180.962 126 167.432 126 112.502 269.553 97.502 386 112.502"/><path fill="#c7ad92" d="M386,112.5018v392H126v-392l123.46,42.73a19.9525,19.9525,0,0,0,13.08008,0Z"/><path fill="#b79b7b" d="M386,504.5H126l25.49666-33.14566A15,15,0,0,1,163.386,465.5H348.614a15,15,0,0,1,11.88936,5.85434Z"/><path fill="#c7ad92" d="M126,112.5l23.78332-83.24163A30,30,0,0,1,178.629,7.5H333.371a30,30,0,0,1,28.84572,21.75837L386,112.5Z"/><path fill="#fff" d="M340.99707 381.3519a7.50634 7.50634 0 0 1-3.124-14.33887 7.49537 7.49537 0 0 1 10.627 6.79v.04883a7.5 7.5 0 0 1-7.35254 7.499C341.09668 381.3519 341.04688 381.3519 340.99707 381.3519zM199.79883 381.86947h-.09375a7.5 7.5 0 1 1 .09375 0zm28.249-.10351h-.09375a7.5 7.5 0 1 1 .09375 0zm28.249-.10352h-.09376a7.5 7.5 0 1 1 .09376 0zm28.249-.10351h-.09375a7.5 7.5 0 1 1 .09375 0zm28.249-.10352h-.09375a7.5 7.5 0 1 1 .09375 0zM171.5498 381.973H171.5a7.49951 7.49951 0 1 1 .0498 0zM171.5 353.77084a7.45957 7.45957 0 0 1-7.5-7.45312V346.224a7.50015 7.50015 0 1 1 7.5 7.54687zm0-28.19824a7.46039 7.46039 0 0 1-7.5-7.4541v-.09278a7.50015 7.50015 0 1 1 7.5 7.54688zm0-28.19922a7.45957 7.45957 0 0 1-7.5-7.45312v-.09375a7.50015 7.50015 0 1 1 7.5 7.54687zm0-28.19922A7.45957 7.45957 0 0 1 164 261.721v-.09278a7.50014 7.50014 0 1 1 7.5 7.5459zM171.5 240.9974a7.4778 7.4778 0 0 1-7.5-7.47461v-.0498a7.49655 7.49655 0 1 1 7.5 7.52441zM199.79883 240.86947a7.53958 7.53958 0 0 1-7.54688-7.5 7.45958 7.45958 0 0 1 7.45313-7.5h.09375a7.5 7.5 0 0 1 0 15zm28.249-.10351a7.53958 7.53958 0 0 1-7.54687-7.5 7.45956 7.45956 0 0 1 7.45312-7.5h.09375a7.5 7.5 0 0 1 0 15zm28.24707-.10352a7.53964 7.53964 0 0 1-7.54492-7.42187 7.46141 7.46141 0 0 1 7.375-7.57715l.09375-.001h.08008a7.5002 7.5002 0 0 1 .07617 15zm28.249-.10351a7.53965 7.53965 0 0 1-7.54493-7.42188 7.46142 7.46142 0 0 1 7.375-7.57715l.09375-.001h.08008a7.5002 7.5002 0 0 1 .07617 15zm28.251-.10254a7.53958 7.53958 0 0 1-7.54687-7.5 7.45956 7.45956 0 0 1 7.45312-7.5h.09375a7.5 7.5 0 0 1 0 15zM341 240.37729a7.51287 7.51287 0 0 1-.19727-15.02344l.04981-.001a7.5002 7.5002 0 0 1 7.64746 7.499A7.52115 7.52115 0 0 1 341 240.37729zM341 353.1976a7.523 7.523 0 1 1 7.5-7.59277v.09277A7.49943 7.49943 0 0 1 341 353.1976zm0-28.19824a7.52348 7.52348 0 1 1 7.5-7.59375v.09375A7.49943 7.49943 0 0 1 341 324.99936zm0-28.19922a7.52348 7.52348 0 1 1 7.5-7.59278v.09278A7.49943 7.49943 0 0 1 341 296.80014zm0-28.19824a7.52348 7.52348 0 1 1 7.5-7.59375v.09375A7.49944 7.49944 0 0 1 341 268.6019z"/></svg>