<svg xmlns="http://www.w3.org/2000/svg" data-name="Layer 1" viewBox="0 0 512 512"><path fill="#fee27d" d="M7.5,194.532,222.19051,48.09316a60,60,0,0,1,67.619,0L504.5,194.532l-263.47168,45Z"/><path fill="#fddd5a" d="M289.80951,48.09314A60.00081,60.00081,0,0,0,226,45.7q1.93753,1.11942,3.80951,2.39313L444.5,194.53192,212.83575,234.0993l28.19257,5.43262,263.47168-45Z"/><path fill="#fff" d="M504.5,195.34v249a29.91133,29.91133,0,0,1-11.45,23.57c-.12.1-.25.2-.37.29q-.72.54-1.47,1.05a29.88289,29.88289,0,0,1-16.71,5.09H37.5a29.852,29.852,0,0,1-18.54-6.42l-.01-.01A29.91133,29.91133,0,0,1,7.5,444.34v-249Z"/><path fill="#e1e1e3" d="M459.5,195.34v249a29.91133,29.91133,0,0,1-11.45,23.57c-.12.1-.25.2-.37.29q-.72.54-1.47,1.05a29.88289,29.88289,0,0,1-16.71,5.09h45a29.88289,29.88289,0,0,0,16.71-5.09q.75-.51,1.47-1.05c.12-.09.25-.19.37-.29a29.91133,29.91133,0,0,0,11.45-23.57v-249Z"/><path fill="#fee27d" d="M504.5,195.34v249a29.92813,29.92813,0,0,1-11.82,23.86L314.15,367.48Z"/><path fill="#fddd5a" d="M459.5,236.035V444.34a30.176,30.176,0,0,1-.40961,4.91L492.68,468.2a29.92813,29.92813,0,0,0,11.82-23.86v-249Z"/><path fill="#fee27d" d="M197.85,367.48,127.48,474.34H37.5a29.99813,29.99813,0,0,1-30-30v-249Z"/><path fill="#fddd5a" d="M493.05,467.91l-1.84,1.34a29.88289,29.88289,0,0,1-16.71,5.09H37.5a29.85109,29.85109,0,0,1-10.39-1.85l-8.15-4.57-.01-.01L226.63,351.33a59.9987,59.9987,0,0,1,58.74,0Z"/><path fill="#fff" d="M369.5 452h-227a7.5 7.5 0 0 1 0-15h227a7.5 7.5 0 0 1 0 15zM294.5 422h-77a7.5 7.5 0 0 1 0-15h77a7.5 7.5 0 0 1 0 15z"/></svg>