<svg xmlns="http://www.w3.org/2000/svg" data-name="Layer 1" viewBox="0 0 512 512"><rect width="359" height="452" x="120" y="52.5" fill="#e7e7f2" rx="30"/><path fill="#dcdce5" d="M449,52.49985H404a30.00008,30.00008,0,0,1,30,30v392a29.99977,29.99977,0,0,1-30,30h45a29.99977,29.99977,0,0,0,30-30v-392A30.00008,30.00008,0,0,0,449,52.49985Z"/><path fill="#fff" d="M434 420.00033H165a7.5 7.5 0 0 1 0-15H434a7.5 7.5 0 0 1 0 15zM165.0498 375.00033a7.5 7.5 0 1 1-.0498-15h.0498a7.5 7.5 0 1 1 0 15zM404.16113 375.00033a7.5421 7.5421 0 0 1-7.5498-7.5 7.45709 7.45709 0 0 1 7.45019-7.5h.09961a7.5 7.5 0 0 1 0 15zm-29.88867 0a7.5421 7.5421 0 0 1-7.5498-7.5 7.45709 7.45709 0 0 1 7.45019-7.5h.09961a7.5 7.5 0 0 1 0 15zm-29.88965 0a7.54126 7.54126 0 0 1-7.54883-7.5 7.4571 7.4571 0 0 1 7.4502-7.5h.09863a7.5 7.5 0 0 1 0 15zm-29.88867 0a7.54126 7.54126 0 0 1-7.54883-7.5 7.4571 7.4571 0 0 1 7.4502-7.5h.09863a7.5 7.5 0 0 1 0 15zm-29.88867 0a7.5421 7.5421 0 0 1-7.54981-7.5 7.4571 7.4571 0 0 1 7.4502-7.5h.09961a7.5 7.5 0 0 1 0 15zm-29.88867 0a7.5421 7.5421 0 0 1-7.54981-7.5 7.4571 7.4571 0 0 1 7.4502-7.5h.09961a7.5 7.5 0 0 1 0 15zm-29.88868 0a7.5421 7.5421 0 0 1-7.5498-7.5 7.4571 7.4571 0 0 1 7.4502-7.5h.0996a7.5 7.5 0 0 1 0 15zm-29.88867 0a7.5421 7.5421 0 0 1-7.5498-7.5 7.45709 7.45709 0 0 1 7.45019-7.5h.09961a7.5 7.5 0 1 1 0 15zM434 375.00033a7.5 7.5 0 0 1-.0498-15H434a7.5 7.5 0 0 1 0 15zM434 465.00033H165a7.5 7.5 0 0 1 0-15H434a7.5 7.5 0 0 1 0 15z"/><rect width="269" height="225" x="165" y="97.5" fill="#a8d9f5"/><polygon fill="#469ed6" points="292.055 322.5 363.459 248.678 434 322.5 292.055 322.5"/><polygon fill="#7dc7a2" points="165 322.5 243.216 229.284 321.432 322.5 165 322.5"/><circle cx="120" cy="94.5" r="87" fill="#ed4769"/><path fill="#eb304a" d="M120,189.00033a94.5,94.5,0,1,1,94.5-94.5A94.60709,94.60709,0,0,1,120,189.00033Zm0-174a79.5,79.5,0,1,0,79.5,79.5A79.58945,79.58945,0,0,0,120,15.00033Z"/><path fill="#fff" d="M434 210.05014a7.51271 7.51271 0 1 1 7.5-7.54981v.04981A7.49943 7.49943 0 0 1 434 210.05014zM434 300.04916a7.52494 7.52494 0 1 1 7.5-7.59961v.09961A7.49943 7.49943 0 0 1 434 300.04916zm0-30a7.52494 7.52494 0 1 1 7.5-7.59961v.09961A7.49943 7.49943 0 0 1 434 270.04916zm0-30a7.52494 7.52494 0 1 1 7.5-7.59961v.09961A7.49943 7.49943 0 0 1 434 240.04916zM404.16016 330.00033h-.09961a7.5 7.5 0 1 1 .09961 0zm-29.88868 0h-.0996a7.5 7.5 0 1 1 .0996 0zm-29.88867 0h-.09961a7.5 7.5 0 1 1 .09961 0zm-59.77832 0h-.09863a7.49952 7.49952 0 1 1 .09863 0zm-29.88867 0h-.09863a7.49952 7.49952 0 1 1 .09863 0zm-29.88867 0h-.09961a7.5 7.5 0 1 1 .09961 0zm-29.88867 0h-.09961a7.5 7.5 0 1 1 .09961 0zM165 299.99936a7.45709 7.45709 0 0 1-7.5-7.4502v-.09961a7.50016 7.50016 0 1 1 7.5 7.54981zm0-30a7.45709 7.45709 0 0 1-7.5-7.4502v-.09961a7.50016 7.50016 0 1 1 7.5 7.54981zm0-30a7.45709 7.45709 0 0 1-7.5-7.4502v-.09961a7.50016 7.50016 0 1 1 7.5 7.54981zM165 210.02475a7.4778 7.4778 0 0 1-7.5-7.47461v-.04981a7.5 7.5 0 1 1 7.5 7.52442z"/><circle cx="330.5" cy="171" r="28.5" fill="#fee27d"/><path fill="#fff" d="M120,122.25033a7.49943,7.49943,0,0,1-7.5-7.5v-69a7.5,7.5,0,1,1,15,0v69A7.49943,7.49943,0,0,1,120,122.25033Z"/><circle cx="120" cy="143.25" r="7.5" fill="#fff"/></svg>