<svg xmlns="http://www.w3.org/2000/svg" data-name="Layer 1" viewBox="0 0 512 512"><rect width="331.562" height="497" x="90.219" y="7.5" fill="#469ed6" rx="30"/><path fill="#227fc0" d="M391.78082,7.5h-45a30,30,0,0,1,30,30v437a30,30,0,0,1-30,30h45a30,30,0,0,0,30-30V37.5A30,30,0,0,0,391.78082,7.5Z"/><path fill="#fff" d="M376.78076 249.86035a7.50683 7.50683 0 0 1-3.10058-14.35156 7.49475 7.49475 0 0 1 10.60058 6.80176v.0498A7.49974 7.49974 0 0 1 376.78076 249.86035zM346.63574 249.86035h-.1001a7.5 7.5 0 0 1 0-15h.1001a7.5 7.5 0 0 1 0 15zm-30.19531 0h-.1001a7.5 7.5 0 0 1 0-15h.1001a7.5 7.5 0 0 1 0 15zm-30.19531 0h-.1001a7.5 7.5 0 0 1 0-15h.1001a7.5 7.5 0 0 1 0 15zm-30.19532 0h-.10009a7.5 7.5 0 0 1 0-15h.10009a7.5 7.5 0 0 1 0 15zm-30.19482 0h-.10059a7.5 7.5 0 0 1 0-15h.10059a7.5 7.5 0 0 1 0 15zm-30.19531 0h-.10059a7.5 7.5 0 0 1 0-15h.10059a7.5 7.5 0 0 1 0 15zm-30.19531 0h-.10059a7.5 7.5 0 0 1 0-15h.10059a7.5 7.5 0 0 1 0 15zM135.269 249.86035h-.0498a7.5 7.5 0 1 1 .0498 0zM135.21924 218.27148a7.49974 7.49974 0 0 1-7.5-7.5V210.666a7.5 7.5 0 1 1 15 0v.10546A7.49974 7.49974 0 0 1 135.21924 218.27148zm0-31.64453a7.49974 7.49974 0 0 1-7.5-7.5v-.10449a7.5 7.5 0 1 1 15 0v.10449A7.49974 7.49974 0 0 1 135.21924 186.627zm0-31.64355a7.49974 7.49974 0 0 1-7.5-7.5v-.10547a7.5 7.5 0 1 1 15 0v.10547A7.49974 7.49974 0 0 1 135.21924 154.9834zm0-31.64453a7.49974 7.49974 0 0 1-7.5-7.5v-.10547a7.5 7.5 0 0 1 15 0v.10547A7.49974 7.49974 0 0 1 135.21924 123.33887zm0-31.64453a7.49975 7.49975 0 0 1-7.5-7.5v-.1045a7.5 7.5 0 1 1 15 0v.1045A7.49975 7.49975 0 0 1 135.21924 91.69434zM135.21924 60.02441a7.47812 7.47812 0 0 1-7.5-7.47461V52.5a7.49654 7.49654 0 1 1 7.5 7.52441zM346.63623 60h-.10059a7.5 7.5 0 0 1 0-15h.10059a7.5 7.5 0 0 1 0 15zm-30.19531 0h-.10059a7.5 7.5 0 0 1 0-15h.10059a7.5 7.5 0 0 1 0 15zm-30.19531 0H286.145a7.5 7.5 0 0 1 0-15h.10059a7.5 7.5 0 0 1 0 15zm-30.19532 0h-.10009a7.5 7.5 0 0 1 0-15h.10009a7.5 7.5 0 0 1 0 15zM225.855 60h-.1001a7.5 7.5 0 0 1 0-15h.1001a7.5 7.5 0 0 1 0 15zm-30.19531 0h-.1001a7.5 7.5 0 0 1 0-15h.1001a7.5 7.5 0 0 1 0 15zm-30.19531 0h-.1001a7.5 7.5 0 0 1 0-15h.1001a7.5 7.5 0 0 1 0 15zM376.78076 60.02441A7.51226 7.51226 0 0 1 376.731 45h.0498a7.51221 7.51221 0 0 1 0 15.02441zM376.78076 218.27051a7.49974 7.49974 0 0 1-7.5-7.5V210.666a7.5 7.5 0 0 1 15 0v.10449A7.49974 7.49974 0 0 1 376.78076 218.27051zm0-31.64356a7.49974 7.49974 0 0 1-7.5-7.5v-.10547a7.5 7.5 0 0 1 15 0v.10547A7.49974 7.49974 0 0 1 376.78076 186.627zm0-31.64453a7.49974 7.49974 0 0 1-7.5-7.5V147.377a7.5 7.5 0 1 1 15 0v.10547A7.49974 7.49974 0 0 1 376.78076 154.98242zm0-31.64453a7.49974 7.49974 0 0 1-7.5-7.5v-.10449a7.5 7.5 0 0 1 15 0v.10449A7.49974 7.49974 0 0 1 376.78076 123.33789zm0-31.64355a7.49975 7.49975 0 0 1-7.5-7.5v-.10547a7.5 7.5 0 1 1 15 0v.10547A7.49975 7.49975 0 0 1 376.78076 91.69434z"/><circle cx="146.128" cy="304.86" r="15" fill="#ed4769"/><circle cx="294.372" cy="304.86" r="15" fill="#fee27d"/><path fill="#fff" d="M238 312.36035H194a7.5 7.5 0 0 1 0-15h44a7.5 7.5 0 0 1 0 15zM383.37256 312.36035h-44a7.5 7.5 0 0 1 0-15h44a7.5 7.5 0 0 1 0 15z"/><circle cx="146.128" cy="364.86" r="15" fill="#ed4769"/><circle cx="294.372" cy="364.86" r="15" fill="#fee27d"/><path fill="#fff" d="M238 372.36035H194a7.5 7.5 0 1 1 0-15h44a7.5 7.5 0 0 1 0 15zM383.37256 372.36035h-44a7.5 7.5 0 0 1 0-15h44a7.5 7.5 0 0 1 0 15z"/><path fill="#ed4769" d="M383.37256,424.29492H131.12744a7.5,7.5,0,0,1,0-15H383.37256a7.5,7.5,0,0,1,0,15Z"/><path fill="#fee27d" d="M383.37256,467H131.12744a7.5,7.5,0,1,1,0-15H383.37256a7.5,7.5,0,0,1,0,15Z"/></svg>