<svg xmlns="http://www.w3.org/2000/svg" data-name="Layer 1" viewBox="0 0 512 512"><polygon fill="#c7ad92" points="473 449.502 282.703 449.502 286 494.502 219.702 495.695 229.297 449.502 39 449.502 99 254.502 413 254.502 473 449.502"/><polyline fill="#b79b7b" points="413 254.5 384.923 309.501 428 449.5"/><line x1="127.08" x2="84" y1="309.502" y2="449.502" fill="#b79b7b"/><path fill="#c7ad92" d="M421.62457,7.5H90.37543a6,6,0,0,0-5.989,6.3637L99,254.5H413L427.61354,13.8637A6,6,0,0,0,421.62457,7.5Z"/><path fill="#b79b7b" d="M421.62451,7.49985h-45a6.00021,6.00021,0,0,1,5.989,6.36376L368,254.49985h45L427.61353,13.86361A6.00021,6.00021,0,0,0,421.62451,7.49985Z"/><path fill="#ed4769" d="M75.20246,52.5h154.0947a26.70284,26.70284,0,1,0,53.40568,0h154.0947a6,6,0,0,0,5.6921-7.89737L432.40133,14.33772A10,10,0,0,0,422.9145,7.5H89.0855a10,10,0,0,0-9.48683,6.83772L69.51036,44.60263A6,6,0,0,0,75.20246,52.5Z"/><path fill="#eb304a" d="M442.48975,44.60287,432.40137,14.33774a10.00008,10.00008,0,0,0-9.48682-6.83789h-45a10.00008,10.00008,0,0,1,9.48682,6.83789l10.08838,30.26513a6,6,0,0,1-5.69214,7.897h45A6,6,0,0,0,442.48975,44.60287Z"/><path fill="#ed4769" d="M473,449.5H282.70284a26.70284,26.70284,0,1,1-53.40568,0H39v45a10,10,0,0,0,10,10H463a10,10,0,0,0,10-10Z"/><path fill="#eb304a" d="M428,449.49985v45a9.99988,9.99988,0,0,1-10,10h45a9.99988,9.99988,0,0,0,10-10v-45Z"/><path fill="#fff" d="M365 210.61166a7.507 7.507 0 0 1-3.10059-14.35156A7.49653 7.49653 0 0 1 372.5 203.06186v.0498A7.49943 7.49943 0 0 1 365 210.61166zM333.91016 210.61166h-.10352a7.5 7.5 0 0 1 0-15h.10352a7.5 7.5 0 0 1 0 15zm-31.14356 0h-.10351a7.5 7.5 0 0 1 0-15h.10351a7.5 7.5 0 0 1 0 15zm-31.14355 0h-.10352a7.5 7.5 0 0 1 0-15h.10352a7.5 7.5 0 0 1 0 15zm-31.14258 0H240.377a7.5 7.5 0 0 1 0-15h.10352a7.5 7.5 0 0 1 0 15zm-31.14356 0h-.10351a7.5 7.5 0 0 1 0-15h.10351a7.5 7.5 0 0 1 0 15zm-31.14355 0h-.10352a7.5 7.5 0 0 1 0-15h.10352a7.5 7.5 0 0 1 0 15zM147.0498 210.61166H147a7.49951 7.49951 0 1 1 .0498 0zM147 184.2767a7.46205 7.46205 0 0 1-7.5-7.45605v-.08789a7.50013 7.50013 0 1 1 7.5 7.54394zm0-26.3291a7.46206 7.46206 0 0 1-7.5-7.45606v-.08789a7.50013 7.50013 0 1 1 7.5 7.54395zM147 131.63608a7.47781 7.47781 0 0 1-7.5-7.47461v-.04981a7.49653 7.49653 0 1 1 7.5 7.52442zM333.91016 131.61166h-.10352a7.5 7.5 0 0 1 0-15h.10352a7.5 7.5 0 0 1 0 15zm-31.14356 0h-.10351a7.5 7.5 0 0 1 0-15h.10351a7.5 7.5 0 0 1 0 15zm-31.14355 0h-.10352a7.5 7.5 0 0 1 0-15h.10352a7.5 7.5 0 0 1 0 15zm-31.14258 0H240.377a7.5 7.5 0 0 1 0-15h.10352a7.5 7.5 0 0 1 0 15zm-31.14356 0h-.10351a7.5 7.5 0 0 1 0-15h.10351a7.5 7.5 0 0 1 0 15zm-31.14355 0h-.10352a7.5 7.5 0 0 1 0-15h.10352a7.5 7.5 0 0 1 0 15zM365 131.63608a7.51226 7.51226 0 0 1-.0498-15.02442H365a7.51222 7.51222 0 0 1 0 15.02442zM365 184.31967a7.522 7.522 0 1 1 7.5-7.58789v.08789A7.49943 7.49943 0 0 1 365 184.31967zm0-26.3291a7.522 7.522 0 1 1 7.5-7.58789v.08789A7.49943 7.49943 0 0 1 365 157.99057z"/><polygon fill="#af8d74" points="99 254.5 127.08 309.502 384.92 309.502 413 254.502 99 254.5"/><polygon fill="#b79b7b" points="473 449.502 428 449.502 413 254.502 473 449.502"/><polygon fill="#b79b7b" points="127.08 309.502 84 449.502 39 449.502 99 254.502 127.08 309.502"/></svg>