<svg xmlns="http://www.w3.org/2000/svg" data-name="Layer 1" viewBox="0 0 512 512"><rect width="307" height="332" x="102.5" y="142.5" fill="#fee27d"/><rect width="45" height="332" x="364.5" y="142.5" fill="#fddd5a"/><rect width="337" height="30" x="87.5" y="474.5" fill="#c7ad92" rx="9"/><path fill="#b79b7b" d="M415.5,474.49985h-45a9.00005,9.00005,0,0,1,9,9v12a8.9999,8.9999,0,0,1-9,9h45a8.9999,8.9999,0,0,0,9-9v-12A9.00005,9.00005,0,0,0,415.5,474.49985Z"/><path fill="#c8c5cc" d="M393.937,128.78744a7.466,7.466,0,0,1-4.36035-1.40332L256,31.72494,125.6333,125.08529A7.5,7.5,0,1,1,116.8999,112.89l134.7334-96.4873a7.50194,7.50194,0,0,1,8.7334,0l137.94336,98.78613a7.50065,7.50065,0,0,1-4.37305,13.59863Z"/><rect width="337" height="30" x="87.5" y="112.5" fill="#c7ad92" rx="9"/><path fill="#b79b7b" d="M415.5,112.49985h-45a9.00005,9.00005,0,0,1,9,9v12a8.9999,8.9999,0,0,1-9,9h45a8.9999,8.9999,0,0,0,9-9v-12A9.00005,9.00005,0,0,0,415.5,112.49985Z"/><circle cx="256" cy="25" r="17.5" fill="#8b8893"/><path fill="#f9b15e" d="M364.5 309.66733h-217a7.5 7.5 0 0 1 0-15h217a7.5 7.5 0 0 1 0 15zM364.5 369.66733h-217a7.5 7.5 0 0 1 0-15h217a7.5 7.5 0 0 1 0 15zM364.5 429.66733h-217a7.5 7.5 0 0 1 0-15h217a7.5 7.5 0 0 1 0 15z"/><path fill="#469ed6" d="M237.22327,259.556l61.69928-56.56274a3,3,0,0,1,4.04375-.00984L365.28278,259.556Z"/><path fill="#c9de79" d="M146.71722,259.556l72.63192-68.58539a3,3,0,0,1,4.08506-.0319L298.41212,259.556Z"/></svg>