<svg xmlns="http://www.w3.org/2000/svg" data-name="Layer 1" viewBox="0 0 512 512"><rect width="190" height="283" x="7.5" y="221.5" fill="#7dc7a2" rx="15"/><path fill="#56bc8d" d="M182.5,221.49985h-45a15,15,0,0,1,15,15v253a14.99989,14.99989,0,0,1-15,15h45a14.99989,14.99989,0,0,0,15-15v-253A15,15,0,0,0,182.5,221.49985Z"/><path fill="#fff" d="M139.96582 394.00033H65.03418a7.5 7.5 0 0 1 0-15h74.93164a7.5 7.5 0 0 1 0 15zM139.96582 439.00033H65.03418a7.5 7.5 0 0 1 0-15h74.93164a7.5 7.5 0 0 1 0 15z"/><path fill="#8b8893" d="M104.07422,265.96322A7.50557,7.50557,0,0,1,97.01367,255.933,187.74035,187.74035,0,0,0,108.001,185.49643a187.57453,187.57453,0,0,0-9.13184-51.28321,7.50008,7.50008,0,0,1,14.26172-4.64843,202.63954,202.63954,0,0,1,9.86035,55.38476,202.64883,202.64883,0,0,1-11.85644,76.04A7.50226,7.50226,0,0,1,104.07422,265.96322Z"/><circle cx="102.5" cy="273.5" r="22" fill="#fff"/><path fill="#e1e1e3" d="M102.5,251.49985a21.95544,21.95544,0,0,0-7.5,1.31323,22.00681,22.00681,0,0,1,0,41.37378,22.002,22.002,0,1,0,7.5-42.687Z"/><circle cx="391" cy="211" r="113.5" fill="#fee27d"/><path fill="#fddd5a" d="M391,97.49985a114.00829,114.00829,0,0,0-22.5,2.23437,113.52234,113.52234,0,0,1,0,222.53149A113.50827,113.50827,0,1,0,391,97.49985Z"/><path fill="#8b8893" d="M389.54688,139.92221a7.50564,7.50564,0,0,1-7.07618-9.98633A186.415,186.415,0,0,0,383.87109,9.82944a7.49974,7.49974,0,0,1,14.25782-4.65821,201.40431,201.40431,0,0,1-1.50586,129.7334A7.50262,7.50262,0,0,1,389.54688,139.92221Z"/><circle cx="391" cy="149.5" r="22" fill="#fff"/><path fill="#e1e1e3" d="M391,127.49985a21.95544,21.95544,0,0,0-7.5,1.31323,22.00681,22.00681,0,0,1,0,41.37378,22.002,22.002,0,1,0,7.5-42.687Z"/><path fill="#ed4769" d="M400.70426,429.34476,252.88813,475.98585a15,15,0,0,1-18.81844-9.79113L161.5006,236.20689a15,15,0,0,1,.71-10.8525l29.1421-62.50066a15.00005,15.00005,0,0,1,9.08117-7.966l58.93853-18.59714a15,15,0,0,1,12.0085,1.31143l59.7355,34.45672a15,15,0,0,1,6.80994,8.4797l72.56909,229.98783A15,15,0,0,1,400.70426,429.34476Z"/><path fill="#eb304a" d="M410.49536,410.52621,337.92627,180.53842a14.99918,14.99918,0,0,0-6.80994-8.47949l-59.73547-34.45679a15.00047,15.00047,0,0,0-12.00855-1.31152l-5.986,1.88891,32.73,18.8794a14.99918,14.99918,0,0,1,6.80994,8.47949l72.56909,229.98779a15.00018,15.00018,0,0,1-9.791,18.81861l-125.5,39.59936,3.86535,12.25049a14.99981,14.99981,0,0,0,18.81848,9.791l147.81617-46.64087A15.00018,15.00018,0,0,0,410.49536,410.52621Z"/><path fill="#fff" d="M260.43164 342.39a7.50116 7.50116 0 0 1-2.25488-14.65429L317.11523 309.138a7.5 7.5 0 0 1 4.51368 14.30469l-58.93848 18.59765A7.48725 7.48725 0 0 1 260.43164 342.39zM275.43164 387.39a7.50116 7.50116 0 0 1-2.25488-14.65429L332.11523 354.138a7.5 7.5 0 0 1 4.51368 14.30469l-58.93848 18.59765A7.48725 7.48725 0 0 1 275.43164 387.39z"/><path fill="#8b8893" d="M239.00391,185.75033c-.08594,0-.17188-.001-.25782-.0039a7.50079,7.50079,0,0,1-7.24316-7.749A179.03172,179.03172,0,0,0,197.5,66.54526a7.49985,7.49985,0,1,1,12.14648-8.80079,194.02173,194.02173,0,0,1,36.84864,120.75879A7.50056,7.50056,0,0,1,239.00391,185.75033Z"/><circle cx="245.55" cy="195.179" r="22" fill="#fff"/><path fill="#e1e1e3" d="M266.53076,188.55917a21.99984,21.99984,0,0,0-27.60034-14.36035c-.29736.09375-.58923.197-.87976.30225a21.99412,21.99412,0,0,1-.00061,41.3562,21.99552,21.99552,0,0,0,28.48071-27.2981Z"/></svg>