<svg xmlns="http://www.w3.org/2000/svg" data-name="Layer 1" viewBox="0 0 512 512"><path fill="#f9b15e" d="M477.8501,289.79159l-73.69019-163.3999a15.77714,15.77714,0,0,0-7.03991-7.46l-41.6-21.79L325.15,81.22152l-6.27-3.27978a45.77281,45.77281,0,0,1-7.53991,18.0498C306.18994,103.57162,297.63,111.7518,283.46,116.68173a81.67816,81.67816,0,0,1-19.49,4.07983c-.15991.02-.32.04-.48.05H248.33008c-.55-.05-1.09009-.09985-1.63013-.15991-49.01-5.16016-53.75-42.71-53.75-42.71l-10.63989,5.58984L154.53,98.11166l-39.66,20.82007a15.68959,15.68959,0,0,0-7.02,7.46l-73.7,163.3999a15.72578,15.72578,0,0,0,.02991,13L81,405.35165l11.52-4.52,40.1499-15.75q.15015,17.83483-.05993,35.13013c-.28992,26.05981-1.13,51.16992-2.39,75.27a8.58025,8.58025,0,0,0,8.57007,9.02H373.04a8.5662,8.5662,0,0,0,8.55994-9.02c-1.25989-24.13013-2.1-49.27-2.39-75.3501q-.19482-17.28-.05994-35.12012l40.33,15.82007,11.52,4.52,46.82007-102.56006A15.72624,15.72624,0,0,0,477.8501,289.79159ZM101.6,303.78158a9.81307,9.81307,0,0,1,.4-9.83984l25.01-39.43018q1.485,18.70533,2.61,38c1.39,23.82007,4.23,68.24024,4.68,90.88013Zm308.8,0L377.7,383.39169c.45007-22.75,3.1001-66.92993,4.5-90.88013q.66009-11.48986,1.47-22.79.55518-7.78491,1.16016-15.46l8.21,12.93995L410,293.94174A9.81307,9.81307,0,0,1,410.4,303.78158Z"/><path fill="#f9a242" d="M216.7 120.6517c.54.06006 1.08008.10986 1.63013.15991H233.49c.16-.01.32007-.03.48-.05 2.41956-.22363 4.72192-.53418 6.93384-.90747C197.31689 112.47275 192.95 77.94174 192.95 77.94174l-10.63989 5.58984-14.686 7.70777C173.62891 102.58066 187.07532 117.53256 216.7 120.6517zM477.8501 289.79159l-73.69019-163.3999a15.77714 15.77714 0 0 0-7.03991-7.46l-41.6-21.79L325.15 81.22152l-6.27-3.27978A43.2065 43.2065 0 0 1 314.21 91.213L325.52 97.14169l41.6 21.79a15.77714 15.77714 0 0 1 7.03991 7.46l73.69019 163.3999a15.72624 15.72624 0 0 1-.03 13L405.55676 395.37 419.48 400.83163l11.52 4.52 46.82007-102.56006A15.72624 15.72624 0 0 0 477.8501 289.79159z"/><path fill="#f69531" d="M148.08762 408.98575a4 4 0 0 1-1.98 5.58719L132.61 420.21176l-26.61634 11.105a4 4 0 0 1-5.06179-1.79461L86.77 403.23178l5.75-2.40015 40.13989-16.76 1.64014-.67993.47.86011zM425.23 403.23178l-14.16159 26.28989a4 4 0 0 1-5.06231 1.79439L379.21 420.13168l-13.31619-5.5593a4 4 0 0 1-1.98089-5.58756l13.3171-24.733.47-.86011 1.46.61011L419.48 400.83163zM340.85 448.9179v55.5839H170.96V448.99645a3.00794 3.00794 0 0 1 2.333-2.92476c5.85722-1.37214 20.82654-6.30949 28.27711-22.02009 6.35275-13.41051 3.14394-26.0887.69473-32.41784a2.99248 2.99248 0 0 1 2.804-4.06214H306.925a3.00383 3.00383 0 0 1 2.82755 4.00166c-2.233 6.45124-5.08171 19.543 1.86748 33.14824 7.55516 14.77668 21.3829 19.803 26.98391 21.29288A3.008 3.008 0 0 1 340.85 448.9179zM355.52 97.14169a136.96559 136.96559 0 0 1-41.29 23.95 137.55588 137.55588 0 0 1-58.61 7.77l8.35-8.1001L326.39 60.2518l16.97-16.46021.13-.11987c.5282 2.34448 4.12231 18.30542 4.65 20.6499C349.40442 69.93979 354.25769 91.523 355.52 97.14169zM255.62 128.86166a130.28809 130.28809 0 0 1-63.25-7.77c-14.7815-5.77417-37.83973-22.97973-37.84-22.98h0c1.96143-15.98022 3.43689-25.37475 4.40991-30.92993.24048-1.37329 1.67139-9.71826 3.40015-19.23022.25989-1.42994.50989-2.84986.75989-4.27979l17.12 15.76 66.48 61.22z"/><path fill="#f48a31" d="M342.65991,54.41171c-1.93994,3.88989-4.17993,7.8999-6.75,11.98-1.75,2.77-3.65991,5.57983-5.75,8.3999q-2.47485,3.345-5.00989,6.42993a155.87209,155.87209,0,0,1-13.80993,14.77A148.3629,148.3629,0,0,1,283.46,116.68173a137.004,137.004,0,0,1-27.84,12.17993c-14.30994-4.53-49.02991-16.31006-73.30994-45.33008-.61011-.72-1.22-1.46-1.81006-2.21a133.25039,133.25039,0,0,1-10.32007-14.99,134.12516,134.12516,0,0,1-6.58-12.51,13.6777,13.6777,0,0,1-1.25989-5.87011A14.07878,14.07878,0,0,1,167.76,37.04159,137.45342,137.45342,0,0,1,230.47,9.20151c50.18-8.14991,90.04,14.88012,107.74,27.66015a14.17759,14.17759,0,0,1,5.15,6.92993A13.7219,13.7219,0,0,1,342.65991,54.41171Z"/><path fill="#f9b15e" d="M342.65991,54.41171c-1.93994,3.88989-4.17993,7.8999-6.75,11.98-2.75-1.90991-5.93994-4-9.5199-6.13989-20.76-12.38013-54.89-26.57007-95.92-19.90015a135.33677,135.33677,0,0,0-50.25,19.08008c-3.74,2.32983-7.09,4.67993-10.04,6.8999a134.12516,134.12516,0,0,1-6.58-12.51,13.6777,13.6777,0,0,1-1.25989-5.87011A14.07878,14.07878,0,0,1,167.76,37.04159,137.45342,137.45342,0,0,1,230.47,9.20151c50.18-8.14991,90.04,14.88012,107.74,27.66015a14.17759,14.17759,0,0,1,5.15,6.92993A13.7219,13.7219,0,0,1,342.65991,54.41171Z"/><path fill="#f69531" d="M304.85156 222.40561a7.49943 7.49943 0 0 1-7.5-7.5V111.50326a7.5 7.5 0 0 1 15 0V214.90561A7.49943 7.49943 0 0 1 304.85156 222.40561zM201.73926 222.40561a7.49943 7.49943 0 0 1-7.5-7.5V111.50326a7.5 7.5 0 0 1 15 0V214.90561A7.49943 7.49943 0 0 1 201.73926 222.40561z"/><path fill="#fff" d="M263.39941,328.9769a7.50051,7.50051,0,0,1-1.333-14.87989l.13671-.02441a7.49992,7.49992,0,1,1,2.60743,14.77148l-.06055.01075A7.494,7.494,0,0,1,263.39941,328.9769ZM234.543,323.888a7.46994,7.46994,0,0,1-3.69336-.97656l-.18262-.1045a7.50616,7.50616,0,1,1,3.876,1.08106Zm54.3418-9.5752a7.53389,7.53389,0,1,1,5.79394-2.73144l-.06445.07617A7.48491,7.48491,0,0,1,288.88477,314.31283ZM215.59863,301.3851a7.48576,7.48576,0,0,1-7.01269-4.8584c-.02442-.06543-.082-.22363-.10449-.28906a7.49166,7.49166,0,1,1,7.11718,5.14746ZM299,286.71127a7.49943,7.49943,0,0,1-7.5-7.5v-.1709a7.5421,7.5421,0,0,1,7.5-7.5498,7.45709,7.45709,0,0,1,7.5,7.45019v.27051A7.49943,7.49943,0,0,1,299,286.71127Zm-83.4502-14.72168a7.5593,7.5593,0,1,1,7.12793-5.15723c-.02246.06543-.08007.22364-.10449.28907A7.50272,7.50272,0,0,1,215.5498,271.98959Zm-1.293-7.9873,1.29394.48535Zm74.65527-5.07032a7.51607,7.51607,0,1,1,5.65723-12.42089l.06445.07617a7.5,7.5,0,0,1-5.72168,12.34472Zm-54.50879-9.50488a7.50262,7.50262,0,0,1-3.79394-13.97656c.03124-.01856.14941-.08594.18164-.10449a7.50086,7.50086,0,1,1,3.6123,14.08105Zm29.04688-5.1748a7.49076,7.49076,0,0,1-1.13672-.08594l-.27832-.0459a7.49992,7.49992,0,1,1,2.60742-14.77148l-1.30371,7.38574,1.31738-7.38379a7.45858,7.45858,0,0,1,6.24414,8.53125A7.5357,7.5357,0,0,1,263.4502,244.25229Z"/></svg>