<svg xmlns="http://www.w3.org/2000/svg" data-name="Layer 1" viewBox="0 0 512 512"><line x1="421.5" x2="90.5" y1="177.328" y2="177.328" fill="none" stroke="#000" stroke-linecap="round" stroke-linejoin="round" stroke-width="15"/><rect width="391" height="497" x="60.5" y="7.5" fill="#fee27d" rx="10"/><path fill="#fff" d="M421.5,67.5v377a29.998,29.998,0,0,0-30,30h-271a29.998,29.998,0,0,0-30-30V67.5a29.998,29.998,0,0,0,30-30h271A29.998,29.998,0,0,0,421.5,67.5Z"/><path fill="#469ed6" d="M369.08887 294.51562H142.91113a7.5 7.5 0 0 1 0-15H369.08887a7.5 7.5 0 0 1 0 15zM369.08887 384.51562H142.91113a7.5 7.5 0 0 1 0-15H369.08887a7.5 7.5 0 0 1 0 15zM264.08887 429.51562H142.91113a7.5 7.5 0 0 1 0-15H264.08887a7.5 7.5 0 0 1 0 15z"/><path fill="#ed4769" d="M142.96191 339.51562a7.5 7.5 0 0 1-.05078-15h.05078a7.5 7.5 0 0 1 0 15zM340.86035 339.51562a7.53958 7.53958 0 0 1-7.54687-7.5 7.45957 7.45957 0 0 1 7.45312-7.5h.09375a7.5 7.5 0 1 1 0 15zm-28.27051 0a7.54043 7.54043 0 0 1-7.54785-7.5 7.45958 7.45958 0 0 1 7.45313-7.5h.09472a7.5 7.5 0 0 1 0 15zm-28.27148 0a7.53958 7.53958 0 0 1-7.54688-7.5 7.45875 7.45875 0 0 1 7.45215-7.5h.09473a7.5 7.5 0 0 1 0 15zm-28.27148 0a7.53958 7.53958 0 0 1-7.54688-7.5 7.45958 7.45958 0 0 1 7.45312-7.5h.09376a7.5 7.5 0 0 1 0 15zm-28.27149 0a7.53958 7.53958 0 0 1-7.54687-7.5 7.45957 7.45957 0 0 1 7.45312-7.5h.09375a7.5 7.5 0 1 1 0 15zm-28.27148 0a7.53958 7.53958 0 0 1-7.54688-7.5 7.45958 7.45958 0 0 1 7.45313-7.5h.09375a7.5 7.5 0 1 1 0 15zm-28.27149 0a7.53958 7.53958 0 0 1-7.54687-7.5 7.45957 7.45957 0 0 1 7.45312-7.5h.09375a7.5 7.5 0 0 1 0 15zM369.08887 339.51562a7.5 7.5 0 0 1-.05078-15h.05078a7.5 7.5 0 0 1 0 15z"/><rect width="331" height="15" x="90.5" y="154.5" fill="#469ed6"/><path fill="#e1e1e3" d="M342.94077,226.09346l-10.40368,32.25728a10,10,0,0,1-17.244,3.27852l-56.21225-68.42063a10,10,0,0,1,.65566-13.4191l21.73963-21.73963a10,10,0,0,1,14.97512.94522l44.8763,57.903A10,10,0,0,1,342.94077,226.09346Z"/><path fill="#e1e1e3" d="M169.10824,226.24541l10.47109,32.46627a10,10,0,0,0,17.13036,3.41434l68.92083-80.92431L229.45477,145.026l-58.57894,71.8299A10,10,0,0,0,169.10824,226.24541Z"/><path fill="#eb304a" d="M342.94077,211.09346l-10.40368,32.25728a10,10,0,0,1-17.244,3.27852l-56.21225-68.42063a10,10,0,0,1,.65566-13.4191l21.73963-21.73963a10,10,0,0,1,14.97512.94522l44.8763,57.903A10,10,0,0,1,342.94077,211.09346Z"/><path fill="#e4222e" d="M341.32764,201.89807l-44.87635-57.90295a10.00011,10.00011,0,0,0-14.97522-.94532l-5.56213,5.56226,41.298,53.286a9.99955,9.99955,0,0,1,1.61329,9.19544l-9.22583,28.60534,5.69372,6.9303a10,10,0,0,0,17.244-3.27844l10.40369-32.2572A10.00055,10.00055,0,0,0,341.32764,201.89807Z"/><path fill="#eb304a" d="M169.10824,211.24541l10.47109,32.46627a10,10,0,0,0,17.13036,3.41434l68.92083-80.92431L229.45477,130.026l-58.57894,71.8299A10,10,0,0,0,169.10824,211.24541Z"/><path fill="#ed4769" d="M260.671,171.20288a301.68165,301.68165,0,0,0,71.9347,5.90552,300.43821,300.43821,0,0,0,32.446-3.01227,14.98215,14.98215,0,0,0,12.23481-18.71345q-7.28878-27.20152-14.57753-54.403A14.99908,14.99908,0,0,0,343.90678,90.4912a197.8429,197.8429,0,0,0-30.84,12.15773,200.12939,200.12939,0,0,0-58.87024,44.39135Q257.43384,159.12158,260.671,171.20288Z"/><path fill="#eb304a" d="M377.28662,155.38269q-7.28888-27.2016-14.57764-54.40308a14.999,14.999,0,0,0-18.80224-10.4884c-4.49951,1.35156-9.22681,2.95264-14.11792,4.83276a14.93482,14.93482,0,0,1,2.92016,5.65564q7.28889,27.2016,14.57764,54.40308a14.98231,14.98231,0,0,1-12.23486,18.7135c-8.93628,1.32117-18.605,2.33472-28.91834,2.85156,8.37976.41871,17.21521.51538,26.47229.16065a300.47677,300.47677,0,0,0,32.44605-3.01221A14.98231,14.98231,0,0,0,377.28662,155.38269Z"/><path fill="#ed4769" d="M251.329,171.20288a301.68165,301.68165,0,0,1-71.9347,5.90552,300.43821,300.43821,0,0,1-32.446-3.01227,14.98215,14.98215,0,0,1-12.23481-18.71345q7.28879-27.20152,14.57753-54.403A14.99908,14.99908,0,0,1,168.09322,90.4912a197.8429,197.8429,0,0,1,30.84,12.15773,200.12939,200.12939,0,0,1,58.87024,44.39135Q254.56616,159.12158,251.329,171.20288Z"/><rect width="40" height="52" x="236" y="130" fill="#eb304a" rx="12"/><path fill="#e4222e" d="M264,130H249a12,12,0,0,1,12,12v28a12,12,0,0,1-12,12h15a12,12,0,0,0,12-12V142A12,12,0,0,0,264,130Z"/></svg>