<svg xmlns="http://www.w3.org/2000/svg" data-name="Layer 1" viewBox="0 0 512 512"><path fill="#a8d9f5" d="M289,92.05031V72.5H43V92.05031a64.23794,64.23794,0,0,1-10.78875,35.63281l-8.4225,12.63376A64.23794,64.23794,0,0,0,13,175.94969V454.49985a50,50,0,0,0,50,50H269a50,50,0,0,0,50-50V175.94969a64.23794,64.23794,0,0,0-10.78875-35.63281l-8.4225-12.63376A64.23794,64.23794,0,0,1,289,92.05031Z"/><rect width="279" height="65" x="26.5" y="7.5" fill="#8b8893" rx="15"/><polygon fill="#fee27d" points="319 180.122 319 381.902 238 381.782 13 381.432 13 179.642 319 180.122"/><path fill="#fff" d="M173.39941,330.641a7.54643,7.54643,0,1,1,1.4292-.13574l-.09814.01757A7.54163,7.54163,0,0,1,173.39941,330.641Zm-28.89111-5.0957a7.40243,7.40243,0,0,1-3.70557-.99707l-.08642-.04981a7.44667,7.44667,0,1,1,3.792,1.04688Zm54.38135-9.5918a7.49248,7.49248,0,0,1-5.7793-12.25684c.01807-.02246.1001-.12011.11817-.1416a7.50025,7.50025,0,0,1,11.45117,9.68945l-5.72559-4.84472,5.70654,4.86719A7.51954,7.51954,0,0,1,198.88965,315.95346ZM125.6084,303.058a7.50307,7.50307,0,0,1-7.0586-4.96582l7.05811-2.53613-7.06641,2.51367a7.50019,7.50019,0,0,1,14.05469-5.24121c.01221.03223.05811.1582.06983.1914A7.50576,7.50576,0,0,1,125.6084,303.058ZM209,288.37436a7.49974,7.49974,0,0,1-7.5-7.5c0-.0293,0-.0586.00049-.08789-.00049-.05371-.001-.15332-.001-.1836a7.5,7.5,0,0,1,15,0h-.00146l.00049.02246h.001v.0586c.00049.03027.00049.06054.00049.09082v.09961A7.49974,7.49974,0,0,1,209,288.37436Zm-83.44873-14.71973a7.50592,7.50592,0,0,1-7.05811-10.04c.01172-.0332.05762-.15918.06983-.1914a7.50083,7.50083,0,1,1,6.98828,10.23144Zm73.36035-13.05957a7.51607,7.51607,0,1,1,5.65723-12.4209l.06445.07617a7.5,7.5,0,0,1-5.72168,12.34473Zm-54.50342-9.50977a7.50057,7.50057,0,0,1-3.75146-13.999l3.74463,6.498-3.70606-6.52051a7.5002,7.5002,0,0,1,7.585,12.94141c-.01611.00879-.11816.06836-.13427.07714A7.467,7.467,0,0,1,144.4082,251.08529Zm29.03711-5.16992a7.60143,7.60143,0,0,1-1.11621-.083c-.07226-.01074-.2417-.03906-.31348-.05175a7.50524,7.50524,0,1,1,1.42969.13476Zm.10645-8.71289-.21387,1.19531Z"/><path fill="#83c9ee" d="M439,274.89325v-13.3934l-142.5-10,1.5,23.3934a25.60661,25.60661,0,0,1-7.5,18.10659h0a25.60661,25.60661,0,0,0-7.5,18.10659v56.53331l-45,14.14184v92.71826a30,30,0,0,0,30,30H424a30,30,0,0,0,30-30V311.10644a25.60661,25.60661,0,0,0-7.5-18.10659h0A25.60661,25.60661,0,0,1,439,274.89325Z"/><path fill="#fddd5a" d="M319,255.10165V381.9017l-81-.12012V311.10165a25.58,25.58,0,0,1,7.5-18.09985,25.62258,25.62258,0,0,0,7.5-18.11011l-1.5-23.38989Z"/><path fill="#a8d9f5" d="M454,274.89325v-13.3934H268v13.3934a25.60661,25.60661,0,0,1-7.5,18.10659h0a25.60661,25.60661,0,0,0-7.5,18.10659V323.6436l30,43.99615-30,67.78953v39.07057a30,30,0,0,0,30,30H439a30,30,0,0,0,30-30V311.10644a25.60661,25.60661,0,0,0-7.5-18.10659h0A25.60661,25.60661,0,0,1,454,274.89325Z"/><path fill="#83c9ee" d="M461.5,292.99985a25.60667,25.60667,0,0,1-7.5-18.10669V261.49985H409v13.39331a25.60667,25.60667,0,0,0,7.5,18.10669,25.60649,25.60649,0,0,1,7.5,18.10644V474.49985a29.99993,29.99993,0,0,1-30,30h45a29.99993,29.99993,0,0,0,30-30V311.10629A25.60649,25.60649,0,0,0,461.5,292.99985Z"/><rect width="219" height="35" x="251.5" y="226.5" fill="#8b8893" rx="10"/><path fill="#787681" d="M460.5,226.49985h-45a10,10,0,0,1,10,10v15a10,10,0,0,1-10,10h45a10,10,0,0,0,10-10v-15A10,10,0,0,0,460.5,226.49985Z"/><polygon fill="#fddd5a" points="454 382.145 238 381.668 238 323.644 454 324.121 454 382.145"/><polygon fill="#fee27d" points="469 435.906 253 435.429 253 323.644 469 324.121 469 435.906"/><polygon fill="#fddd5a" points="253 323.644 253 323.743 424 324.121 424 435.807 469 435.906 469 324.121 253 323.644"/></svg>