<svg xmlns="http://www.w3.org/2000/svg" data-name="Layer 1" viewBox="0 0 512 512"><polygon fill="#e4222e" points="109.5 7.5 402.5 7.5 387.5 36.395 124.5 36.395 109.5 7.5"/><polygon fill="#eb304a" points="276.21 248.167 256 277.062 235.79 248.167 85.1 32.673 107.91 7.501 256 219.271 276.21 248.167"/><polygon fill="#ed4769" points="426.9 32.673 276.21 248.167 256 277.062 235.79 248.167 256 219.271 404.09 7.501 426.9 32.673"/><polyline fill="#8b8893" points="276.21 282.098 276.21 248.167 235.79 248.167 235.79 282.098"/><path fill="#787681" d="M282.5,366.51694h-53a15.51737,15.51737,0,0,1-15.5-15.5V290.098a15.51736,15.51736,0,0,1,15.5-15.5h53a15.51736,15.51736,0,0,1,15.5,15.5v60.919A15.51737,15.51737,0,0,1,282.5,366.51694Zm-53-76.91895a.50065.50065,0,0,0-.5.5v60.919a.50065.50065,0,0,0,.5.5h53a.50065.50065,0,0,0,.5-.5V290.098a.50065.50065,0,0,0-.5-.5Z"/><path fill="#787681" d="M290.5,318.08041h-69a7.5,7.5,0,0,1,0-15h69a7.5,7.5,0,0,1,0,15Z"/><rect width="137.952" height="160.483" x="187.024" y="344.017" fill="#a8d9f5" rx="15"/><path fill="#83c9ee" d="M309.97589,344.01645h-30a15.00008,15.00008,0,0,1,15,15v130.4834a14.99992,14.99992,0,0,1-15,15h30a14.99992,14.99992,0,0,0,15-15V359.01645A15.00008,15.00008,0,0,0,309.97589,344.01645Z"/><path fill="#fff" d="M250.0157,456.06587h11.9686a38.97583,38.97583,0,0,1,38.97583,38.97583V504.5a0,0,0,0,1,0,0H211.03987a0,0,0,0,1,0,0v-9.4583A38.97583,38.97583,0,0,1,250.0157,456.06587Z"/><circle cx="256" cy="430.112" r="25.955" fill="#fff"/><path fill="#fff" d="M279.97607,381.51694H232.02393a7.5,7.5,0,0,1,0-15h47.95214a7.5,7.5,0,0,1,0,15Z"/></svg>