<svg xmlns="http://www.w3.org/2000/svg" data-name="Layer 1" viewBox="0 0 512 512"><rect width="497" height="392" x="7.5" y="60" fill="#c7ad92" rx="30"/><path fill="#b79b7b" d="M474.5,60h-45a29.99993,29.99993,0,0,1,30,30V422a29.99993,29.99993,0,0,1-30,30h45a29.99993,29.99993,0,0,0,30-30V90A29.99993,29.99993,0,0,0,474.5,60Z"/><path fill="#b79b7b" d="M37.5,60h437a30,30,0,0,1,30,30v32a60,60,0,0,1-60,60H67.5a60,60,0,0,1-60-60V90A30,30,0,0,1,37.5,60Z"/><path fill="#b28b6a" d="M474.5,60h-45a29.99993,29.99993,0,0,1,30,30v32a59.99992,59.99992,0,0,1-60,60h45a59.99984,59.99984,0,0,0,60-60V90A29.99993,29.99993,0,0,0,474.5,60Z"/><path fill="#fff" d="M342.5,128.5h-173a7.5,7.5,0,0,1,0-15h173a7.5,7.5,0,0,1,0,15Z"/><circle cx="458.5" cy="121" r="7.5" fill="#fff"/><circle cx="53.5" cy="121" r="7.5" fill="#fff"/><path fill="#fff" d="M119.57812 395.73633h-.0498a7.50069 7.50069 0 1 1 .0498 0zM142.23438 373.03027a7.5 7.5 0 0 1-5.30372-12.80371l.0752-.07519a7.50058 7.50058 0 1 1 10.60742 10.60742l-.07519.07519A7.481 7.481 0 0 1 142.23438 373.03027zm22.74609-22.74609a7.5 7.5 0 0 1-5.33692-12.76856l.07422-.07617a7.5 7.5 0 0 1 10.67578 10.53711l-.07519.07617A7.479 7.479 0 0 1 164.98047 350.28418zm22.74609-22.74609a7.5 7.5 0 0 1-5.33789-12.76856l.0752-.07617a7.5 7.5 0 1 1 10.67578 10.53711l-.0752.07617A7.479 7.479 0 0 1 187.72656 327.53809zm22.7461-22.74707A7.5 7.5 0 0 1 205.169 291.9873l.07519-.07519a7.50058 7.50058 0 0 1 10.60742 10.60742l-.07519.0752A7.481 7.481 0 0 1 210.47266 304.791zm22.74609-22.7461a7.5 7.5 0 0 1-5.30371-12.80371l.07519-.07519a7.50058 7.50058 0 0 1 10.60743 10.60742l-.0752.07519A7.481 7.481 0 0 1 233.21875 282.04492zM256.00879 259.29a7.50885 7.50885 0 0 1-5.34766-12.79492l.03516-.03516a7.513 7.513 0 1 1 5.3125 12.83008zM369.7666 373.03027a7.481 7.481 0 0 1-5.30371-2.19629l-.07617-.07617a7.50058 7.50058 0 0 1 10.60742-10.60742l.07617.07617a7.5 7.5 0 0 1-5.30371 12.80371zm-22.74609-22.74609a7.481 7.481 0 0 1-5.30371-2.19629l-.07618-.07617a7.50058 7.50058 0 0 1 10.60743-10.60742l.07617.07617a7.5 7.5 0 0 1-5.30371 12.80371zm-22.7461-22.74609a7.481 7.481 0 0 1-5.30371-2.19629l-.07617-.07618A7.50058 7.50058 0 1 1 329.502 314.6582l.07617.07618a7.5 7.5 0 0 1-5.30371 12.80371zM301.52734 304.791a7.481 7.481 0 0 1-5.30371-2.19629l-.07519-.0752a7.50058 7.50058 0 0 1 10.60742-10.60742l.07519.07519a7.5 7.5 0 0 1-5.30371 12.80372zm-22.74609-22.7461a7.481 7.481 0 0 1-5.30371-2.19629l-.0752-.07519A7.50058 7.50058 0 0 1 284.00977 269.166l.07519.07519a7.5 7.5 0 0 1-5.30371 12.80371zM392.47168 395.73633a7.50773 7.50773 0 1 1 5.26855-12.83887l.03516.03516a7.50069 7.50069 0 0 1-5.30371 12.80371zM362.19531 395.73633h-.10058a7.5 7.5 0 0 1 0-15h.10058a7.5 7.5 0 0 1 0 15zm-30.32715 0h-.10058a7.5 7.5 0 0 1 0-15h.10058a7.5 7.5 0 0 1 0 15zm-30.32714 0h-.10059a7.5 7.5 0 0 1 0-15h.10059a7.5 7.5 0 0 1 0 15zm-30.32715 0h-.10059a7.5 7.5 0 0 1 0-15h.10059a7.5 7.5 0 0 1 0 15zm-30.32715 0h-.10059a7.5 7.5 0 0 1 0-15h.10059a7.5 7.5 0 1 1 0 15zm-30.32715 0H210.459a7.5 7.5 0 0 1 0-15h.10059a7.5 7.5 0 1 1 0 15zm-30.32715 0h-.10156a7.5 7.5 0 0 1 0-15h.10156a7.5 7.5 0 0 1 0 15zm-30.32715 0h-.10156a7.5 7.5 0 1 1 0-15h.10156a7.5 7.5 0 1 1 0 15z"/></svg>