<svg xmlns="http://www.w3.org/2000/svg" data-name="Layer 1" viewBox="0 0 512 512"><path fill="#f17660" d="M185.84354,420.21718l-85.83429-86.50349,287.56008-289.802a15,15,0,0,1,21.29541,0l64.703,65.20743a15,15,0,0,1,0,21.13067Z"/><path fill="#ef6450" d="M441.74787,77.29945A14.99978,14.99978,0,0,1,441.74805,98.43L154.14686,388.27331l31.69672,31.94393L473.56785,130.24977a14.99977,14.99977,0,0,0-.00017-21.13051L408.86482,43.91162a15.02475,15.02475,0,0,0-1.65331-1.41784Z"/><path fill="#fff" d="M153.11174 341.24042a7.438 7.438 0 0 1-5.27735-2.1875l-.03515-.03515a7.481 7.481 0 1 1 5.3125 2.22265zM173.5131 320.61054a7.48252 7.48252 0 0 1-5.35742-12.71387l.06641-.06835a7.50012 7.50012 0 1 1 5.291 12.78222zm20.42676-20.585a7.48344 7.48344 0 0 1-5.32129-12.75293l.06836-.06836a7.50062 7.50062 0 1 1 5.25293 12.82129zm20.42578-20.58594a7.48343 7.48343 0 0 1-5.32129-12.75293l.06836-.06836a7.50062 7.50062 0 1 1 5.25293 12.82129zm20.42578-20.585a7.48343 7.48343 0 0 1-5.32129-12.75293l.06836-.06836a7.50062 7.50062 0 1 1 5.25293 12.82129zm20.42579-20.585a7.48252 7.48252 0 0 1-5.35743-12.71387l.06641-.06835a7.50012 7.50012 0 1 1 5.291 12.78222zM275.643 217.68378a7.48351 7.48351 0 0 1-5.3584-12.71386l.06836-.06836a7.49978 7.49978 0 1 1 5.29 12.78222zm20.42578-20.585a7.48251 7.48251 0 0 1-5.35742-12.71386l.0664-.06836a7.50013 7.50013 0 1 1 5.291 12.78222zm20.4248-20.58593a7.48261 7.48261 0 0 1-5.39453-12.67481l.06738-.06933a7.5 7.5 0 1 1 5.32715 12.74414zm20.42774-20.585A7.48343 7.48343 0 0 1 331.6 143.175l.06836-.06836a7.50062 7.50062 0 1 1 5.25293 12.82128zm20.42578-20.585A7.48343 7.48343 0 0 1 352.0258 122.59l.06836-.06836a7.50062 7.50062 0 1 1 5.25293 12.82129zM377.77287 114.757a7.48344 7.48344 0 0 1-5.32129-12.75293l.06836-.06836a7.50062 7.50062 0 1 1 5.25293 12.82129zM398.226 94.215a7.50885 7.50885 0 0 1-5.34765-12.79492l.03515-.03515A7.513 7.513 0 1 1 398.226 94.215zM414.61467 110.71406a7.51174 7.51174 0 1 1 5.249-12.8584l.05469.05469a7.5 7.5 0 0 1-5.30371 12.80371zM430.93107 127.19355a7.51129 7.51129 0 1 1 5.29492-12.84766l.03516.03516a7.5088 7.5088 0 0 1-5.33008 12.8125zM206.23674 353.65742a7.53383 7.53383 0 1 1 5.40918-2.30371l-.06739.06836A7.47659 7.47659 0 0 1 206.23674 353.65742zm20.42578-20.585a7.53383 7.53383 0 1 1 5.40918-2.30371l-.06739.06835A7.47656 7.47656 0 0 1 226.66252 333.07246zm20.42578-20.585a7.53393 7.53393 0 1 1 5.37207-2.26465l-.06836.06836A7.481 7.481 0 0 1 247.0883 312.4875zm20.42578-20.585a7.53372 7.53372 0 1 1 5.44727-2.34277l-.06739.06934A7.47659 7.47659 0 0 1 267.51408 291.90253zm20.42676-20.58593a7.53383 7.53383 0 1 1 5.40918-2.30371l-.06739.06836A7.47659 7.47659 0 0 1 287.94084 271.3166zm20.42578-20.585a7.53393 7.53393 0 1 1 5.37207-2.26465l-.06836.06836A7.481 7.481 0 0 1 308.36662 250.73164zm20.42578-20.585a7.53392 7.53392 0 1 1 5.37207-2.26464l-.06836.06836A7.481 7.481 0 0 1 328.7924 230.14667zm20.42676-20.585a7.53383 7.53383 0 1 1 5.40918-2.30371l-.06836.06836A7.47274 7.47274 0 0 1 349.21916 209.56171zm20.42578-20.58593a7.53334 7.53334 0 1 1 5.40918-2.30371l-.06738.06835A7.4766 7.4766 0 0 1 369.64494 188.97578zm20.42578-20.585a7.53393 7.53393 0 1 1 5.37207-2.26465l-.06836.06836A7.481 7.481 0 0 1 390.07072 168.39082zm20.42676-20.585a7.53432 7.53432 0 1 1 5.4082-2.30371l-.0664.06836A7.47659 7.47659 0 0 1 410.49748 147.80585zM185.84318 374.21015a7.51751 7.51751 0 1 1 5.33887-2.23144l-.03516.03515A7.481 7.481 0 0 1 185.84318 374.21015zM169.46037 357.72578a7.41738 7.41738 0 0 1-5.26367-2.18262l-.05469-.05469a7.46962 7.46962 0 1 1 5.31836 2.23731z"/><path fill="#f8b9b0" d="M475.52457,111.09122l-68.78079-69.317,13.90305-14.01144a30,30,0,0,1,42.59083,0l26.51817,26.72492a30,30,0,0,1,0,42.26134Z"/><path fill="#f38e80" d="M457.93606,64.92923,443.82785,79.14741l31.69663,31.94384L489.75587,96.749a30,30,0,0,0,0-42.26137L463.23755,27.76288a30.2197,30.2197,0,0,0-3.31292-2.882A30.00264,30.00264,0,0,1,457.93606,64.92923Z"/><polygon fill="#f8b9b0" points="79.832 473.548 47.091 440.552 100.009 333.714 185.844 420.217 79.832 473.548"/><polygon fill="#f38e80" points="100.009 333.714 99.927 333.879 154.024 388.397 48.176 441.646 79.832 473.548 185.844 420.217 100.009 333.714"/><polygon fill="#57565c" points="54.554 499.023 8.539 479.404 47.091 440.552 79.832 473.548 54.554 499.023"/></svg>