<svg xmlns="http://www.w3.org/2000/svg" data-name="Layer 1" viewBox="0 0 512 512"><rect width="382" height="497" x="65" y="7.5" fill="#f9b15e" rx="30"/><path fill="#fff" d="M105,434.50033v-357a30,30,0,0,0,30-30H377a30,30,0,0,0,30,30v357a30,30,0,0,0-30,30H135A30,30,0,0,0,105,434.50033Z"/><rect width="202" height="38" x="155" y="92.5" fill="#fdd8ae" rx="10"/><path fill="#fdd8ae" d="M357,192.50033H330.55322a7.5,7.5,0,0,1,0-15H357a7.5,7.5,0,0,1,0,15Z"/><path fill="#cae6f7" d="M256.44678,192.50033H155a7.5,7.5,0,0,1,0-15H256.44678a7.5,7.5,0,0,1,0,15Z"/><path fill="#fdd8ae" d="M357,237.50033H330.55322a7.5,7.5,0,0,1,0-15H357a7.5,7.5,0,0,1,0,15Z"/><path fill="#cae6f7" d="M256.44678,237.50033H155a7.5,7.5,0,0,1,0-15H256.44678a7.5,7.5,0,0,1,0,15Z"/><path fill="#fdd8ae" d="M357,282.50033H330.55322a7.5,7.5,0,0,1,0-15H357a7.5,7.5,0,0,1,0,15Z"/><path fill="#cae6f7" d="M256.44678,282.50033H155a7.5,7.5,0,0,1,0-15H256.44678a7.5,7.5,0,0,1,0,15Z"/><path fill="#fdd8ae" d="M357,327.50033H330.55322a7.5,7.5,0,0,1,0-15H357a7.5,7.5,0,0,1,0,15Z"/><path fill="#cae6f7" d="M256.44678,327.50033H155a7.5,7.5,0,0,1,0-15H256.44678a7.5,7.5,0,0,1,0,15Z"/><path fill="#fdd8ae" d="M357,372.50033H330.55322a7.5,7.5,0,0,1,0-15H357a7.5,7.5,0,0,1,0,15Z"/><path fill="#cae6f7" d="M256.44678 372.50033H155a7.5 7.5 0 0 1 0-15H256.44678a7.5 7.5 0 0 1 0 15zM357 427.00033H155a7.5 7.5 0 0 1 0-15H357a7.5 7.5 0 0 1 0 15z"/></svg>