<svg xmlns="http://www.w3.org/2000/svg" data-name="Layer 1" viewBox="0 0 512 512"><path fill="#fee27d" d="M7.5,60.68256H381.73746a0,0,0,0,1,0,0V444.5a60,60,0,0,1-60,60H67.5a60,60,0,0,1-60-60V60.68256a0,0,0,0,1,0,0Z"/><path fill="#fed947" d="M336.73749,60.68256V444.5a60,60,0,0,1-60,60h45a60,60,0,0,0,60-60V60.68256Z"/><path fill="#fed030" d="M504.5,129.07v183.3a15.99017,15.99017,0,0,1-7.26,13.41l-115.5,75.26V329.05l74.87-45.4V162.67H381.74v-49.6h106.8A15.9871,15.9871,0,0,1,504.5,129.07Z"/><path fill="#fff" d="M333.84668 397.81348a7.507 7.507 0 0 1-3.12158-14.34229 7.49534 7.49534 0 0 1 10.62158 6.792v.0503A7.50006 7.50006 0 0 1 333.84668 397.81348zM302.95947 397.81348h-.103a7.5 7.5 0 0 1 0-15h.103a7.5 7.5 0 0 1 0 15zm-30.93994 0H271.917a7.5 7.5 0 1 1 0-15h.10254a7.5 7.5 0 1 1 0 15zm-30.93994 0h-.10254a7.5 7.5 0 1 1 0-15h.10254a7.5 7.5 0 1 1 0 15zm-30.93945 0h-.103a7.5 7.5 0 1 1 0-15h.103a7.5 7.5 0 0 1 0 15zm-30.93994 0h-.103a7.5 7.5 0 0 1 0-15h.103a7.5 7.5 0 0 1 0 15zm-30.93995 0h-.103a7.5 7.5 0 0 1 0-15h.103a7.5 7.5 0 1 1 0 15zm-30.93994 0h-.10254a7.5 7.5 0 1 1 0-15h.10254a7.5 7.5 0 0 1 0 15zm-30.93994 0h-.10254a7.5 7.5 0 0 1 0-15h.10254a7.5 7.5 0 0 1 0 15zM55.44092 397.81348h-.0503a7.50025 7.50025 0 1 1 .0503 0zM55.39062 367.0874a7.50006 7.50006 0 0 1-7.5-7.5v-.10205a7.5 7.5 0 0 1 15 0v.10205A7.50006 7.50006 0 0 1 55.39062 367.0874zm0-30.77783a7.50006 7.50006 0 0 1-7.5-7.5V328.707a7.5 7.5 0 0 1 15 0v.10254A7.50006 7.50006 0 0 1 55.39062 336.30957zm0-30.77832a7.50006 7.50006 0 0 1-7.5-7.5v-.10205a7.5 7.5 0 0 1 15 0v.10205A7.50006 7.50006 0 0 1 55.39062 305.53125zm0-30.77783a7.50006 7.50006 0 0 1-7.5-7.5v-.10254a7.5 7.5 0 0 1 15 0v.10254A7.50006 7.50006 0 0 1 55.39062 274.75342zm0-30.77832a7.50006 7.50006 0 0 1-7.5-7.5v-.102a7.5 7.5 0 0 1 15 0v.102A7.50006 7.50006 0 0 1 55.39062 243.9751zm0-30.77783a7.50006 7.50006 0 0 1-7.5-7.5v-.10254a7.5 7.5 0 0 1 15 0v.10254A7.50006 7.50006 0 0 1 55.39062 213.19727zM55.39062 182.394a7.47884 7.47884 0 0 1-7.5-7.47509v-.04981a7.49613 7.49613 0 1 1 7.5 7.5249zM302.95947 182.36914h-.10254a7.5 7.5 0 0 1 0-15h.10254a7.5 7.5 0 0 1 0 15zm-30.93994 0H271.917a7.5 7.5 0 0 1 0-15h.10254a7.5 7.5 0 0 1 0 15zm-30.93945 0h-.103a7.5 7.5 0 0 1 0-15h.103a7.5 7.5 0 0 1 0 15zm-30.93994 0h-.103a7.5 7.5 0 0 1 0-15h.103a7.5 7.5 0 0 1 0 15zm-30.93994 0h-.103a7.5 7.5 0 0 1 0-15h.103a7.5 7.5 0 0 1 0 15zm-30.93995 0h-.10254a7.5 7.5 0 0 1 0-15h.10254a7.5 7.5 0 0 1 0 15zm-30.93994 0h-.10254a7.5 7.5 0 0 1 0-15h.10254a7.5 7.5 0 0 1 0 15zm-30.93945 0h-.103a7.5 7.5 0 0 1 0-15h.103a7.5 7.5 0 1 1 0 15zM333.84668 182.394a7.5125 7.5125 0 0 1-.0498-15.0249h.0498a7.51246 7.51246 0 0 1 0 15.0249zM333.84668 367.08789a7.50006 7.50006 0 0 1-7.5-7.5v-.10254a7.5 7.5 0 0 1 15 0v.10254A7.50006 7.50006 0 0 1 333.84668 367.08789zm0-30.77832a7.50006 7.50006 0 0 1-7.5-7.5v-.10205a7.5 7.5 0 0 1 15 0v.10205A7.50006 7.50006 0 0 1 333.84668 336.30957zm0-30.77783a7.50006 7.50006 0 0 1-7.5-7.5v-.10254a7.5 7.5 0 1 1 15 0v.10254A7.50006 7.50006 0 0 1 333.84668 305.53174zm0-30.77832a7.50006 7.50006 0 0 1-7.5-7.5v-.10205a7.5 7.5 0 1 1 15 0v.10205A7.50006 7.50006 0 0 1 333.84668 274.75342zm0-30.77783a7.50006 7.50006 0 0 1-7.5-7.5v-.10254a7.5 7.5 0 0 1 15 0v.10254A7.50006 7.50006 0 0 1 333.84668 243.97559zm0-30.77832a7.50006 7.50006 0 0 1-7.5-7.5v-.10206a7.5 7.5 0 0 1 15 0v.10206A7.50006 7.50006 0 0 1 333.84668 213.19727z"/></svg>