<svg xmlns="http://www.w3.org/2000/svg" data-name="Layer 1" viewBox="0 0 512 512"><path fill="#c8c5cc" d="M104.79224,289.17053c6.1748,22.13312,18.23608,77.27057-4.00245,139.8888a226.63019,226.63019,0,0,1-44.98632,75.37854c13.39062-4.97925,44.97924-20.63269,44.97924-20.63269L116.60815,504.5l20.48829-16.5683L147.31323,504.5l23.20825-14.91766L189.98633,504.5a235.75776,235.75776,0,0,0,20.09228-49.41772,235.733,235.733,0,0,0,8.31494-49.83393"/><circle cx="297.621" cy="214.379" r="206.879" fill="#dadadc"/><path fill="#c8c5cc" d="M297.62109,7.5a209.11149,209.11149,0,0,0-22.5,1.22217C378.7915,19.93677,459.5,107.72693,459.5,214.379s-80.7085,194.4422-184.37891,205.6568a209.11149,209.11149,0,0,0,22.5,1.22217C411.877,421.258,504.5,328.63513,504.5,214.379S411.877,7.5,297.62109,7.5Z"/><circle cx="297.621" cy="214.379" r="133.169" fill="#aeadb3"/><circle cx="297.621" cy="214.379" r="103.685" fill="#fff"/><path fill="#e1e1e3" d="M297.62109,110.69379a103.64961,103.64961,0,0,0-22.5,2.46606,103.69106,103.69106,0,0,1,0,202.43829,103.68727,103.68727,0,1,0,22.5-204.90435Z"/></svg>