<svg xmlns="http://www.w3.org/2000/svg" data-name="Layer 1" viewBox="0 0 512 512"><polygon fill="#8b8893" points="117.438 405.841 70.574 405.841 55.617 173.038 132.395 173.038 117.438 405.841"/><path fill="#fee27d" d="M117.38,459.62167l-15.87,30.48-7.5,14.40015-7.5-14.36011-15.93994-30.52a48.55775,48.55775,0,0,0,8.23-28.76,48.24432,48.24432,0,0,0-8.23-25.02H117.38a48.28456,48.28456,0,0,0,0,53.78Z"/><path fill="#fed947" d="M101.51,455.17172v34.92993l-7.5,14.40015-7.5-14.36011v-34.97a7.5,7.5,0,0,1,15,0Z"/><path fill="#aeadb3" d="M122.23,202.95151H65.78a14.95,14.95,0,0,1-14.91-16.09986L61.62,46.23178,62.77,31.3016l.76-9.98A14.9638,14.9638,0,0,1,78.45,7.5018h31.11011A14.96381,14.96381,0,0,1,124.48,21.32162l.76,9.98,1.15,15,10.76,140.55005A14.96361,14.96361,0,0,1,122.23,202.95151Z"/><path fill="#e1e1e3" d="M162.55005,146.43173c-.17005.01-.34009.01-.51.01a7.49826,7.49826,0,0,1-7.48-7l-5.78-86.18018a7.47878,7.47878,0,0,0-7.43994-6.96H62.6a6.39488,6.39488,0,0,1-.98-.06982L62.77,31.3016h78.57007a22.51648,22.51648,0,0,1,22.40991,20.96l5.78,86.18018A7.51382,7.51382,0,0,1,162.55005,146.43173Z"/><path fill="#fff" d="M94.00586 184.50131a7.479 7.479 0 0 1-7.5-7.47559v-.04882a7.5 7.5 0 1 1 7.5 7.52441zM94.00586 155.85483a7.45905 7.45905 0 0 1-7.5-7.45215V148.307a7.50015 7.50015 0 1 1 7.5 7.54786zm0-28.66895a7.45905 7.45905 0 0 1-7.5-7.45215V119.639a7.50015 7.50015 0 1 1 7.5 7.54687zm0-28.66894a7.45906 7.45906 0 0 1-7.5-7.45215v-.09473a7.50015 7.50015 0 1 1 7.5 7.54688zM94.00586 69.8724a7.47894 7.47894 0 0 1-7.5-7.47558V62.347a7.5 7.5 0 1 1 7.5 7.52539z"/><polygon fill="#8b8893" points="267.255 405.84 220.391 405.84 205.434 173.037 282.212 173.037 267.255 405.84"/><path fill="#fee27d" d="M267.197,459.62111l-15.87,30.48-7.5,14.40014-7.5-14.3601-15.93994-30.52a47.86828,47.86828,0,0,0,0-53.78H267.197a48.28456,48.28456,0,0,0,0,53.78Z"/><path fill="#fed947" d="M251.327,455.17115v34.92994l-7.5,14.40014-7.5-14.3601v-34.97a7.5,7.5,0,0,1,15,0Z"/><path fill="#aeadb3" d="M280.453,200.37167a14.84814,14.84814,0,0,1-8.40015,2.57984h-56.46A14.94952,14.94952,0,0,1,200.683,186.85165l10.76-140.61987,1.1499-14.93018.76-9.99a14.94653,14.94653,0,0,1,14.91-13.80981h31.12a14.94615,14.94615,0,0,1,14.90991,13.80981l.76,9.99,1.15015,15L286.9629,186.85165A14.96785,14.96785,0,0,1,280.453,200.37167Z"/><path fill="#e1e1e3" d="M312.36292,146.42172a4.3446,4.3446,0,0,1-.51.02,7.48912,7.48912,0,0,1-7.47-7l-5.79-86.18018a7.46949,7.46949,0,0,0-7.42993-6.96h-78.75a6.26409,6.26409,0,0,1-.97-.06982l1.1499-14.93018H291.163a22.51293,22.51293,0,0,1,22.3999,20.9502l5.78,86.18994A7.49183,7.49183,0,0,1,312.36292,146.42172Z"/><path fill="#fff" d="M243.82285 184.50074a7.47894 7.47894 0 0 1-7.5-7.47558v-.04883a7.5 7.5 0 1 1 7.5 7.52441zM243.82288 83.47152a7.50288 7.50288 0 0 0-7.5 7.5v.09009a7.45377 7.45377 0 0 0 7.5 7.45 7.52 7.52 0 0 0 0-15.04zm0 28.67017a7.49631 7.49631 0 0 0-7.5 7.5v.09009a7.4603 7.4603 0 0 0 7.5 7.45 7.52 7.52 0 0 0 0-15.04zm0 28.65991a7.50288 7.50288 0 0 0-7.5 7.5v.1001a7.4603 7.4603 0 0 0 7.5 7.45 7.52507 7.52507 0 0 0 0-15.05zM243.82285 69.87184a7.479 7.479 0 0 1-7.5-7.47559v-.0498a7.5 7.5 0 1 1 7.5 7.52539z"/><polygon fill="#8b8893" points="416.255 405.84 369.391 405.84 354.434 173.037 431.212 173.037 416.255 405.84"/><path fill="#fee27d" d="M416.197,459.62111l-15.87,30.48-7.5,14.40014-7.5-14.3601-15.93994-30.52a47.86828,47.86828,0,0,0,0-53.78H416.197a48.28456,48.28456,0,0,0,0,53.78Z"/><path fill="#fed947" d="M400.327,455.17115v34.92994l-7.5,14.40014-7.5-14.3601v-34.97a7.5,7.5,0,0,1,15,0Z"/><path fill="#aeadb3" d="M429.453,200.37167a14.84814,14.84814,0,0,1-8.40015,2.57984h-56.46A14.94952,14.94952,0,0,1,349.683,186.85165l10.76-140.61987,1.1499-14.93018.76-9.99a14.94653,14.94653,0,0,1,14.91-13.80981h31.12a14.94615,14.94615,0,0,1,14.90991,13.80981l.76,9.99,1.15015,15L435.9629,186.85165A14.96785,14.96785,0,0,1,429.453,200.37167Z"/><path fill="#e1e1e3" d="M461.36292,146.42172a4.3446,4.3446,0,0,1-.51.02,7.48912,7.48912,0,0,1-7.47-7l-5.79-86.18018a7.46949,7.46949,0,0,0-7.42993-6.96h-78.75a6.26409,6.26409,0,0,1-.97-.06982l1.1499-14.93018H440.163a22.51293,22.51293,0,0,1,22.3999,20.9502l5.78,86.18994A7.49183,7.49183,0,0,1,461.36292,146.42172Z"/><path fill="#fff" d="M392.82285 184.50074a7.47894 7.47894 0 0 1-7.5-7.47558v-.04883a7.5 7.5 0 1 1 7.5 7.52441zM392.82288 83.47152a7.50288 7.50288 0 0 0-7.5 7.5v.09009a7.45377 7.45377 0 0 0 7.5 7.45 7.52 7.52 0 0 0 0-15.04zm0 28.67017a7.49631 7.49631 0 0 0-7.5 7.5v.09009a7.4603 7.4603 0 0 0 7.5 7.45 7.52 7.52 0 0 0 0-15.04zm0 28.65991a7.50288 7.50288 0 0 0-7.5 7.5v.1001a7.4603 7.4603 0 0 0 7.5 7.45 7.52507 7.52507 0 0 0 0-15.05zM392.82285 69.87184a7.479 7.479 0 0 1-7.5-7.47559v-.0498a7.5 7.5 0 1 1 7.5 7.52539z"/></svg>