<svg xmlns="http://www.w3.org/2000/svg" data-name="Layer 1" viewBox="0 0 512 512"><path fill="#a8d9f5" d="M437,163.49985v-136a20,20,0,0,0-20-20H385.5a20,20,0,0,0-20,20v106a30,30,0,0,1-30,30h-159a30,30,0,0,1-30-30v-106a20,20,0,0,0-20-20H95a20,20,0,0,0-20,20v447a30,30,0,0,0,30,30H407a30,30,0,0,0,30-30v-311Z"/><path fill="#83c9ee" d="M101.5 27.49985v106a29.99993 29.99993 0 0 0 30 30h45a29.99993 29.99993 0 0 1-30-30v-106a20.00005 20.00005 0 0 0-20-20H95a19.9162 19.9162 0 0 0-6.75 1.19287A19.98946 19.98946 0 0 1 101.5 27.49985zM417 7.49985H385.5a19.9162 19.9162 0 0 0-6.75 1.19287A19.98946 19.98946 0 0 1 392 27.49985v447a29.99993 29.99993 0 0 1-30 30h45a29.99993 29.99993 0 0 0 30-30v-447A20.00005 20.00005 0 0 0 417 7.49985z"/><path fill="#fff" d="M357,437.00033h-.09961a7.5,7.5,0,1,1,.09961,0Zm-30.09961,0h-.10059a7.5,7.5,0,0,1,0-15h.10059a7.5,7.5,0,0,1,0,15Zm-30.10059,0h-.0996a7.5,7.5,0,1,1,.0996,0Zm-30.0996,0h-.10059a7.5,7.5,0,0,1,0-15h.10059a7.5,7.5,0,0,1,0,15Zm-30.10059,0H236.5a7.5,7.5,0,1,1,.09961,0Zm-30.09961,0h-.09961a7.5,7.5,0,1,1,.09961,0Zm-30.09961,0h-.10059a7.5,7.5,0,0,1,0-15h.10059a7.5,7.5,0,0,1,0,15Zm-29.82227-1.85351a7.49331,7.49331,0,0,1-3.09374-.66895c-.03028-.01367-.10645-.04785-.13575-.0625a7.49965,7.49965,0,1,1,6.21875-13.64941c.03028.01367.10645.04785.13574.0625a7.49535,7.49535,0,0,1-3.125,14.31836Zm228.63282-9.90625a7.49759,7.49759,0,0,1-6.86231-10.48438l.07715-.17285a7.49971,7.49971,0,1,1,13.66992,6.17383l-6.835-3.08691,6.82422,3.1123A7.53679,7.53679,0,0,1,375.21094,425.24057ZM135,409.57651a7.45709,7.45709,0,0,1-7.5-7.4502v-.09961a7.50016,7.50016,0,1,1,7.5,7.54981ZM377,395.4183a7.52494,7.52494,0,1,1,7.5-7.59961v.09961A7.49943,7.49943,0,0,1,377,395.4183ZM135,379.5267a7.49943,7.49943,0,0,1-7.5-7.5v-.10059a7.5,7.5,0,0,1,15,0v.10059A7.49943,7.49943,0,0,1,135,379.5267Zm242-14.208a7.49943,7.49943,0,0,1-7.5-7.5v-.10058a7.5,7.5,0,0,1,15,0v.10058A7.49943,7.49943,0,0,1,377,365.31869ZM135,349.37631a7.45709,7.45709,0,0,1-7.5-7.4502v-.0996a7.50016,7.50016,0,1,1,7.5,7.5498Zm242-14.1582a7.52495,7.52495,0,1,1,7.5-7.59961v.09961A7.49943,7.49943,0,0,1,377,335.21811ZM135,319.2767a7.45709,7.45709,0,0,1-7.5-7.45019v-.09961a7.50016,7.50016,0,1,1,7.5,7.5498Zm242-14.1582a7.49943,7.49943,0,0,1-7.5-7.5v-.10059a7.5,7.5,0,0,1,15,0v.10059A7.49943,7.49943,0,0,1,377,305.1185ZM135,289.2269a7.49944,7.49944,0,0,1-7.5-7.5v-.10059a7.5,7.5,0,0,1,15,0v.10059A7.49944,7.49944,0,0,1,135,289.2269Zm242-14.209a7.52494,7.52494,0,1,1,7.5-7.59961v.09961A7.49943,7.49943,0,0,1,377,275.01791ZM135.58984,259.16635a7.50566,7.50566,0,0,1-7.293-9.25684c.0166-.06933.05859-.23535.07812-.30371a7.5009,7.5009,0,1,1,7.21484,9.56055Zm233.01465-11.46973a7.53537,7.53537,0,0,1-4.24121-1.30371l-.23047-.16113a7.49968,7.49968,0,0,1,8.71875-12.20508l-4.35937,6.10254,4.37109-6.09473a7.48623,7.48623,0,0,1-4.25879,13.66211Zm-29.3584-3.69629h-.10058a7.5,7.5,0,0,1,0-15h.10058a7.5,7.5,0,0,1,0,15Zm-30.10058,0a7.5421,7.5421,0,0,1-7.54981-7.5,7.4571,7.4571,0,0,1,7.4502-7.5h.09961a7.5,7.5,0,0,1,0,15Zm-30.09961,0h-.10059a7.5,7.5,0,0,1,0-15h.10059a7.5,7.5,0,0,1,0,15Zm-30.10059,0a7.5421,7.5421,0,0,1-7.5498-7.5,7.45709,7.45709,0,0,1,7.45019-7.5h.09961a7.5,7.5,0,0,1,0,15Zm-30.09961,0a7.5421,7.5421,0,0,1-7.5498-7.5,7.45709,7.45709,0,0,1,7.45019-7.5h.09961a7.5,7.5,0,0,1,0,15Zm-30.09961,0h-.10058a7.5,7.5,0,0,1,0-15h.10058a7.5,7.5,0,0,1,0,15Zm-30.10058,0a7.5421,7.5421,0,0,1-7.54981-7.5,7.4571,7.4571,0,0,1,7.4502-7.5h.09961a7.5,7.5,0,0,1,0,15Z"/></svg>