<svg xmlns="http://www.w3.org/2000/svg" data-name="Layer 1" viewBox="0 0 512 512"><path fill="#aeadb3" d="M141,55.5H371a30,30,0,0,1,30,30v105a0,0,0,0,1,0,0H111a0,0,0,0,1,0,0V85.5A30,30,0,0,1,141,55.5Z"/><rect width="497" height="235" x="7.5" y="176" fill="#8b8893" rx="30"/><path fill="#787681" d="M474.5,176h-45a29.99808,29.99808,0,0,1,30,30V381a29.99808,29.99808,0,0,1-30,30h45a29.99808,29.99808,0,0,0,30-30V206A29.99808,29.99808,0,0,0,474.5,176Z"/><circle cx="452" cy="228.5" r="17.5" fill="#fff"/><path fill="#aeadb3" d="M134.5,315.5h243a30,30,0,0,1,30,30V411a0,0,0,0,1,0,0h-303a0,0,0,0,1,0,0V345.5A30,30,0,0,1,134.5,315.5Z"/><path fill="#e6edbf" d="M360.768,504.5H151.232a15,15,0,0,1-14.91089-16.63258L149.5,367.5h213l13.17891,120.36742A15,15,0,0,1,360.768,504.5Z"/><path fill="#fff" d="M317.5 413.5h-123a7.5 7.5 0 0 1 0-15h123a7.5 7.5 0 0 1 0 15zM317.5 443.5h-123a7.5 7.5 0 0 1 0-15h123a7.5 7.5 0 0 1 0 15zM317.5 473.5h-123a7.5 7.5 0 0 1 0-15h123a7.5 7.5 0 0 1 0 15z"/><path fill="#e6edbf" d="M175.22989,7.5H336.77011a15,15,0,0,1,15,15V176a0,0,0,0,1,0,0H160.22989a0,0,0,0,1,0,0V22.5a15,15,0,0,1,15-15Z"/><path fill="#d4e49b" d="M336.77008,7.5h-45a15,15,0,0,1,15,15V176h45V22.5A15,15,0,0,0,336.77008,7.5Z"/><path fill="#fff" d="M351.77,236H160.23a7.5,7.5,0,0,1,0-15H351.77a7.5,7.5,0,0,1,0,15Z"/><rect width="497" height="15" x="7.5" y="273.5" fill="#fff"/></svg>