<svg xmlns="http://www.w3.org/2000/svg" data-name="Layer 1" viewBox="0 0 512 512"><circle cx="154.5" cy="342.5" r="147" fill="#7dc7a2"/><circle cx="357.5" cy="342.5" r="147" fill="#469ed6"/><circle cx="256" cy="169.5" r="147" fill="#ed4769"/><path fill="#227fc0" d="M301.5,342.5A146.5849,146.5849,0,0,1,256,448.84a147.28848,147.28848,0,0,1-41.99-138.42,148.03478,148.03478,0,0,0,83.98,0A147.4354,147.4354,0,0,1,301.5,342.5Z"/><path fill="#eb304a" d="M399.49,201.58a147.24434,147.24434,0,0,1-101.5,108.84,146.81305,146.81305,0,0,0-41.99-74.26A147.28874,147.28874,0,0,1,399.49,201.58Z"/><path fill="#56bc8d" d="M256,236.15991a146.81305,146.81305,0,0,0-41.99,74.26,147.24434,147.24434,0,0,1-101.5-108.84A147.28874,147.28874,0,0,1,256,236.15991Z"/><path fill="#e1e1e3" d="M297.99,310.41992a148.03478,148.03478,0,0,1-83.98,0,146.81305,146.81305,0,0,1,41.99-74.26A146.81305,146.81305,0,0,1,297.99,310.41992Z"/><path fill="#fff" d="M230.34961 77.27637a4.62779 4.62779 0 0 1 4.78906-4.56055H257.71c14.93359 0 27.01758 5.7002 27.01758 23.82617 0 13.10938-6.38379 20.17774-14.93457 22.79981L284.72754 147.043a3.082 3.082 0 0 1 .56934 1.82422c0 3.76172-4.90137 7.75195-9.2334 7.75195a5.83115 5.83115 0 0 1-5.12989-3.53418l-16.1875-31.46387h-9.57617V151.375c0 3.07812-3.64844 4.67383-7.41015 4.67383-3.64747 0-7.41016-1.59571-7.41016-4.67383zm14.82031 8.43554v24.28125h12.54c7.40918 0 12.19824-3.07812 12.19824-12.084S265.11914 85.71191 257.71 85.71191zM118.57031 324.0459c-7.63867 0-11.9707 4.21777-11.9707 13.10937v31.80567c0 8.89258 4.332 13.11035 11.85644 13.11035 7.41016 0 11.96973-4.21777 11.96973-13.11035v-6.72559h-9.23437c-2.96289 0-4.5586-2.84961-4.5586-5.81445 0-2.84961 1.59571-5.81348 4.5586-5.81348h19.38086a4.57772 4.57772 0 0 1 4.67382 4.78809v13.56543c0 19.03808-11.74218 26.10547-26.79 26.10547S91.78027 387.999 91.78027 368.96094V337.15527c0-19.03711 11.74219-26.10547 26.21973-26.10547 15.73242 0 27.24609 8.208 27.24609 21.8877 0 5.7002-2.50781 7.06836-7.41015 7.06836-3.99024 0-7.2959-1.14063-7.41016-4.67383C130.084 329.97363 128.25977 324.0459 118.57031 324.0459zM377.80664 315.72363c0-3.07812 3.19141-4.67383 6.498-4.67383h22.001c11.85645 0 22.91407 3.876 22.91407 20.06348 0 9.34863-3.64746 15.50391-9.68946 18.126 6.95313 2.73633 11.74121 7.18164 11.74121 18.582v2.39355c0 17.78418-9.918 24.168-22.7998 24.168h-24.167c-3.99024 0-6.498-2.166-6.498-4.55957zm14.70606 27.70215h12.76757c6.15528 0 9.12012-3.99023 9.12012-9.80371 0-5.92871-3.41992-9.57617-9.23437-9.57617H392.5127zm12.88183 37.96094c6.95313 0 11.05762-3.76172 11.05762-12.42578v-1.82422c0-8.8916-4.10449-12.083-11.05762-12.083H392.5127v26.333z"/></svg>