<svg xmlns="http://www.w3.org/2000/svg" data-name="Layer 1" viewBox="0 0 512 512"><rect width="63" height="95.664" x="224.5" y="231.336" fill="#e1e1e3"/><rect width="30" height="95.664" x="257.5" y="231.336" fill="#dadadc"/><path fill="#c8c5cc" d="M217,279h78a15,15,0,0,1,15,15v78a0,0,0,0,1,0,0H202a0,0,0,0,1,0,0V294A15,15,0,0,1,217,279Z"/><path fill="#aeadb3" d="M295,279H265a15.00012,15.00012,0,0,1,15,15v78h30V294A15.00012,15.00012,0,0,0,295,279Z"/><path fill="#469ed6" d="M344.82007,93.58984l-19.19995,125.02a15,15,0,0,1-14.82007,12.73H201.2a15,15,0,0,1-14.82007-12.73l-19.19995-125.02A49.93816,49.93816,0,0,1,216.6001,36h78.7998a49.94254,49.94254,0,0,1,49.42017,57.58984Z"/><path fill="#227fc0" d="M344.91992,78.97A50.02658,50.02658,0,0,0,295.3999,36h-45a49.94254,49.94254,0,0,1,49.42017,57.58984l-19.19995,125.02a15,15,0,0,1-14.82007,12.73h45a15,15,0,0,0,14.82007-12.73l19.2-125.02A49.7969,49.7969,0,0,0,344.91992,78.97Z"/><path fill="#e1e1e3" d="M485.21,432H26.79a15.00354,15.00354,0,0,1-14.54-18.69995L22.5,373l226.03-58.08008a29.99632,29.99632,0,0,1,14.93994,0L489.5,373l.29,1.12012,9.96,39.17993A15.00354,15.00354,0,0,1,485.21,432Z"/><path fill="#dadadc" d="M499.75,413.30005l-9.96-39.17993L489.5,373,263.47,314.91992a29.99632,29.99632,0,0,0-14.93994,0l-32.37109,8.31787a29.99029,29.99029,0,0,1,4.10815.7461l226.03,58.08007.29,1.12012,9.96,39.18018A14.86278,14.86278,0,0,1,455.76782,432H485.21A15.00354,15.00354,0,0,0,499.75,413.30005Z"/><path fill="#8b8893" d="M22.5,432h467a0,0,0,0,1,0,0v14a30,30,0,0,1-30,30H52.5a30,30,0,0,1-30-30V432a0,0,0,0,1,0,0Z"/><path fill="#787681" d="M444.5,432v14a29.99993,29.99993,0,0,1-30,30h45a29.99993,29.99993,0,0,0,30-30V432Z"/><path fill="#227fc0" d="M344.91992,78.97,344.5,79h-177l-.40991-.10986A50.02783,50.02783,0,0,1,216.6001,36h78.7998A50.02658,50.02658,0,0,1,344.91992,78.97Z"/><path fill="#2370b5" d="M295.3999,36h-45a50.02658,50.02658,0,0,1,49.52,42.97L299.5,79h45l.41992-.03A50.02658,50.02658,0,0,0,295.3999,36Z"/><path fill="#c8c5cc" d="M485.21,432H26.79a15.00354,15.00354,0,0,1-14.54-18.69995L22.5,373H487.75l2.04,1.12012,9.96,39.17993A15.00354,15.00354,0,0,1,485.21,432Z"/><path fill="#aeadb3" d="M499.75,413.30005l-9.96-39.17993L487.75,373h-45l2.04,1.12012,9.96,39.17993A15.00354,15.00354,0,0,1,440.21,432h45A15.00354,15.00354,0,0,0,499.75,413.30005Z"/></svg>