<svg xmlns="http://www.w3.org/2000/svg" data-name="Layer 1" viewBox="0 0 512 512"><path fill="#c8c5cc" d="M360.865,60.16147a56.3738,56.3738,0,0,1-4.17,21.25l-66.64,164.16015-52.34,128.97022-5.37,13.21972-25.24,62.18018-.07-.03027a91.76165,91.76165,0,1,1-167.36-75.29981c19.82995-42.71,69.77-63.50976,114.26-47.62988a91.65022,91.65022,0,0,1,33.18,20.60986l14.46-35.62988,5.37-13.22022,52.35-128.9497,65.88-162.29A56.79087,56.79087,0,0,1,360.865,60.16147Z"/><path fill="#f9b15e" d="M88.60514,497.8199a91.98779,91.98779,0,0,0,118.43-47.91016l.07.03027,25.24-62.18017-30.77-75.79981-14.46,35.62989a91.65032,91.65032,0,0,0-33.18-20.60987C109.4451,311.10017,59.5051,331.9,39.67515,374.60994A91.25967,91.25967,0,0,0,88.60514,497.8199Z"/><ellipse cx="123.009" cy="413.06" fill="#fff" rx="34.8" ry="34.636"/><polygon fill="#aeadb3" points="297.551 229.016 245.211 357.987 214.441 282.186 266.791 153.237 297.551 229.016"/><path fill="#c8c5cc" d="M423.395,497.82162a91.98778,91.98778,0,0,1-118.43-47.91015l-.07.03027-25.24-62.18018-5.36-13.21-52.35-128.98L155.305,81.41147A56.58956,56.58956,0,0,1,186.825,7.5018l65.88,162.29,52.35,128.9497,5.37,13.22022,14.46,35.62988a91.65022,91.65022,0,0,1,33.18-20.60986c44.49-15.87988,94.43006,4.91992,114.26,47.62988A91.25967,91.25967,0,0,1,423.395,497.82162Z"/><path fill="#f9b15e" d="M423.39306,497.8199a91.9878,91.9878,0,0,1-118.43-47.91016l-.07.03027-25.24-62.18017,30.77-75.79981,14.46,35.62989a91.65024,91.65024,0,0,1,33.18-20.60987c44.49-15.87988,94.43005,4.91993,114.26,47.62989A91.25968,91.25968,0,0,1,423.39306,497.8199Z"/><path fill="#f9a242" d="M472.323 374.60971c-18.61646-40.09619-63.77-60.87744-106.03858-50.13233A91.21875 91.21875 0 0 1 378.393 497.81967a92.87644 92.87644 0 0 1-11.89148 3.87256A91.65141 91.65141 0 0 0 472.323 374.60971zM205.89883 374.60971c-18.45367-40.17139-63.77-60.87744-106.03859-50.13233a91.21875 91.21875 0 0 1 12.10859 173.34229 92.87644 92.87644 0 0 1-11.89148 3.87256 92.28071 92.28071 0 0 0 56.89149-3.87256A91.17649 91.17649 0 0 0 205.89883 374.60971z"/><ellipse cx="388.989" cy="413.06" fill="#fff" rx="34.8" ry="34.636"/><path fill="#e1e1e3" d="M421.25534 400.08481A34.88762 34.88762 0 0 0 378.8 379.95a34.56946 34.56946 0 0 1 2.89044 65.22412c-.94226.37891-1.8927.7041-2.8468.99561a34.71136 34.71136 0 0 0 42.41168-46.085zM156.09532 400.08481A34.88762 34.88762 0 0 0 113.64 379.95a34.56947 34.56947 0 0 1 2.89044 65.22412c-.94226.37891-1.8927.7041-2.8468.99561a34.71137 34.71137 0 0 0 42.41168-46.085z"/><circle cx="264.653" cy="275.11" r="7.5" fill="#fff"/></svg>