<svg xmlns="http://www.w3.org/2000/svg" data-name="Layer 1" viewBox="0 0 512 512"><path fill="#f17660" d="M459.5,504.5H207.96a30.001,30.001,0,0,1-29.74-33.93994L217.58,173.18994A10.00589,10.00589,0,0,1,227.49,164.5H439.96a10.00847,10.00847,0,0,1,9.92,8.68994L459.65,247l1.98,15,27.61,208.56006A30.00642,30.00642,0,0,1,459.5,504.5Z"/><path fill="#ef6450" d="M489.24,470.56006,461.63,262l-1.98-15-9.77-73.81006A10.00847,10.00847,0,0,0,439.96,164.5h-45a10.00847,10.00847,0,0,1,9.92,8.68994L414.65,247l1.98,15,27.61,208.56006A30.00642,30.00642,0,0,1,414.5,504.5h45A30.00642,30.00642,0,0,0,489.24,470.56006Z"/><path fill="#ee553d" d="M461.63,262H214.73a7.5,7.5,0,0,1,0-15H459.65Z"/><polygon fill="#eb4237" points="459.65 247 414.65 247 416.63 262 461.63 262 459.65 247"/><path fill="#787681" d="M273.73682,202.00049a7.59991,7.59991,0,0,1-.79151-.04151,7.49969,7.49969,0,0,1-6.67676-8.24121l10.30616-98.27783a57.466,57.466,0,0,1,114.30517,0l10.30664,98.27783a7.49989,7.49989,0,0,1-14.918,1.56446L375.96191,97.00439a42.46622,42.46622,0,0,0-84.46923,0l-10.30616,98.27784A7.50082,7.50082,0,0,1,273.73682,202.00049Z"/><path fill="#fff" d="M333.78613,438h-.05859a7.481,7.481,0,1,1,.05859,0ZM306.02,430.61035a7.4352,7.4352,0,0,1-3.65137-.959l-.1123-.06446a7.49944,7.49944,0,1,1,7.32275-13.08984c.04151.02246.13037.07324.17139.09668a7.5066,7.5066,0,0,1-3.73047,14.0166Zm55.418-.00781a7.50065,7.50065,0,0,1-3.89942-13.91211c.07276-.04395.2295-.13477.30372-.17676a7.501,7.501,0,1,1,3.5957,14.08887Zm.42627-6.92188.01855.03028-.36914-.65723Zm-76.14453-13.33691a7.51069,7.51069,0,0,1-6.47852-3.69922c-.01953-.03223-.08691-.14844-.10547-.18164a7.5052,7.5052,0,1,1,6.584,3.88086Zm96.03418-.02051a7.5676,7.5676,0,1,1,6.57421-3.876c-.01855.0332-.08593.15039-.10546.18261A7.49641,7.49641,0,0,1,381.75391,410.32324Zm7.47363-27.72656a7.49974,7.49974,0,0,1-7.5-7.5c0-.04492.00049-.08984.001-.13477-.00049-.04882-.001-.16211-.001-.19629a7.5,7.5,0,0,1,15,0h-.00342l.00049.02051h.00293c0,.04,0,.0791-.00049.11817.00049.03222.00049.06347.00049.0957v.09668A7.49974,7.49974,0,0,1,389.22754,382.59668Zm-111.00049-.02734a7.45905,7.45905,0,0,1-7.5-7.45215v-.09668a7.50016,7.50016,0,1,1,7.5,7.54883Zm7.35352-27.69434a7.50481,7.50481,0,0,1-6.51221-11.21973c.01855-.0332.08594-.15039.10547-.18261a7.50066,7.50066,0,1,1,6.40674,11.40234Zm96.168-.22949a7.539,7.539,0,1,1,6.40625-11.3916c.01953.03222.08691.14843.10546.18164a7.50164,7.50164,0,0,1-6.51171,11.21Zm-75.92481-20.12012a7.50726,7.50726,0,0,1-3.82568-13.96191c.04052-.02344.16357-.09571.2041-.11914a7.50124,7.50124,0,1,1,3.62158,14.08105Zm55.56689-.14648A7.52544,7.52544,0,1,1,364.98486,320.29c.041.02344.165.09375.20557.11719a7.501,7.501,0,0,1-3.79981,13.97168ZM333.64844,327a7.54116,7.54116,0,0,1-7.54834-7.5,7.45864,7.45864,0,0,1,7.45166-7.5h.09668a7.5,7.5,0,0,1,0,15Z"/><circle cx="393.727" cy="209.5" r="15" fill="#fff"/><path fill="#a8d9f5" d="M304.04,504.5H52.5a30.00642,30.00642,0,0,1-29.74-33.93994L50.37,262l1.98-15,9.77-73.81006A10.00847,10.00847,0,0,1,72.04,164.5H284.51a10.00589,10.00589,0,0,1,9.91,8.68994L274.19,172l1.98,90L333.78,470.56006A30.001,30.001,0,0,1,304.04,504.5Z"/><path fill="#83c9ee" d="M333.78,470.56006,306.17,262l-1.98-15-9.77-73.81006A10.00589,10.00589,0,0,0,284.51,164.5h-45a10.00589,10.00589,0,0,1,9.91,8.68994L259.19,247l1.98,15L288.78,470.56006A30.001,30.001,0,0,1,259.04,504.5h45A30.001,30.001,0,0,0,333.78,470.56006Z"/><polygon fill="#83c9ee" points="306.17 262 50.37 262 52.35 247 304.19 247 306.17 262"/><polygon fill="#52bbe9" points="304.19 247 259.19 247 261.17 262 306.17 262 304.19 247"/><path fill="#787681" d="M238.26318,202.00049a7.50042,7.50042,0,0,1-7.4497-6.71826L220.50732,97.00439a42.46622,42.46622,0,0,0-84.46923,0l-10.30664,98.27784a7.49989,7.49989,0,0,1-14.918-1.56446l10.30664-98.27783a57.466,57.466,0,0,1,114.30517,0l10.30616,98.27783a7.49969,7.49969,0,0,1-6.67676,8.24121A7.59289,7.59289,0,0,1,238.26318,202.00049Z"/><path fill="#fff" d="M178.33105,438h-.05859a7.481,7.481,0,1,1,.05859,0Zm-27.76562-7.38965a7.4352,7.4352,0,0,1-3.65137-.959l-.1123-.06446a7.462,7.462,0,0,1-2.90528-10.168,7.537,7.537,0,0,1,10.228-2.92188c.04151.02246.13037.07324.17139.09668a7.50675,7.50675,0,0,1-3.73047,14.0166Zm55.41748-.00683a7.50065,7.50065,0,0,1-3.89941-13.91211c.07275-.04395.22949-.13477.30371-.17676a7.50115,7.50115,0,1,1,3.5957,14.08887Zm.42627-6.92188.01855.03027-.36914-.65722Zm-76.14453-13.33789a7.5107,7.5107,0,0,1-6.47852-3.69922c-.01953-.03223-.08691-.14844-.10547-.18164a7.5052,7.5052,0,1,1,6.584,3.88086Zm96.03418-.02051a7.5676,7.5676,0,1,1,6.57422-3.876c-.01856.0332-.08594.15039-.10547.18261A7.4964,7.4964,0,0,1,226.29883,410.32324Zm7.47363-27.72656a7.49974,7.49974,0,0,1-7.5-7.5c0-.04492.00049-.08984.001-.13477-.00049-.04882-.001-.16211-.001-.19629a7.5,7.5,0,0,1,15,0H241.269l.00049.02051h.00293c0,.04,0,.0791-.00049.11817.00049.03222.00049.06347.00049.0957v.09668A7.49974,7.49974,0,0,1,233.77246,382.59668ZM122.772,382.56934a7.45905,7.45905,0,0,1-7.5-7.45215v-.09668a7.50016,7.50016,0,1,1,7.5,7.54883Zm7.35352-27.69434a7.50481,7.50481,0,0,1-6.51221-11.21973c.01856-.0332.08594-.15039.10547-.18261a7.50066,7.50066,0,1,1,6.40674,11.40234Zm96.16748-.22949a7.539,7.539,0,1,1,6.40625-11.3916c.01953.03222.08691.14843.10547.18164a7.50164,7.50164,0,0,1-6.51172,11.21Zm-75.92432-20.12012a7.50726,7.50726,0,0,1-3.82568-13.96191c.04053-.02344.16357-.09571.2041-.11914a7.50124,7.50124,0,1,1,3.62158,14.08105Zm55.56641-.14648A7.52544,7.52544,0,1,1,209.5293,320.29c.041.02344.165.09375.20556.11719a7.501,7.501,0,0,1-3.7998,13.97168ZM178.19385,327.001a7.54116,7.54116,0,0,1-7.54834-7.5,7.45864,7.45864,0,0,1,7.45166-7.5h.09668a7.5,7.5,0,0,1,0,15Z"/><circle cx="118.273" cy="209.5" r="15" fill="#fff"/><circle cx="238.273" cy="209.5" r="15" fill="#fff"/></svg>