<svg xmlns="http://www.w3.org/2000/svg" data-name="Layer 1" viewBox="0 0 512 512"><rect width="497" height="324" x="7.5" y="94" fill="#c7ad92" rx="30"/><path fill="#b79b7b" d="M474.5,93.99985h-45a30.00008,30.00008,0,0,1,30,30v264a29.99977,29.99977,0,0,1-30,30h45a29.99977,29.99977,0,0,0,30-30v-264A30.00008,30.00008,0,0,0,474.5,93.99985Z"/><path fill="#fee27d" d="M393.09277,365.50033H107.5a7.5,7.5,0,0,1,0-15H393.09277a7.5,7.5,0,0,1,0,15Z"/><path fill="#fff" d="M393.09277 170.52475a7.51226 7.51226 0 1 1 7.5-7.52442A7.49388 7.49388 0 0 1 393.09277 170.52475zM364.57812 170.50033h-.09472a7.49951 7.49951 0 1 1 .09472 0zm-28.55859 0h-.09473a7.5005 7.5005 0 1 1 .09473 0zm-28.55859 0h-.09473a7.50049 7.50049 0 1 1 .09473 0zm-28.5586 0h-.0957a7.5 7.5 0 1 1 .0957 0zm-28.55908 0h-.09521a7.50025 7.50025 0 1 1 .09521 0zm-28.55908 0h-.09473a7.5 7.5 0 1 1 .09473 0zm-28.55859 0h-.09473a7.5 7.5 0 1 1 .09473 0zm-28.5586 0h-.09472a7.5 7.5 0 1 1 .09472 0zm-28.55859 0h-.09522a7.50025 7.50025 0 1 1 .09522 0zM107.5 170.52475a7.53724 7.53724 0 1 1 3.10059-.67285A7.47812 7.47812 0 0 1 107.5 170.52475zM107.5 290.54916a7.52494 7.52494 0 1 1 7.5-7.59961v.09961A7.49974 7.49974 0 0 1 107.5 290.54916zm0-30a7.52494 7.52494 0 1 1 7.5-7.59961v.09961A7.49974 7.49974 0 0 1 107.5 260.54916zm0-30a7.52494 7.52494 0 1 1 7.5-7.59961v.09961A7.49974 7.49974 0 0 1 107.5 230.54916zm0-30a7.52494 7.52494 0 1 1 7.5-7.59961v.09961A7.49974 7.49974 0 0 1 107.5 200.54916zM107.5498 320.50033a7.51277 7.51277 0 1 1 6.82081-10.55957 7.49662 7.49662 0 0 1-6.82081 10.55957zM364.57812 320.50033a7.54043 7.54043 0 0 1-7.54785-7.5 7.45958 7.45958 0 0 1 7.45313-7.5h.09472a7.5 7.5 0 0 1 0 15zm-28.55859 0a7.53958 7.53958 0 0 1-7.54687-7.5 7.45875 7.45875 0 0 1 7.45214-7.5h.09473a7.5 7.5 0 0 1 0 15zm-28.55859 0a7.53958 7.53958 0 0 1-7.54688-7.5 7.45875 7.45875 0 0 1 7.45215-7.5h.09473a7.5 7.5 0 0 1 0 15zm-28.5586 0a7.54043 7.54043 0 0 1-7.54785-7.5 7.45958 7.45958 0 0 1 7.45313-7.5h.09472a7.5 7.5 0 0 1 0 15zm-28.55859 0a7.54031 7.54031 0 0 1-7.54736-7.5 7.45906 7.45906 0 0 1 7.45215-7.5h.09521a7.5 7.5 0 1 1 0 15zm-28.55908 0a7.54032 7.54032 0 0 1-7.54737-7.5 7.45948 7.45948 0 0 1 7.45264-7.5h.09473a7.5 7.5 0 1 1 0 15zm-28.5586 0a7.54031 7.54031 0 0 1-7.54736-7.5 7.45948 7.45948 0 0 1 7.45264-7.5h.09472a7.5 7.5 0 0 1 0 15zm-28.55859 0a7.54073 7.54073 0 0 1-7.54785-7.5 7.45948 7.45948 0 0 1 7.45264-7.5h.09521a7.5 7.5 0 0 1 0 15zm-28.55908 0a7.54031 7.54031 0 0 1-7.54736-7.5 7.45947 7.45947 0 0 1 7.45263-7.5h.09473a7.5 7.5 0 1 1 0 15zM393.09277 320.50033a7.507 7.507 0 0 1-3.14257-14.333 7.496 7.496 0 0 1 10.64257 6.78222A7.54294 7.54294 0 0 1 393.09277 320.50033zM393.09277 290.49936a7.4571 7.4571 0 0 1-7.5-7.4502v-.09961a7.50016 7.50016 0 1 1 7.5 7.54981zm0-30a7.4571 7.4571 0 0 1-7.5-7.4502v-.09961a7.50016 7.50016 0 1 1 7.5 7.54981zm0-30a7.4571 7.4571 0 0 1-7.5-7.4502v-.09961a7.50016 7.50016 0 1 1 7.5 7.54981zm0-30a7.4571 7.4571 0 0 1-7.5-7.4502v-.09961a7.50016 7.50016 0 1 1 7.5 7.54981z"/><circle cx="459.5" cy="139" r="15" fill="#fff"/><circle cx="52.5" cy="139" r="15" fill="#fff"/><circle cx="459.5" cy="373" r="15" fill="#fff"/><circle cx="52.5" cy="373" r="15" fill="#fff"/></svg>