<svg xmlns="http://www.w3.org/2000/svg" data-name="Layer 1" viewBox="0 0 512 512"><path fill="#8b8893" d="M459,512H53a7.5,7.5,0,0,1,0-15H459a7.5,7.5,0,0,1,0,15Z"/><rect width="289" height="393" x="111.5" y="37.5" fill="#a8d9f5"/><rect width="45" height="393" x="355.5" y="37.5" fill="#83c9ee"/><path fill="#fff" d="M370.5 408a7.507 7.507 0 0 1-3.10059-14.35156A7.49653 7.49653 0 0 1 378 400.4502V400.5A7.49943 7.49943 0 0 1 370.5 408zM341.9209 408h-.09473a7.49952 7.49952 0 1 1 .09473 0zm-28.624 0h-.09571a7.5 7.5 0 1 1 .09571 0zm-28.625 0h-.09473a7.49951 7.49951 0 1 1 .09473 0zm-28.624 0h-.09521a7.49976 7.49976 0 1 1 .09521 0zm-28.62451 0h-.09522a7.50025 7.50025 0 1 1 .09522 0zm-28.62451 0h-.09473a7.5 7.5 0 1 1 .09473 0zm-28.624 0h-.09521a7.50025 7.50025 0 1 1 .09521 0zM141.5498 408H141.5a7.5 7.5 0 1 1 .0498 0zM141.5 377.77734a7.49974 7.49974 0 0 1-7.5-7.5v-.10058a7.5 7.5 0 0 1 15 0v.10058A7.49974 7.49974 0 0 1 141.5 377.77734zm0-30.27246a7.49974 7.49974 0 0 1-7.5-7.5v-.10058a7.5 7.5 0 0 1 15 0v.10058A7.49974 7.49974 0 0 1 141.5 347.50488zm0-30.27343a7.49975 7.49975 0 0 1-7.5-7.5v-.10059a7.5 7.5 0 0 1 15 0v.10059A7.49975 7.49975 0 0 1 141.5 317.23145zm0-30.27247a7.49974 7.49974 0 0 1-7.5-7.5v-.10058a7.5 7.5 0 0 1 15 0v.10058A7.49974 7.49974 0 0 1 141.5 286.959zm0-30.27294a7.50006 7.50006 0 0 1-7.5-7.5v-.10059a7.5 7.5 0 0 1 15 0v.10059A7.50006 7.50006 0 0 1 141.5 256.686zm0-30.27247a7.50006 7.50006 0 0 1-7.5-7.5V218.813a7.5 7.5 0 0 1 15 0v.10058A7.50006 7.50006 0 0 1 141.5 226.41357zm0-30.27295a7.50006 7.50006 0 0 1-7.5-7.5V188.54a7.5 7.5 0 1 1 15 0v.10058A7.50006 7.50006 0 0 1 141.5 196.14062zm0-30.27246a7.50006 7.50006 0 0 1-7.5-7.5v-.10058a7.5 7.5 0 0 1 15 0v.10058A7.50006 7.50006 0 0 1 141.5 165.86816zm0-30.27295a7.50006 7.50006 0 0 1-7.5-7.5v-.10058a7.5 7.5 0 0 1 15 0v.10058A7.50006 7.50006 0 0 1 141.5 135.59521zm0-30.27294a7.50006 7.50006 0 0 1-7.5-7.5v-.10059a7.5 7.5 0 1 1 15 0v.10059A7.50006 7.50006 0 0 1 141.5 105.32227zM141.5 75.0249a7.47885 7.47885 0 0 1-7.5-7.4751V67.5a7.49567 7.49567 0 1 1 7.5 7.5249zM341.9209 75a7.54074 7.54074 0 0 1-7.54785-7.5A7.45905 7.45905 0 0 1 341.8252 60h.0957a7.5 7.5 0 0 1 0 15zm-28.625 0a7.54074 7.54074 0 0 1-7.54785-7.5 7.45987 7.45987 0 0 1 7.45312-7.5h.09473a7.5 7.5 0 0 1 0 15zm-28.624 0a7.54074 7.54074 0 0 1-7.54786-7.5 7.45905 7.45905 0 0 1 7.45215-7.5h.09571a7.5 7.5 0 0 1 0 15zm-28.62452 0A7.54063 7.54063 0 0 1 248.5 67.5a7.45936 7.45936 0 0 1 7.45215-7.5h.09521a7.5 7.5 0 0 1 0 15zm-28.62451 0a7.54105 7.54105 0 0 1-7.54785-7.5 7.45978 7.45978 0 0 1 7.45264-7.5h.09521a7.5 7.5 0 1 1 0 15zm-28.624 0a7.54064 7.54064 0 0 1-7.54737-7.5 7.45936 7.45936 0 0 1 7.45215-7.5h.09522a7.5 7.5 0 0 1 0 15zm-28.62451 0a7.54106 7.54106 0 0 1-7.54786-7.5A7.45978 7.45978 0 0 1 170.0791 60h.09522a7.5 7.5 0 0 1 0 15zM370.5 75.0249A7.5125 7.5125 0 0 1 370.4502 60H370.5a7.51246 7.51246 0 0 1 0 15.0249zM370.5 377.77734a7.49943 7.49943 0 0 1-7.5-7.5v-.10058a7.5 7.5 0 0 1 15 0v.10058A7.49943 7.49943 0 0 1 370.5 377.77734zm0-30.27246a7.49943 7.49943 0 0 1-7.5-7.5v-.10058a7.5 7.5 0 1 1 15 0v.10058A7.49943 7.49943 0 0 1 370.5 347.50488zm0-30.27246a7.49943 7.49943 0 0 1-7.5-7.5v-.10058a7.5 7.5 0 0 1 15 0v.10058A7.49943 7.49943 0 0 1 370.5 317.23242zm0-30.27344a7.49943 7.49943 0 0 1-7.5-7.5v-.10058a7.5 7.5 0 0 1 15 0v.10058A7.49943 7.49943 0 0 1 370.5 286.959zm0-30.27246a7.49974 7.49974 0 0 1-7.5-7.5v-.10058a7.5 7.5 0 1 1 15 0v.10058A7.49974 7.49974 0 0 1 370.5 256.68652zm0-30.27246a7.49974 7.49974 0 0 1-7.5-7.5v-.10058a7.5 7.5 0 0 1 15 0v.10058A7.49974 7.49974 0 0 1 370.5 226.41406zm0-30.273a7.49974 7.49974 0 0 1-7.5-7.5v-.10058a7.5 7.5 0 0 1 15 0v.10058A7.49974 7.49974 0 0 1 370.5 196.14111zm0-30.273a7.49974 7.49974 0 0 1-7.5-7.5v-.10058a7.5 7.5 0 1 1 15 0v.10058A7.49974 7.49974 0 0 1 370.5 165.86816zm0-30.27246a7.49974 7.49974 0 0 1-7.5-7.5v-.10058a7.5 7.5 0 1 1 15 0v.10058A7.49974 7.49974 0 0 1 370.5 135.5957zm0-30.27295a7.49974 7.49974 0 0 1-7.5-7.5v-.10058a7.5 7.5 0 0 1 15 0v.10058A7.49974 7.49974 0 0 1 370.5 105.32275z"/><path fill="#e4222e" d="M328.5,302.14941h-145a7.5,7.5,0,0,1,0-15h145a7.5,7.5,0,0,1,0,15Z"/><path fill="#fff" d="M328.5,272.14941h-145a7.5,7.5,0,0,1,0-15h145a7.5,7.5,0,0,1,0,15Z"/><rect width="319" height="30" x="96.5" y="7.5" fill="#787681" rx="7"/><path fill="#57565c" d="M408.5,7.5h-45a7,7,0,0,1,7,7v16a7,7,0,0,1-7,7h45a7,7,0,0,0,7-7v-16A7,7,0,0,0,408.5,7.5Z"/><rect width="319" height="30" x="96.5" y="430.5" fill="#787681" rx="6"/><path fill="#57565c" d="M409.5,430.5h-45a6,6,0,0,1,6,6v18a6,6,0,0,1-6,6h45a6,6,0,0,0,6-6v-18A6,6,0,0,0,409.5,430.5Z"/><polygon fill="#8b8893" points="321.08 460.5 365.08 504.5 406.64 504.5 362.64 460.5 321.08 460.5"/><polygon fill="#8b8893" points="149.36 460.5 105.36 504.5 146.92 504.5 190.92 460.5 149.36 460.5"/><path fill="#ee553d" d="M241.57522,225.17427,281.086,187.5262a4,4,0,0,1,5.5193.00058L326.532,225.58741Z"/><path fill="#fed947" d="M181.532,225.17427l46.76959-45.60514a4,4,0,0,1,5.55223-.03169l48.08979,45.83314Z"/></svg>