<svg xmlns="http://www.w3.org/2000/svg" data-name="Layer 1" viewBox="0 0 512 512"><path fill="#c9de79" d="M504.5,256.13C504.42993,392.39,392.28,504.5,256,504.5,119.65,504.5,7.5,392.28,7.5,256,7.5,118.76,118.76,7.5,256,7.5c38.01,0,73.91992,11.17993,73.91992,11.17993.96.30005,30.67017,11.84009,30.67017,11.84009l42.12726,128.07512Z"/><path fill="#bcd44c" d="M402.71729,158.59515,360.59009,30.52s-29.71021-11.54-30.67017-11.84009C329.91992,18.67993,294.01,7.5,256,7.5c-7.88232,0-15.67419.38409-23.369,1.102a291.14675,291.14675,0,0,1,52.28894,10.07794c.96.30005,30.67017,11.84009,30.67017,11.84009l42.1272,128.07513L459.5,256.13c-.06616,128.67957-100.09375,235.80207-225.99976,247.32483C240.917,504.13367,248.41846,504.5,256,504.5c136.28,0,248.42993-112.11,248.5-248.37Z"/><path fill="#e6edbf" d="M438.55393,237.23805a185.65714,185.65714,0,0,1,.9474,18.762,183.43514,183.43514,0,1,1-86.679-155.90814Z"/><path fill="#fff" d="M504.5 256v.13c-12.81836-1.47863-73.22485-9.82287-115.67383-62.956-56.074-70.1875-30.49731-155.551-28.23608-162.65393zM270.60352 346.74268a7.59632 7.59632 0 1 1 1.44726-.13916c-.03613.00683-.16894.03027-.20508.03613A7.58727 7.58727 0 0 1 270.60352 346.74268zm-29.22559-.00293a7.547 7.547 0 0 1-1.35059-.12256l1.3418-7.37891-1.36328 7.375a7.50005 7.50005 0 0 1 2.5-14.79c.03613.00586.16894.0293.20508.03614a7.50078 7.50078 0 0 1-1.333 14.88037zM213.7832 336.71924a7.46541 7.46541 0 0 1-3.78613-1.03076l3.793-6.47022-3.81445 6.45752a7.49995 7.49995 0 0 1 7.43847-13.02539c.02832.01563.14063.08106.16895.09766a7.50057 7.50057 0 0 1-3.79981 13.97119zm84.44043-.00977a7.49424 7.49424 0 0 1-3.82617-13.95019c.02832-.0166.14063-.08155.16895-.09717a7.49988 7.49988 0 1 1 7.418 13.03711l-3.709-6.51856 3.6875 6.53077A7.49633 7.49633 0 0 1 298.22363 336.70947zm22.44727-18.82568a7.5006 7.5006 0 0 1-5.83008-12.21289c.05176-.063.167-.20069.21973-.26221a7.501 7.501 0 1 1 5.61035 12.4751zm.7207-7.01123l.04.0332-.69238-.59765zm-130.1084 6.979a7.44447 7.44447 0 0 1-5.65527-2.58984c-.01855-.02149-.06836-.08057-.08691-.10254a7.50006 7.50006 0 0 1 11.38086-9.771c.01855.02149.06835.08057.08691.10205a7.50888 7.50888 0 0 1-5.72559 12.36133zM335.40039 292.5293a7.5129 7.5129 0 0 1-7.08789-10.0044c.01172-.0332.04-.1123.05273-.14551a7.5 7.5 0 1 1 14.14258 4.99854c-.01172.0332-.04.1123-.05273.14551A7.463 7.463 0 0 1 335.40039 292.5293zm-158.79883-.04444a7.54136 7.54136 0 1 1 6.97559-10.26416c.02441.06543.082.22364.10547.28955a7.50562 7.50562 0 0 1-7.08106 9.97461zm-1.09668-7.12109l-.09082.03369 1.1875-.41455zM340.5 263.59814a7.49974 7.49974 0 0 1-7.5-7.5c0-.03076 0-.061.001-.09179-.001-.03028-.001-.06055-.001-.09131a7.54158 7.54158 0 0 1 7.5-7.54883 7.45781 7.45781 0 0 1 7.5 7.45068v.28125A7.49974 7.49974 0 0 1 340.5 263.59814zm-168.999-.00634a7.49994 7.49994 0 0 1-7.5-7.4668c-.001-.0415-.001-.0835-.001-.125a7.50006 7.50006 0 0 1 15-.04688c.001.05372.001.105.001.13868A7.49975 7.49975 0 0 1 171.501 263.5918zm-.80371-7.5h.80371l-.7627-.001zM176.54 234.67139a7.50189 7.50189 0 0 1-7.0791-9.96289c.02344-.06592.08105-.22412.10547-.28955A7.50121 7.50121 0 1 1 176.54 234.67139zm158.90137-.1128a7.56233 7.56233 0 0 1-7.03418-4.82812c-.01661-.04248-.05078-.13428-.06641-.17676a7.50009 7.50009 0 0 1 14.03516-5.29248c.01074.02979.03808.102.04882.13184a7.49239 7.49239 0 0 1-6.98339 10.16552zM191.20117 209.24023a7.4931 7.4931 0 0 1-5.78808-12.24609c.01464-.01855.05566-.06787.07129-.08643a7.49995 7.49995 0 0 1 11.61523 9.49122c-.03027.03711-.09766.11816-.12793.15478A7.51783 7.51783 0 0 1 191.20117 209.24023zm129.5-.09814A7.54291 7.54291 0 1 1 326.3125 196.668c.03711.04346.1377.16211.17383.20654a7.49974 7.49974 0 0 1-5.78516 12.26758zM213.65234 190.36621a7.501 7.501 0 0 1-3.71582-14.02l3.709 6.51856L209.958 176.334a7.5 7.5 0 0 1 7.56543 12.95215c-.02832.0166-.14063.08155-.16895.09717A7.46861 7.46861 0 0 1 213.65234 190.36621zm84.541-.0835a7.42824 7.42824 0 0 1-3.68652-.97949c-.01075-.00586-.085-.04883-.09571-.05468a7.5 7.5 0 0 1 7.42871-13.03125c.01368.00781.07032.04052.085.04833a7.50767 7.50767 0 0 1-3.73144 14.01709zm-57.01367-9.98828a7.501 7.501 0 0 1-1.32129-14.88183c.03613-.00684.16894-.03028.20508-.03614a7.501 7.501 0 1 1 1.11621 14.918zm29.46582-.02978a7.50926 7.50926 0 1 1 1.12793-14.916c.03613.00586.16894.02881.20508.03565a7.50078 7.50078 0 0 1-1.333 14.88037z"/></svg>