<svg xmlns="http://www.w3.org/2000/svg" data-name="Layer 1" viewBox="0 0 512 512"><path fill="#f69531" d="M222.544,253.11444q-32.03714-14.41191-64.08856-28.81129a7.23668,7.23668,0,0,1-3.46761-9.91211q26.26179-51.04478,52.51875-102.10163"/><path fill="#f9a242" d="M451.19794,112.31139q26.24221,51.0433,52.499,102.08055a7.238,7.238,0,0,1-3.46985,9.9115q-32.03513,14.40183-64.06653,28.80368a456.59714,456.59714,0,0,1,15.03742-140.79573Z"/><path fill="#f9b15e" d="M435.92,257.09a1551.05759,1551.05759,0,0,0-.51,171.18,7.23333,7.23333,0,0,1-7.23,7.6H230.52a7.23342,7.23342,0,0,1-7.23-7.6,1551.04194,1551.04194,0,0,0-.51-171.18c-2.79-47.96-7.63-92.79-13.68005-134.12q-.77994-5.385-1.6-10.68l.97-.52h.01l34.16-17.96.01-.01,2.74-1.44,18.12-9.54,12.71-6.69a111.68851,111.68851,0,0,0,18.57,7.47c17.35,5.22,31.71,4.9,41.05005,4.61,8.01-.24,15.52-.52,25.24-3.16a90.1203,90.1203,0,0,0,21.4-8.92l68.72,36.16C444.41,156.54,438.95,204.97,435.92,257.09Z"/><path fill="#f9a242" d="M251.94 103.15L209.1 122.97l-38.89 17.99-46.97-25.92 4.79-30.22 1.35-8.53c2.98.89 6.26 1.79 9.83 2.64 2.02.49 4.14.96 6.34 1.41a184.94612 184.94612 0 0 0 38.22 3.72 185.27226 185.27226 0 0 0 51.87-7.77l8.98 14.8.77 1.27zM75.86017 253.11444Q43.823 238.70253 11.77161 224.30315A7.23665 7.23665 0 0 1 8.304 214.391q26.2618-51.04478 52.51873-102.10163a567.41541 567.41541 0 0 1 12.1391 71.93106A567.39716 567.39716 0 0 1 75.86017 253.11444z"/><path fill="#f69531" d="M319.5141,112.31139q26.2423,51.0433,52.499,102.08055a7.238,7.238,0,0,1-3.46991,9.9115q-32.03512,14.40183-64.06653,28.80368A544.72053,544.72053,0,0,1,319.5141,112.31139Z"/><path fill="#f69531" d="M304.23,257.09a1550.73136,1550.73136,0,0,0-.5,171.17,7.24207,7.24207,0,0,1-7.23,7.61H98.83a7.22811,7.22811,0,0,1-7.22-7.61,1550.84794,1550.84794,0,0,0-.51-171.17c-3.04-52.12-8.5-100.55-15.28-144.8l52.21-27.47L131.49,83c3.81,9.73,14.71,26.62,44.78,29.29h12.79c.37-.03.73-.07,1.09-.11.37.04.74.08,1.12.11h12.79c1.52-.13,2.99-.31,4.41-.52h.01c17.75-2.54,28.13-10.31995,34.16-17.96l.01-.01c.72-.91,1.37-1.81,1.97-2.71l.77,1.27,10.62-5.59,7.5-3.95,56,29.47C312.73,156.54,307.27,204.97,304.23,257.09Z"/><path fill="#f9a242" d="M304.5141,112.31139q26.2423,51.0433,52.499,102.08055a7.238,7.238,0,0,1-3.46991,9.9115q-32.03512,14.40183-64.06653,28.80368A544.72053,544.72053,0,0,1,304.5141,112.31139Z"/><path fill="#f9b15e" d="M289.23,257.09a1550.73136,1550.73136,0,0,0-.5,171.17,7.24207,7.24207,0,0,1-7.23,7.61H83.83a7.22811,7.22811,0,0,1-7.22-7.61,1550.84794,1550.84794,0,0,0-.51-171.17c-3.04-52.12-8.5-100.55-15.28-144.8l68.72-36.16A31.39343,31.39343,0,0,0,131.49,83c3.81,9.73,14.71,26.62,44.78,29.29h12.79c.37-.03.73-.07,1.09-.11,41.63-4.23,45.65-36.05,45.65-36.05l20.21,10.64,48.5,25.52C297.73,156.54,292.27,204.97,289.23,257.09Z"/><path fill="#fff" d="M182.7168,289.44629c-.02735,0-.06592,0-.10547-.00049a7.5,7.5,0,0,1,.0083-15c.0293,0,.06689,0,.105.00049a7.5,7.5,0,0,1-.00781,15Zm-27.97657-7.43652a7.50245,7.50245,0,0,1-3.72021-.98633c-.04443-.02539-.17334-.1001-.21777-.12647a7.5292,7.5292,0,1,1,3.938,1.1128Zm55.86963-.01319a7.50072,7.50072,0,0,1-3.7998-13.97119l.11914-.06934a7.5,7.5,0,0,1,7.51562,12.98145l-3.75781-6.49072,3.709,6.519A7.46544,7.46544,0,0,1,210.60986,281.99658Zm-76.40234-20.42334a7.49672,7.49672,0,0,1-6.49756-3.74365l6.49072-3.75781-6.519,3.709a7.5,7.5,0,0,1,12.94043-7.58594l.06934.11914a7.50229,7.50229,0,0,1-6.48389,11.25928Zm96.91016-.01513a7.58025,7.58025,0,1,1,6.5747-3.87647c-.02539.04443-.10009.17334-.12646.21777A7.49587,7.49587,0,0,1,231.11768,261.55811Zm7.54834-27.96094a7.50006,7.50006,0,0,1-7.5-7.5c0-.03955.00048-.0791.001-.11865v-.00538c-.00049-.0371-.00146-.17187-.00146-.209a7.5,7.5,0,0,1,15,0h-.00293l.00049.02051h.00244c0,.03369,0,.06738-.00049.10058.00049.03858.001.07618.001.11475v.09717A7.50006,7.50006,0,0,1,238.666,233.59717Zm-112.01563-.02832a7.459,7.459,0,0,1-7.5-7.45166V226.02a7.50016,7.50016,0,1,1,7.5,7.54883Zm7.4292-27.90723a7.51161,7.51161,0,0,1-6.51416-11.24072c.02539-.04444.1001-.17334.12646-.21778a7.50111,7.50111,0,1,1,6.3877,11.4585Zm97.03223-.25049a7.49516,7.49516,0,0,1-6.477-3.708l-.06934-.11914a7.5,7.5,0,0,1,12.98145-7.51562l-6.49073,3.75781,6.519-3.709a7.50151,7.50151,0,0,1-6.46338,11.29394Zm-76.57764-20.29736a7.50109,7.50109,0,0,1-3.76465-13.99219l3.75781,6.49072-3.709-6.519a7.5,7.5,0,0,1,7.58594,12.94043l-.11914.06934A7.4651,7.4651,0,0,1,154.53418,185.11377Zm56.0283-.12695a7.46377,7.46377,0,0,1-3.751-1.01075,7.54128,7.54128,0,0,1-2.78906-10.248,7.45721,7.45721,0,0,1,10.17139-2.80957l.1333.07617a7.50109,7.50109,0,0,1-3.76467,13.99219Zm-28.081-7.43213a7.5,7.5,0,0,1,0-15v7.5l.0205-7.5h.02149a7.49994,7.49994,0,0,1,.167,14.99853C182.65332,177.55371,182.51855,177.55469,182.48145,177.55469Z"/></svg>