<svg xmlns="http://www.w3.org/2000/svg" data-name="Layer 1" viewBox="0 0 512 512"><path fill="#aeadb3" d="M228.43848 512.00033a34.10512 34.10512 0 0 1-34.06641-34.0664v-8.56739a7.5 7.5 0 0 1 15 0v8.56739a19.06592 19.06592 0 1 0 38.13184 0l-.15918-239.76367a7.50006 7.50006 0 0 1 7.49511-7.50489h.00489a7.50027 7.50027 0 0 1 7.5 7.49512l.15918 239.76855A34.10532 34.10532 0 0 1 228.43848 512.00033zM15 304.43881a7.49943 7.49943 0 0 1-7.5-7.5V258.36947a7.5 7.5 0 0 1 15 0v38.56934A7.49943 7.49943 0 0 1 15 304.43881zM497 304.43881a7.49943 7.49943 0 0 1-7.5-7.5V258.36947a7.5 7.5 0 0 1 15 0v38.56934A7.49943 7.49943 0 0 1 497 304.43881zM353.51367 296.64a7.49943 7.49943 0 0 1-7.5-7.5V250.57065a7.5 7.5 0 1 1 15 0V289.14A7.49943 7.49943 0 0 1 353.51367 296.64zM160.51367 295.56186a7.49943 7.49943 0 0 1-7.5-7.5V249.49154a7.5 7.5 0 0 1 15 0v38.57032A7.49943 7.49943 0 0 1 160.51367 295.56186zM256 53.763a7.49943 7.49943 0 0 1-7.5-7.5V7.50033a7.5 7.5 0 0 1 15 0V46.263A7.49943 7.49943 0 0 1 256 53.763z"/><path fill="#c9de79" d="M7.5,273.36939C7.5,147.94212,118.7572,46.26331,255.99986,46.26331S504.5,147.94212,504.5,273.36939a168.1756,168.1756,0,0,0-58.258-20.27751c-42.84592-6.42394-77.05128,5.70471-92.72793,12.47856a186.53874,186.53874,0,0,0-193.00015-1.014c-16.5211-6.76726-51.401-18.29531-94.75621-11.46459A175.01786,175.01786,0,0,0,7.5,273.36939Z"/><path fill="#bcd44c" d="M458.73438,255.47372A169.22709,169.22709,0,0,1,504.5,273.36947c0-125.42724-111.25757-227.1062-248.5-227.1062-7.58618,0-15.0874.32837-22.5.93653C353.75635,57.06576,449.32886,145.20932,458.73438,255.47372Z"/><path fill="#e6edbf" d="M160.51392,264.55647c9.21421-129.30645,57.277-218.09734,95.48594-218.29316,38.33074-.19639,87.60455,88.66054,97.51421,219.30713a186.53874,186.53874,0,0,0-193.00015-1.014Z"/><path fill="#fff" d="M263.39941,209.4769a7.50051,7.50051,0,0,1-1.333-14.87989l.13671-.02441a7.49992,7.49992,0,1,1,2.60743,14.77148l-.06055.01075A7.494,7.494,0,0,1,263.39941,209.4769ZM234.543,204.388a7.46994,7.46994,0,0,1-3.69336-.97656l-.18262-.1045a7.50616,7.50616,0,1,1,3.876,1.08106Zm54.3418-9.5752a7.53389,7.53389,0,1,1,5.79394-2.73144l-.06445.07617A7.48491,7.48491,0,0,1,288.88477,194.81283ZM215.59863,181.8851a7.48576,7.48576,0,0,1-7.01269-4.8584c-.02442-.06543-.082-.22363-.10449-.28906a7.49166,7.49166,0,1,1,7.11718,5.14746ZM299,167.21127a7.49943,7.49943,0,0,1-7.5-7.5v-.1709a7.5421,7.5421,0,0,1,7.5-7.5498,7.45709,7.45709,0,0,1,7.5,7.45019v.27051A7.49943,7.49943,0,0,1,299,167.21127Zm-83.4502-14.72168a7.5593,7.5593,0,1,1,7.12793-5.15723c-.02246.06543-.08007.22364-.10449.28907A7.50272,7.50272,0,0,1,215.5498,152.48959Zm-1.293-7.9873,1.29394.48535Zm74.65527-5.07032a7.51607,7.51607,0,1,1,5.65723-12.42089l.06445.07617a7.5,7.5,0,0,1-5.72168,12.34472Zm-54.50879-9.50488a7.50262,7.50262,0,0,1-3.79394-13.97656c.03124-.01856.14941-.08594.18164-.10449a7.50086,7.50086,0,1,1,3.6123,14.081Zm29.04688-5.1748a7.49076,7.49076,0,0,1-1.13672-.08594l-.27832-.0459a7.49992,7.49992,0,1,1,2.60742-14.77148l-1.30371,7.38574,1.31738-7.38379a7.45858,7.45858,0,0,1,6.24414,8.53125A7.5357,7.5357,0,0,1,263.4502,124.75229Z"/></svg>