<svg xmlns="http://www.w3.org/2000/svg" data-name="Layer 1" viewBox="0 0 512 512"><rect width="422" height="291.02" x="82.5" y="147.991" fill="#7dc7a2" rx="30"/><path fill="#56bc8d" d="M459.5,147.9907v196.02a50,50,0,0,1-50,50H82.5v-216.02a30,30,0,0,1,30-30Z"/><rect width="422" height="291.02" x="7.5" y="72.989" fill="#7dc7a2" rx="30"/><rect width="224.326" height="45" x="55.174" y="117.989" fill="#c8e6d6" rx="9"/><path fill="#c8e6d6" d="M189.5 200.48875H55.17383a7.5 7.5 0 0 1 0-15H189.5a7.5 7.5 0 0 1 0 15zM279.5 296.50926H55.17383a7.5 7.5 0 0 1 0-15H279.5a7.5 7.5 0 0 1 0 15zM234.5 326.50926H55.17383a7.5 7.5 0 0 1 0-15H234.5a7.5 7.5 0 1 1 0 15z"/></svg>