<svg xmlns="http://www.w3.org/2000/svg" data-name="Layer 1" viewBox="0 0 512 512"><rect width="422" height="291.02" x="82.5" y="138.53" fill="#a8d9f5" rx="30"/><path fill="#83c9ee" d="M459.5,138.53V354.55a29.99808,29.99808,0,0,1-30,30H82.5V168.53a29.99808,29.99808,0,0,1,30-30Z"/><rect width="422" height="291.02" x="7.5" y="63.532" fill="#a8d9f5" rx="30"/><path fill="#fff" d="M226.12988 264.6543a7.49931 7.49931 0 0 1-.98437-14.93506l.18066-.022a7.50006 7.50006 0 0 1 1.752 14.89746l-.876-7.44873.8457 7.45214A7.59128 7.59128 0 0 1 226.12988 264.6543zm-30.165-3.64942a7.47106 7.47106 0 0 1-2.65527-.48828l-.07324-.02734a7.50012 7.50012 0 0 1 5.26758-14.04492l.11816.04492a7.50113 7.50113 0 0 1-2.65723 14.51562zm58.624-7.10937a7.50061 7.50061 0 0 1-4.293-13.65528l.1123-.07763a7.50008 7.50008 0 0 1 8.51563 12.34863l-.05567.03809A7.46255 7.46255 0 0 1 254.58887 253.89551zM170.9043 243.70459a7.48043 7.48043 0 0 1-5.62012-2.53076l-.06738-.07617a7.49974 7.49974 0 1 1 11.23437-9.93848l.06738.07617a7.49946 7.49946 0 0 1-5.61425 12.46924zm103.90234-12.57324a7.55726 7.55726 0 1 1 6.71973-4.15186c-.05274.10108-.10645.20215-.16211.30176A7.49774 7.49774 0 0 1 274.80664 231.13135zM156.708 216.76367a7.503 7.503 0 0 1-7.28906-5.75928l7.29492-1.74218-7.29785 1.72851a7.45849 7.45849 0 0 1 5.34277-9.12353 7.542 7.542 0 0 1 9.18066 5.37695l.06934.27588a7.50542 7.50542 0 0 1-7.30078 9.24365zm125.42773-15.18994a7.49974 7.49974 0 0 1-7.5-7.5v-.03857c-.001-.04053-.001-.08106-.001-.12207V193.811a7.5 7.5 0 0 1 15 0v.03857c.001.04053.001.08154.001.12207v.10205A7.49974 7.49974 0 0 1 282.13574 201.57373zm-125.45019-15.272a7.50407 7.50407 0 0 1-7.30469-9.208c.02637-.10986.05273-.21924.082-.32715a7.50128 7.50128 0 1 1 7.22266 9.53516zM274.875 171.877a7.543 7.543 0 0 1-6.61328-3.91357l-.11328-.2124a7.49989 7.49989 0 1 1 13.2832-6.96778l-6.6416 3.48389 6.65039-3.46826A7.49366 7.49366 0 0 1 274.875 171.877zM170.80762 159.34082a7.49946 7.49946 0 0 1-5.61426-12.46924l5.61719 4.96924-5.59375-4.99658a7.50011 7.50011 0 0 1 11.32519 9.83594l-.11426.12988A7.48061 7.48061 0 0 1 170.80762 159.34082zm83.81054-10.26074a7.51666 7.51666 0 1 1 4.18067-13.73291l.1123.07763a7.50061 7.50061 0 0 1-4.293 13.65528zm-58.78222-7.08594a7.50113 7.50113 0 0 1-2.65723-14.51562l2.65625 7.01367-2.624-7.02588a7.49981 7.49981 0 0 1 5.44824 13.9751l-.168.06445A7.48582 7.48582 0 0 1 195.83594 141.99414zm30.33008-3.70068a7.50762 7.50762 0 1 1 .74023-14.96485l.23437.02881a7.50047 7.50047 0 0 1-.9746 14.936zM294.5 295.24805H143.73242a7.5 7.5 0 0 1 0-15H294.5a7.5 7.5 0 0 1 0 15z"/></svg>