<svg xmlns="http://www.w3.org/2000/svg" data-name="Layer 1" viewBox="0 0 512 512"><path fill="#469ed6" d="M504.5,190.21557V321.78443c0,67.81924-111.25724,122.7976-248.5,122.7976S7.5,389.60367,7.5,321.78443V190.21557"/><path fill="#227fc0" d="M504.5,190.21176c0,24.2-14.17,46.77-38.64,65.79-44.08,34.26977-121.6,57.00976-209.86,57.00976s-165.78-22.74-209.86-57.00976c-24.47-19.02-38.64-41.59009-38.64-65.79,0-67.82007,111.26-122.79,248.5-122.79S504.5,122.39169,504.5,190.21176Z"/><path fill="#fff" d="M255.15039 389.50912h-.1001a7.5 7.5 0 1 1 0-15h.1001a7.5 7.5 0 1 1 0 15zm29.98193-.835a7.53922 7.53922 0 1 1 .54737-.01855l-.10645.00586C285.42529 388.67026 285.27832 388.67416 285.13232 388.67416zm-60.062-.10644c-.148 0-.29687-.00391-.44677-.0127l-.09961-.00586a7.46188 7.46188 0 1 1 .54638.01856zm90.04346-2.55371a7.5006 7.5006 0 0 1-.87988-14.94825c.00439 0 .10791-.01269.11181-.01269a7.49963 7.49963 0 1 1 1.75293 14.89648l-.87646-7.44824.79 7.459A7.55854 7.55854 0 0 1 315.11377 386.014zm-120.01465-.21875a7.54394 7.54394 0 0 1-.88525-.05274c-.07715-.00879-.25293-.03125-.32959-.043a7.50033 7.50033 0 1 1 1.21484.09571zm149.76514-4.36915a7.50132 7.50132 0 0 1-1.52637-14.84375c.07031-.01464.23926-.04687.31006-.05957a7.50106 7.50106 0 1 1 1.21631 14.90332zm.30566-6.39648l.01807.09277-.21778-1.21679zm-179.80273 6.05664a7.52934 7.52934 0 0 1-1.32959-.11816c-.0708-.0127-.23975-.04492-.31006-.05957a7.49713 7.49713 0 1 1 1.63965.17773zm208.85156-6.333A7.50088 7.50088 0 0 1 372.25 360.016l.09619-.02637a7.49964 7.49964 0 1 1 3.94678 14.4707l-.09668.02637A7.48314 7.48314 0 0 1 374.21875 374.75326zm-238.1748-.4707a7.48614 7.48614 0 0 1-1.97754-.2666l-.09668-.02637a7.49957 7.49957 0 1 1 3.94629-14.4707l.09668.02637a7.50088 7.50088 0 0 1-1.96875 14.7373zm266.89941-8.5293a7.576 7.576 0 1 1 2.72754-.51367c-.06445.02442-.22363.082-.28906.10449A7.4938 7.4938 0 0 1 402.94336 365.75326zm-295.57813-.61816a7.51619 7.51619 0 1 1 2.34522-14.62891c.06543.02246.22461.08008.28906.1045a7.50117 7.50117 0 0 1-2.63428 14.52441zm-.44482-6.31934l-.03906.11035.48486-1.293zm323.75537-4.75586a7.5624 7.5624 0 1 1 3.39453-.81543l-.1333.06446A7.46349 7.46349 0 0 1 430.67578 354.0599zM79.70361 353.263a7.46053 7.46053 0 0 1-3.29785-.77051l-.26318-.13379a7.4869 7.4869 0 1 1 3.561.9043zm377.07373-14.17578a7.4981 7.4981 0 0 1-4.22656-13.69824c.01709-.01172.11719-.07813.13428-.08985a7.49983 7.49983 0 1 1 8.32031 12.48047l-4.16016-6.24023 4.126 6.26269A7.48744 7.48744 0 0 1 456.77734 339.08725zM53.75293 338.08236a7.48079 7.48079 0 0 1-4.21143-1.29589l-.1792-.124a7.51077 7.51077 0 1 1 4.39063 1.41992zm426.19629-18.085a7.5 7.5 0 0 1-5.46338-12.63671c.05322-.05665.17676-.1836.23145-.23829a7.50079 7.50079 0 1 1 5.23193 12.875zm.75488-6.88574l.04834.04688-.73193-.73243zM30.80615 318.70151a7.479 7.479 0 0 1-5.46631-2.36329l5.46485-5.13671-5.47608 5.125a7.49989 7.49989 0 1 1 10.76612-10.44434c.03564.03613.13965.14551.1748.18262a7.5 7.5 0 0 1-5.46338 12.63672zM465.86 256.0018c-44.08 34.26977-121.6 57.00976-209.86 57.00976s-165.78-22.74-209.86-57.00976v-.01026c44.08-34.27 121.6-57 209.86-57 85.78 0 161.4 21.47022 206.06 54.14014z"/></svg>